<svg xmlns="http://www.w3.org/2000/svg" width="73" height="73" viewBox="0 0 73 73"><defs><style>.a{fill:#fff;}</style></defs><path class="a" d="M449.842,84.277h-5.7a2.139,2.139,0,1,1,0-4.277h5.7a2.139,2.139,0,0,1,0,4.277Z" transform="translate(-378.981 -68.594)"/><path class="a" d="M429.5,17.127a2.139,2.139,0,0,1-1.071-3.991l4.939-2.852a2.139,2.139,0,0,1,2.139,3.7l-4.939,2.852A2.129,2.129,0,0,1,429.5,17.127Z" transform="translate(-366.425 -8.572)"/><path class="a" d="M434.433,137.126a2.128,2.128,0,0,1-1.067-.287l-4.939-2.852a2.139,2.139,0,1,1,2.139-3.7l4.939,2.852a2.139,2.139,0,0,1-1.071,3.991Z" transform="translate(-366.425 -111.462)"/><path class="a" d="M7.842,84.277h-5.7a2.139,2.139,0,0,1,0-4.277h5.7a2.139,2.139,0,0,1,0,4.277Z" transform="translate(0 -68.594)"/><path class="a" d="M27.074,17.126a2.128,2.128,0,0,1-1.067-.287l-4.939-2.852a2.139,2.139,0,1,1,2.139-3.7l4.939,2.852a2.139,2.139,0,0,1-1.071,3.991Z" transform="translate(-17.147 -8.571)"/><path class="a" d="M22.139,137.127a2.139,2.139,0,0,1-1.071-3.991l4.939-2.852a2.139,2.139,0,0,1,2.139,3.7l-4.939,2.852A2.128,2.128,0,0,1,22.139,137.127Z" transform="translate(-17.147 -111.463)"/><path class="a" d="M73.485,208.13a7.3,7.3,0,0,0-9.382-.811l-12.439,8.75a9.568,9.568,0,0,1,1.594,5.423,9.721,9.721,0,0,1-9.772,9.5H31.759a2.139,2.139,0,1,1,0-4.277H43.634a5.347,5.347,0,0,0,0-10.693H25.154A16.4,16.4,0,0,0,14.4,220.041L2.736,230.178a2.139,2.139,0,0,0-.252,2.968l12.831,15.683a2.13,2.13,0,0,0,1.527.781c.043,0,.086,0,.129,0a2.139,2.139,0,0,0,1.519-.634l8.9-8.982a6.456,6.456,0,0,1,4.558-1.9h11.83c3.878,0,6.68-1,8.817-3.132l20.894-20.894a4.2,4.2,0,0,0,0-5.941Z" transform="translate(-1.715 -176.614)"/><path class="a" d="M229.845,112.664,234.194,100h-8.7Z" transform="translate(-193.345 -85.742)"/><g transform="translate(15.61 14.258)"><path class="a" d="M109.482,100,128.5,120.374,121.5,100Z" transform="translate(-109.482 -100)"/><path class="a" d="M288.164,100H276.145l-7,20.374Z" transform="translate(-246.383 -100)"/></g><g transform="translate(15.394)"><path class="a" d="M346.949,22.053l-5.315-7.973-4.176,7.973Z" transform="translate(-304.737 -12.073)"/><path class="a" d="M275.3,0l5.623,6.946L284.561,0Z" transform="translate(-251.442)"/><path class="a" d="M107.972,22.054h9.492l-4.176-7.973Z" transform="translate(-107.972 -12.073)"/><path class="a" d="M171.743,0l3.638,6.946L181,0Z" transform="translate(-162.651)"/><path class="a" d="M229.288,30.421,223.96,23.84l-5.328,6.581Z" transform="translate(-202.854 -20.441)"/></g></svg>