<svg xmlns="http://www.w3.org/2000/svg" width="59" height="59" viewBox="0 0 59 59"><defs><style>.a{fill:#fff;}</style></defs><g transform="translate(0 0.001)"><path class="a" d="M41,250.2a1.729,1.729,0,0,0,1.729,1.729h5.186V218.054H41Z" transform="translate(-36.275 -192.927)"/><path class="a" d="M411,251.927h5.186a1.729,1.729,0,0,0,1.729-1.729V218.054H411Z" transform="translate(-363.639 -192.927)"/><path class="a" d="M155.2,227.8a5.249,5.249,0,0,1-2.514,4.49,5.186,5.186,0,0,1-6.339-.778l-.942-.942-.943.943a5.185,5.185,0,0,1-8.852-3.667v-9.795H131v33.873h28.809V218.054H155.2Z" transform="translate(-115.904 -192.927)"/><path class="a" d="M352.341,108.054h-7.374a11.424,11.424,0,0,1-10.485,6.917H333.5v2.3h18.841a1.729,1.729,0,0,0,1.729-1.729v-5.762A1.729,1.729,0,0,0,352.341,108.054Z" transform="translate(-295.069 -95.603)"/><path class="a" d="M20.569,114.971h-.981A11.424,11.424,0,0,1,9.1,108.054H1.729A1.729,1.729,0,0,0,0,109.783v5.762a1.729,1.729,0,0,0,1.729,1.729H20.569Z" transform="translate(0 -95.603)"/><path class="a" d="M255.986,138.041h0l0-.005Z" transform="translate(-226.488 -122.13)"/><path class="a" d="M201,183.636a1.729,1.729,0,0,0,2.951,1.222l3.387-3.387,3.387,3.387a1.729,1.729,0,0,0,2.115.258,1.772,1.772,0,0,0,.836-1.526V168.083H201Z" transform="translate(-177.838 -148.715)"/><path class="a" d="M108.95,15.911h9.9a1.72,1.72,0,0,1-.908-.263l-9.219-5.762a1.729,1.729,0,1,1,1.832-2.932l8.3,5.189,8.3-5.189A1.729,1.729,0,1,1,129,9.887l-9.219,5.762a1.72,1.72,0,0,1-.908.263h9.9a7.959,7.959,0,0,0,7.95-7.95,7.95,7.95,0,0,0-15.109-3.456l-2.752,5.7-2.752-5.7A7.95,7.95,0,0,0,101,7.962,7.959,7.959,0,0,0,108.95,15.911Z" transform="translate(-89.361 0)"/></g></svg>