<svg xmlns="http://www.w3.org/2000/svg" width="482" height="454.765" viewBox="0 0 482 454.765"><defs><style>.a{fill:#edeaee;}.a,.f{opacity:0.43;}.b{opacity:0.4;}.c{fill:#d6c4d6;}.d{opacity:0.33;}.e{fill:#ece6ee;}.g{fill:#f5f5f5;}.h,.n{opacity:0.48;}.i{fill:#f8f2f9;}.j{fill:#f6f4f6;opacity:0.34;}.k{fill:#77008f;}.l{fill:#efe3f2;opacity:0.32;}.m,.n{fill:#fff;}.m{opacity:0.51;}.o{fill:#b0a7c2;}.af,.aj,.o{mix-blend-mode:multiply;isolation:isolate;}.p{fill:#a9a8c6;}.q{fill:#1c1a2a;}.r{fill:#e1dfea;}.s{fill:#7c7ca0;}.t{fill:#2e2e2e;}.u{fill:#090000;}.v{fill:#1a2738;}.w{opacity:0.27;}.x{fill:#f2f8ff;}.y{fill:#f7b23b;}.z{fill:#fbc959;}.aa{fill:#ef529c;}.ab{fill:#f6ba28;}.ac{fill:#ff73b5;}.ad{fill:#f2a305;}.ae{fill:#d2448d;}.af{fill:#b4a9c3;}.ag{fill:#e5ad40;}.ah{fill:#edbc3f;}.ai{fill:#f3d68a;}.aj{fill:#bab4cb;}.ak{fill:#c6307f;}.al{fill:#fbe76c;}.am{fill:#6d89c7;}.an{fill:#e5421c;}.ao{fill:#f7643b;}</style></defs><g transform="translate(-229.036 -42.849)"><path class="a" d="M597.237,421.1c5.671,3.275,5.671,8.586,0,11.863s-14.865,3.275-20.536,0-5.67-8.587,0-11.863S591.566,417.827,597.237,421.1Z" transform="translate(15.95 17.454)"/><path class="a" d="M242.7,338.265c3.128,1.806,3.128,4.735,0,6.541a12.5,12.5,0,0,1-11.324,0c-3.127-1.806-3.127-4.735,0-6.541A12.509,12.509,0,0,1,242.7,338.265Z" transform="translate(0 13.658)"/><g class="b" transform="translate(311.83 257.246)"><g transform="translate(0 66.454)"><path class="c" d="M397.237,350.9l-78.005,45.062a10.139,10.139,0,0,1-9.175,0h0c-2.534-1.464-2.534-3.837,0-5.3l78-45.061a10.135,10.135,0,0,1,9.176,0h0C399.77,347.062,399.77,349.435,397.237,350.9Z" transform="translate(-308.155 -309.69)"/><path class="c" d="M453.189,317.633l-41.223,23.814a10.139,10.139,0,0,1-9.175,0h0c-2.534-1.464-2.534-3.837,0-5.3l41.223-23.813a10.133,10.133,0,0,1,9.175,0h0C455.724,313.8,455.724,316.169,453.189,317.633Z" transform="translate(-303.848 -311.235)"/></g><path class="c" d="M419.335,315.538l-78,45.062a10.142,10.142,0,0,1-9.176,0h0c-2.533-1.464-2.533-3.837,0-5.3l78.005-45.061a10.133,10.133,0,0,1,9.175,0h0C421.869,311.7,421.869,314.074,419.335,315.538Z" transform="translate(-307.129 -244.878)"/><path class="c" d="M514.654,260.474l-78.005,45.062a10.133,10.133,0,0,1-9.175,0h0c-2.534-1.464-2.534-3.836,0-5.3l78-45.062a10.135,10.135,0,0,1,9.176,0h0C517.187,256.638,517.187,259.011,514.654,260.474Z" transform="translate(-302.702 -247.436)"/><path class="c" d="M557.464,280.934l-78,45.061a10.135,10.135,0,0,1-9.176,0h0c-2.533-1.463-2.533-3.836,0-5.3l78.005-45.062a10.14,10.14,0,0,1,9.175,0h0C560,277.1,560,279.47,557.464,280.934Z" transform="translate(-300.714 -246.486)"/><path class="c" d="M414.344,362.2l-22.832,13.19a10.139,10.139,0,0,1-9.175,0h0c-2.533-1.464-2.533-3.837,0-5.3L405.169,356.9a10.133,10.133,0,0,1,9.175,0h0C416.878,358.36,416.878,360.733,414.344,362.2Z" transform="translate(-304.798 -242.711)"/><path class="c" d="M601.417,254.129l-22.832,13.189a10.136,10.136,0,0,1-9.176,0h0c-2.533-1.464-2.533-3.837,0-5.3l22.832-13.19a10.142,10.142,0,0,1,9.176,0h0C603.95,250.292,603.95,252.665,601.417,254.129Z" transform="translate(-296.11 -247.73)"/><path class="c" d="M434.164,284.377l-78.005,45.062a10.139,10.139,0,0,1-9.175,0h0c-2.533-1.464-2.533-3.837,0-5.3l78.005-45.062a10.14,10.14,0,0,1,9.175,0h0C436.7,280.54,436.7,282.913,434.164,284.377Z" transform="translate(-306.44 -246.326)"/><path class="c" d="M478.116,257.572l-22.832,13.189a10.133,10.133,0,0,1-9.175,0h0c-2.533-1.464-2.533-3.836,0-5.3l22.832-13.189a10.133,10.133,0,0,1,9.175,0h0C480.649,253.735,480.649,256.108,478.116,257.572Z" transform="translate(-301.836 -247.571)"/></g><g class="d" transform="translate(437.381 347.395)"><g transform="translate(0 62.851)"><path class="e" d="M517.215,433.6,439.21,478.665a10.133,10.133,0,0,1-9.175,0h0c-2.534-1.464-2.534-3.836,0-5.3l78-45.062a10.135,10.135,0,0,1,9.176,0h0C519.748,429.767,519.748,432.14,517.215,433.6Z" transform="translate(-428.134 -392.394)"/><path class="e" d="M573.167,400.337l-41.223,23.814a10.133,10.133,0,0,1-9.175,0h0c-2.534-1.464-2.534-3.836,0-5.3l41.223-23.814a10.133,10.133,0,0,1,9.175,0h0C575.7,396.5,575.7,398.874,573.167,400.337Z" transform="translate(-423.826 -393.939)"/></g><path class="e" d="M539.313,398.242l-78,45.062a10.135,10.135,0,0,1-9.176,0h0c-2.533-1.464-2.533-3.836,0-5.3l78.005-45.062a10.133,10.133,0,0,1,9.175,0h0C541.847,394.406,541.847,396.779,539.313,398.242Z" transform="translate(-427.107 -331.186)"/><path class="e" d="M634.632,343.179l-78.005,45.062a10.14,10.14,0,0,1-9.175,0h0c-2.534-1.464-2.534-3.837,0-5.3l78-45.062a10.135,10.135,0,0,1,9.176,0h0C637.165,339.342,637.165,341.715,634.632,343.179Z" transform="translate(-422.68 -333.743)"/><path class="e" d="M677.442,363.638l-78,45.062a10.135,10.135,0,0,1-9.176,0h0c-2.533-1.464-2.533-3.837,0-5.3l78.005-45.062a10.133,10.133,0,0,1,9.175,0h0C679.976,359.8,679.976,362.174,677.442,363.638Z" transform="translate(-420.692 -332.793)"/><path class="e" d="M534.322,444.9,511.49,458.09a10.133,10.133,0,0,1-9.175,0h0c-2.533-1.463-2.533-3.836,0-5.3L525.147,439.6a10.133,10.133,0,0,1,9.175,0h0C536.857,441.064,536.857,443.437,534.322,444.9Z" transform="translate(-424.776 -329.018)"/><path class="e" d="M554.142,367.081l-78.005,45.062a10.133,10.133,0,0,1-9.175,0h0c-2.533-1.464-2.533-3.837,0-5.3l78.005-45.062a10.133,10.133,0,0,1,9.175,0h0C556.675,363.245,556.675,365.618,554.142,367.081Z" transform="translate(-426.418 -332.633)"/><path class="e" d="M598.094,340.276l-22.832,13.19a10.139,10.139,0,0,1-9.175,0h0c-2.533-1.464-2.533-3.837,0-5.3l22.832-13.189a10.133,10.133,0,0,1,9.175,0h0C600.627,336.44,600.627,338.813,598.094,340.276Z" transform="translate(-421.815 -333.878)"/></g><g class="f" transform="translate(383.87 284.293)"><g transform="translate(0 66.453)"><path class="g" d="M466.079,376.745l-78.005,45.062a10.133,10.133,0,0,1-9.175,0h0c-2.534-1.464-2.534-3.837,0-5.3l78-45.062a10.135,10.135,0,0,1,9.176,0h0C468.612,372.909,468.612,375.281,466.079,376.745Z" transform="translate(-376.998 -335.536)"/><path class="g" d="M522.031,343.479l-41.223,23.814a10.135,10.135,0,0,1-9.176,0h0c-2.533-1.464-2.533-3.837,0-5.3l41.224-23.814a10.133,10.133,0,0,1,9.175,0h0C524.566,339.642,524.566,342.015,522.031,343.479Z" transform="translate(-372.69 -337.081)"/></g><path class="g" d="M488.177,341.384l-78.005,45.062a10.139,10.139,0,0,1-9.175,0h0c-2.533-1.464-2.533-3.837,0-5.3L479,336.084a10.133,10.133,0,0,1,9.175,0h0C490.711,337.547,490.711,339.92,488.177,341.384Z" transform="translate(-375.971 -270.725)"/><path class="g" d="M583.5,286.321l-78.005,45.061a10.133,10.133,0,0,1-9.175,0h0c-2.533-1.463-2.533-3.836,0-5.3l78.005-45.062a10.142,10.142,0,0,1,9.176,0h0C586.029,282.484,586.029,284.857,583.5,286.321Z" transform="translate(-371.544 -273.282)"/><path class="g" d="M626.306,306.78l-78,45.062a10.142,10.142,0,0,1-9.176,0h0c-2.534-1.464-2.534-3.837,0-5.3L617.13,301.48a10.133,10.133,0,0,1,9.175,0h0C628.84,302.943,628.84,305.316,626.306,306.78Z" transform="translate(-369.556 -272.332)"/><path class="g" d="M483.186,388.043l-22.832,13.189a10.133,10.133,0,0,1-9.175,0h0c-2.533-1.464-2.533-3.837,0-5.3l22.832-13.19a10.139,10.139,0,0,1,9.175,0h0C485.72,384.206,485.72,386.579,483.186,388.043Z" transform="translate(-373.64 -268.558)"/><path class="g" d="M670.259,279.975l-22.833,13.189a10.133,10.133,0,0,1-9.175,0h0c-2.533-1.463-2.533-3.836,0-5.3l22.832-13.189a10.135,10.135,0,0,1,9.176,0h0C672.792,276.138,672.792,278.511,670.259,279.975Z" transform="translate(-364.952 -273.577)"/><path class="g" d="M503.006,310.223,425,355.285a10.14,10.14,0,0,1-9.175,0h0c-2.534-1.464-2.534-3.837,0-5.3l78-45.061a10.135,10.135,0,0,1,9.176,0h0C505.539,306.386,505.539,308.759,503.006,310.223Z" transform="translate(-375.282 -272.172)"/><path class="g" d="M546.958,283.418l-22.832,13.189a10.133,10.133,0,0,1-9.175,0h0c-2.534-1.463-2.534-3.836,0-5.3l22.832-13.189a10.133,10.133,0,0,1,9.175,0h0C549.491,279.581,549.491,281.954,546.958,283.418Z" transform="translate(-370.679 -273.417)"/></g><g transform="translate(241.828 236.586)"><g class="h" transform="translate(0 62.87)"><path class="i" d="M325.536,325.592l-73.8,42.632a9.592,9.592,0,0,1-8.681,0h0c-2.4-1.385-2.4-3.63,0-5.015l73.8-42.632a9.589,9.589,0,0,1,8.68,0h0C327.934,321.962,327.934,324.207,325.536,325.592Z" transform="translate(-241.261 -286.605)"/><path class="i" d="M378.473,294.12l-39,22.53a9.592,9.592,0,0,1-8.681,0h0c-2.4-1.385-2.4-3.63,0-5.015l39-22.53a9.59,9.59,0,0,1,8.68,0h0C380.869,290.49,380.869,292.735,378.473,294.12Z" transform="translate(-237.186 -288.067)"/></g><path class="j" d="M346.445,292.138l-73.8,42.632a9.592,9.592,0,0,1-8.681,0h0c-2.4-1.385-2.4-3.63,0-5.015l73.8-42.632a9.59,9.59,0,0,1,8.68,0h0C348.841,288.508,348.841,290.753,346.445,292.138Z" transform="translate(-240.289 -225.289)"/><path class="k" d="M436.622,240.044l-73.8,42.632a9.59,9.59,0,0,1-8.68,0h0c-2.4-1.385-2.4-3.63,0-5.015l73.8-42.632a9.59,9.59,0,0,1,8.68,0h0C439.019,236.414,439.019,238.659,436.622,240.044Z" transform="translate(-236.101 -227.708)"/><path class="k" d="M477.124,259.4l-73.8,42.632a9.59,9.59,0,0,1-8.68,0h0c-2.4-1.386-2.4-3.63,0-5.015l73.8-42.632a9.59,9.59,0,0,1,8.68,0h0C479.521,255.77,479.521,258.015,477.124,259.4Z" transform="translate(-234.22 -226.809)"/><path class="l" d="M341.723,336.28l-21.6,12.479a9.59,9.59,0,0,1-8.68,0h0c-2.4-1.384-2.4-3.63,0-5.015l21.6-12.479a9.592,9.592,0,0,1,8.681,0h0C344.119,332.651,344.119,334.9,341.723,336.28Z" transform="translate(-238.084 -223.238)"/><path class="k" d="M518.706,234.041l-21.6,12.478a9.586,9.586,0,0,1-8.681,0h0c-2.4-1.384-2.4-3.63,0-5.015l21.6-12.478a9.583,9.583,0,0,1,8.68,0h0C521.1,230.411,521.1,232.655,518.706,234.041Z" transform="translate(-229.864 -227.987)"/><path class="k" d="M360.473,262.657l-73.8,42.632a9.59,9.59,0,0,1-8.68,0h0c-2.4-1.384-2.4-3.63,0-5.015l73.8-42.632a9.59,9.59,0,0,1,8.68,0h0C362.87,259.028,362.87,261.272,360.473,262.657Z" transform="translate(-239.638 -226.658)"/><path class="k" d="M402.055,237.3l-21.6,12.479a9.592,9.592,0,0,1-8.681,0h0c-2.4-1.385-2.4-3.63,0-5.015l21.6-12.479a9.59,9.59,0,0,1,8.68,0h0C404.452,233.668,404.452,235.913,402.055,237.3Z" transform="translate(-235.282 -227.836)"/></g><ellipse class="a" cx="9.021" cy="5.211" rx="9.021" ry="5.211" transform="translate(278.386 202.58)"/><path class="m" d="M687.8,183.537c3.523,2.034,3.523,5.335,0,7.37a14.092,14.092,0,0,1-12.758,0c-3.522-2.035-3.522-5.336,0-7.37A14.092,14.092,0,0,1,687.8,183.537Z" transform="translate(20.592 6.463)"/><path class="n" d="M418.827,394.4c2.168,1.253,2.168,3.284,0,4.536a8.672,8.672,0,0,1-7.851,0c-2.168-1.253-2.168-3.284,0-4.536A8.679,8.679,0,0,1,418.827,394.4Z" transform="translate(8.375 16.284)"/><path class="o" d="M667.291,364.889l-93.914,54.222c-11.644,6.722-30.523,6.722-42.167,0L306.628,289.448c-11.644-6.722-11.644-17.622,0-24.345l93.914-54.221c11.644-6.722,30.522-6.722,42.165,0L667.291,340.545C678.935,347.267,678.935,358.167,667.291,364.889Z" transform="translate(3.198 7.57)"/><g transform="translate(299.014 166.176)"><path class="p" d="M298.214,239.83a16.729,16.729,0,0,0,5,4.141L528.99,374.388a28.781,28.781,0,0,0,8.491,3.248,45.187,45.187,0,0,0,9.133.976,35.429,35.429,0,0,0,17.648-4.224L671.7,312.333c3.032-1.75,6.326-4.772,7.112-8.187a7.832,7.832,0,0,0,.189-1.737v16.017c.013,4.4-3.4,7.937-7.3,10.186L564.263,390.679a28.719,28.719,0,0,1-8.491,3.237c-8.718,1.868-19.1,1.2-26.782-3.237L303.21,260.25a23.3,23.3,0,0,1-2.831-1.928c-2.451-1.94-4.46-5.2-4.46-8.33h-.012v-16.22h.012A10.71,10.71,0,0,0,298.214,239.83Z" transform="translate(-295.908 -157.308)"/><path class="q" d="M613.294,338.269a1.916,1.916,0,0,1,1.783-.226,1.788,1.788,0,0,1,.869,1.76v1.143a5.864,5.864,0,0,1-2.652,4.593l-18.173,10.5a1.616,1.616,0,0,1-2.652-1.524v-1.154a5.86,5.86,0,0,1,2.652-4.581Z" transform="translate(-282.134 -152.471)"/><path class="q" d="M573.926,360.31c2.532-2.57,4.959-1.547,4.888,1.107-.108,3.986-4.056,7.877-6.2,6.544a2.273,2.273,0,0,1-.738-.8,3.419,3.419,0,0,1-.286-2.105,7.979,7.979,0,0,1,.749-2.51s0-.013.011-.013a8.753,8.753,0,0,0,.56-.975A7.864,7.864,0,0,1,573.926,360.31Z" transform="translate(-283.106 -151.5)"/><path class="r" d="M302.6,242.224c1.855,2.237,3.342,2.832,9.834,6.628.119.071,220.025,127.144,221.167,127.7a30.368,30.368,0,0,0,13.034,2.735l-.024,2.714a45.185,45.185,0,0,1-9.133-.976,28.781,28.781,0,0,1-8.491-3.248L303.21,247.364a16.728,16.728,0,0,1-5-4.141,10.71,10.71,0,0,1-2.295-6.057,7.036,7.036,0,0,1,.179-2c.8-3.416,4.079-6.438,7.112-8.186l107.436-62.055a35.5,35.5,0,0,1,17.637-4.224l-.023,2.713a33.578,33.578,0,0,0-6.945.714c-4.65.988-6.9,2.4-10.359,4.475-3.509,2.105,7.98-4.677-40.328,23.227-7.861,4.546-15.686,9.174-23.547,13.708s-15.757,8.984-23.607,13.578c-3.27,1.915-6.529,3.854-9.811,5.71-3.84,2.166-7.421,4.058-9.252,5.521C300.32,233.633,299.25,238.191,302.6,242.224Z" transform="translate(-295.908 -160.702)"/><g transform="translate(41.062 113.739)"><path class="r" d="M354.954,281.875l1.8-1.04-19.807-11.442-1.8,1.04Z" transform="translate(-335.147 -269.393)"/><path class="s" d="M355.876,282.83v-2.5l-1.8,1.04v2.5Z" transform="translate(-334.268 -268.885)"/><path class="s" d="M354.954,284.331v-2.5l-19.807-11.442v2.5Z" transform="translate(-335.147 -269.347)"/></g><path class="q" d="M562.778,370.4h0a1.516,1.516,0,0,0,.7-1.176h0c0-.426-.314-.593-.7-.371h0a1.517,1.517,0,0,0-.7,1.176h0C562.081,370.457,562.395,370.625,562.778,370.4Z" transform="translate(-283.546 -151.039)"/><g transform="translate(347.339 162.97)"><path class="q" d="M649.561,324.142h0a2.355,2.355,0,0,0,1.081-1.826v-5.147c0-.661-.487-.921-1.081-.578h0a2.353,2.353,0,0,0-1.08,1.826v5.147C648.481,324.225,648.967,324.485,649.561,324.142Z" transform="translate(-626.872 -316.439)"/><path class="q" d="M645.431,326.528h0a2.356,2.356,0,0,0,1.081-1.826v-5.149c0-.66-.487-.92-1.081-.577h0a2.353,2.353,0,0,0-1.08,1.826v5.147C644.351,326.611,644.837,326.87,645.431,326.528Z" transform="translate(-627.064 -316.328)"/><path class="q" d="M641.3,328.913h0a2.354,2.354,0,0,0,1.081-1.825v-5.148c0-.66-.487-.92-1.081-.577h0a2.353,2.353,0,0,0-1.08,1.825v5.148C640.221,329,640.707,329.256,641.3,328.913Z" transform="translate(-627.256 -316.217)"/><path class="q" d="M637.171,331.3h0a2.354,2.354,0,0,0,1.081-1.825v-5.149c0-.66-.487-.92-1.081-.577h0a2.353,2.353,0,0,0-1.08,1.825v5.148C636.091,331.383,636.577,331.642,637.171,331.3Z" transform="translate(-627.447 -316.107)"/><path class="q" d="M633.041,333.685h0a2.354,2.354,0,0,0,1.081-1.825v-5.149c0-.66-.487-.92-1.081-.577h0a2.353,2.353,0,0,0-1.08,1.825v5.148C631.961,333.769,632.447,334.028,633.041,333.685Z" transform="translate(-627.639 -315.996)"/><path class="q" d="M628.911,336.071h0a2.355,2.355,0,0,0,1.081-1.825V329.1c0-.66-.487-.92-1.081-.577h0a2.353,2.353,0,0,0-1.08,1.825v5.147C627.831,336.155,628.317,336.414,628.911,336.071Z" transform="translate(-627.831 -315.885)"/></g><path class="r" d="M665.827,315.727,558.388,377.782a35.429,35.429,0,0,1-17.648,4.224l.024-2.714A31.213,31.213,0,0,0,552.6,377.08a41.08,41.08,0,0,0,5.482-2.975c3.508-2.105-7.979,4.677,40.328-23.228,7.861-4.545,15.686-9.174,23.547-13.707s15.769-8.984,23.607-13.578c3.271-1.915,6.529-3.855,9.823-5.711,6.506-3.665,9.574-5.092,11.583-7.984,2.629-3.784,2.023-8.782-4.471-12.625-.249-.155-226.042-130.618-227.064-131.119a30.518,30.518,0,0,0-13.046-2.736l.023-2.713a45.25,45.25,0,0,1,9.146.976,28.959,28.959,0,0,1,8.5,3.248L665.827,295.343a16.814,16.814,0,0,1,5.006,4.141,10.63,10.63,0,0,1,2.295,6.318,7.833,7.833,0,0,1-.189,1.737C672.153,310.955,668.858,313.977,665.827,315.727Z" transform="translate(-290.034 -160.702)"/><g transform="translate(4.694 2.712)"><path class="r" d="M445.253,168.426c-2.622-1.515-4.085-2.36-4.163-2.394a30.56,30.56,0,0,0-13.046-2.738,33.85,33.85,0,0,0-6.942.721c-4.651.986-6.9,2.4-10.356,4.473-3.257,1.96,6.454-3.773-31.094,17.884l-9.243,5.339c-7.859,4.552-15.688,9.176-23.537,13.711q-3.234,1.866-6.474,3.706c-5.714,3.277-11.447,6.533-17.142,9.868-3.266,1.92-6.522,3.858-9.808,5.712-3.832,2.168-7.42,4.061-9.254,5.525-4.085,3.284-5.167,7.841-1.814,11.874,1.863,2.235,3.344,2.833,9.839,6.629l95.5,55.165c59.554,34.4,125.048,72.227,125.682,72.536a30.255,30.255,0,0,0,13.026,2.737,31.185,31.185,0,0,0,11.827-2.213,39.48,39.48,0,0,0,5.48-2.974c3.51-2.108-7.976,4.674,40.337-23.224,7.859-4.551,15.688-9.175,23.547-13.715s15.766-8.985,23.615-13.574c3.257-1.916,6.523-3.859,9.808-5.711,6.514-3.662,9.575-5.092,11.584-7.987,2.534-3.638,2.067-8.392-3.744-12.166q-.352-.237-.731-.456C667.923,297.012,476.153,186.2,445.253,168.426Z" transform="translate(-300.394 -163.294)"/><path class="t" d="M668.879,297.609c5.811,3.773,6.279,8.527,3.744,12.166-2.009,2.9-5.07,4.326-11.584,7.988-3.286,1.852-6.552,3.8-9.808,5.711-7.849,4.59-15.747,9.04-23.615,13.575s-15.688,9.164-23.547,13.715c-48.313,27.9-36.828,21.116-40.337,23.224a39.483,39.483,0,0,1-5.48,2.974c-7.557,3.159-17.882,2.892-24.853-.524-1.044-.511-192.264-111-221.178-127.7-6.494-3.8-7.976-4.394-9.839-6.629-3.354-4.033-2.272-8.59,1.814-11.874,2.228-1.78,103.411-59.854,106.552-61.744,3.452-2.073,5.7-3.487,10.356-4.473,7.116-1.522,14.753-.529,19.988,2.017C441.234,166.094,435.108,162.565,668.879,297.609Z" transform="translate(-300.394 -163.294)"/></g><g transform="translate(54.319 31.415)"><path class="u" d="M372.765,193.478a3.831,3.831,0,0,1,3.521,0l1.307.75-23.915,13.814a3.888,3.888,0,0,1-3.532,0l-1.3-.749Z" transform="translate(-347.768 -190.615)"/><path class="v" d="M376.335,191.147l1.652.952a1.073,1.073,0,0,1,0,2.034l-.345.2-1.307-.75a3.831,3.831,0,0,0-3.521,0L348.9,207.4l-.344-.2a1.277,1.277,0,0,1-.738-1v-.024a1.23,1.23,0,0,1,.738-1.011l24.26-14.017A3.866,3.866,0,0,1,376.335,191.147Z" transform="translate(-347.816 -190.723)"/></g></g><g class="w" transform="translate(346.874 222.481)"><path class="x" d="M397.562,218.525,348.6,246.812a6.362,6.362,0,0,1-5.76,0h0c-1.591-.919-1.591-2.409,0-3.328L391.8,215.2a6.362,6.362,0,0,1,5.76,0h0C399.152,216.116,399.152,217.606,397.562,218.525Z" transform="translate(-341.644 -214.508)"/><path class="x" d="M393.771,233.047,359.6,252.788a6.362,6.362,0,0,1-5.76,0h0c-1.59-.919-1.59-2.409,0-3.328l34.173-19.74a6.362,6.362,0,0,1,5.76,0h0C395.362,230.639,395.362,232.128,393.771,233.047Z" transform="translate(-341.133 -213.834)"/><path class="x" d="M404.774,239.4,370.6,259.144a6.362,6.362,0,0,1-5.76,0h0c-1.591-.919-1.591-2.409,0-3.328l34.173-19.74a6.362,6.362,0,0,1,5.76,0h0C406.365,237,406.365,238.484,404.774,239.4Z" transform="translate(-340.622 -213.539)"/></g><g class="w" transform="translate(422.122 269.981)"><path class="x" d="M469.47,263.916,420.5,292.2a6.362,6.362,0,0,1-5.76,0h0c-1.591-.919-1.591-2.409,0-3.327L463.71,260.59a6.362,6.362,0,0,1,5.76,0h0C471.06,261.508,471.06,263,469.47,263.916Z" transform="translate(-413.552 -259.901)"/><path class="x" d="M465.68,278.439l-34.173,19.74a6.362,6.362,0,0,1-5.76,0h0c-1.591-.919-1.591-2.408,0-3.327l34.173-19.741a6.362,6.362,0,0,1,5.76,0h0C467.271,276.03,467.271,277.521,465.68,278.439Z" transform="translate(-413.041 -259.226)"/><path class="x" d="M476.682,284.8l-34.172,19.74a6.362,6.362,0,0,1-5.76,0h0c-1.591-.919-1.591-2.408,0-3.327l34.172-19.741a6.362,6.362,0,0,1,5.76,0h0C478.273,282.386,478.273,283.877,476.682,284.8Z" transform="translate(-412.53 -258.931)"/></g><g class="w" transform="translate(522.377 256.37)"><path class="x" d="M565.275,250.909,516.31,279.2a6.362,6.362,0,0,1-5.76,0h0c-1.591-.919-1.591-2.408,0-3.327l48.965-28.286a6.362,6.362,0,0,1,5.76,0h0C566.865,248.5,566.865,249.99,565.275,250.909Z" transform="translate(-509.357 -246.893)"/><path class="x" d="M561.485,265.432l-34.173,19.74a6.362,6.362,0,0,1-5.76,0h0c-1.591-.919-1.591-2.408,0-3.327L555.726,262.1a6.362,6.362,0,0,1,5.76,0h0C563.076,263.023,563.076,264.514,561.485,265.432Z" transform="translate(-508.846 -246.219)"/><path class="x" d="M572.487,271.788l-34.172,19.74a6.362,6.362,0,0,1-5.76,0h0c-1.591-.919-1.591-2.408,0-3.327l34.172-19.741a6.362,6.362,0,0,1,5.76,0h0C574.078,269.379,574.078,270.87,572.487,271.788Z" transform="translate(-508.335 -245.924)"/></g><g class="w" transform="translate(511.872 319.272)"><path class="x" d="M555.237,311.019l-48.966,28.286a6.36,6.36,0,0,1-5.759,0h0c-1.591-.919-1.591-2.408,0-3.327l48.965-28.286a6.362,6.362,0,0,1,5.76,0h0C556.826,308.611,556.826,310.1,555.237,311.019Z" transform="translate(-499.319 -307.003)"/><path class="x" d="M551.446,325.542l-34.173,19.74a6.362,6.362,0,0,1-5.76,0h0c-1.591-.919-1.591-2.408,0-3.327l34.173-19.741a6.362,6.362,0,0,1,5.76,0h0C553.037,323.133,553.037,324.623,551.446,325.542Z" transform="translate(-498.808 -306.329)"/><path class="x" d="M562.449,331.9l-34.173,19.74a6.362,6.362,0,0,1-5.76,0h0c-1.591-.919-1.591-2.408,0-3.327l34.173-19.741a6.362,6.362,0,0,1,5.76,0h0C564.04,329.489,564.04,330.98,562.449,331.9Z" transform="translate(-498.297 -306.034)"/></g><g class="w" transform="translate(442.396 208.524)"><path class="x" d="M488.845,205.186l-48.966,28.286a6.362,6.362,0,0,1-5.76,0h0c-1.59-.919-1.59-2.409,0-3.328l48.965-28.285a6.365,6.365,0,0,1,5.761,0h0C490.434,202.778,490.434,204.267,488.845,205.186Z" transform="translate(-432.927 -201.171)"/><path class="x" d="M485.054,219.709l-34.173,19.74a6.362,6.362,0,0,1-5.76,0h0c-1.591-.919-1.591-2.408,0-3.327l34.173-19.741a6.362,6.362,0,0,1,5.76,0h0C486.645,217.3,486.645,218.79,485.054,219.709Z" transform="translate(-432.416 -200.496)"/><path class="x" d="M496.057,226.065l-34.173,19.74a6.362,6.362,0,0,1-5.76,0h0c-1.591-.919-1.591-2.408,0-3.327L490.3,222.738a6.362,6.362,0,0,1,5.76,0h0C497.648,223.656,497.648,225.147,496.057,226.065Z" transform="translate(-431.905 -200.201)"/></g><g transform="translate(527.951 285.323)"><g transform="translate(0 23.854)"><path class="y" d="M514.684,313.514V309.23l.023-.019a8.1,8.1,0,0,0,1.84,4.368c5.941,7.489,22.995,9.242,33.091,3.432a14.189,14.189,0,0,0,4.123-3.409,7.949,7.949,0,0,0,1.874-4.95v4.862c0,3.925-3.284,6.976-6.772,8.785a29.76,29.76,0,0,1-12.674,3.019,33.451,33.451,0,0,1-11.392-1.608c-3.134-1.029-6.735-3.029-8.6-5.734A7.687,7.687,0,0,1,514.684,313.514Z" transform="translate(-514.684 -296.832)"/><path class="z" d="M553.773,304.251a7.458,7.458,0,0,1-.013,9.875,14.19,14.19,0,0,1-4.123,3.409c-10.1,5.81-27.15,4.057-33.091-3.432a7.37,7.37,0,0,1-1.2-7.9,12.426,12.426,0,0,1,5.35-5.393c6.876-3.948,17.227-4.482,25.05-1.753A17.738,17.738,0,0,1,553.773,304.251Zm-3.3,9a6.141,6.141,0,0,0,.009-8.131c-4.874-6.147-18.895-7.617-27.228-2.832a11.692,11.692,0,0,0-3.405,2.814,6.141,6.141,0,0,0-.009,8.129c4.881,6.153,18.9,7.613,27.231,2.832A11.733,11.733,0,0,0,550.471,313.253Z" transform="translate(-514.684 -297.356)"/><path class="y" d="M550.32,305.029a6.141,6.141,0,0,1-.01,8.131,11.731,11.731,0,0,1-3.4,2.812c-8.328,4.781-22.35,3.321-27.231-2.832a6.141,6.141,0,0,1,.009-8.129,11.692,11.692,0,0,1,3.405-2.814C531.425,297.412,545.446,298.882,550.32,305.029Zm-11.385,1.5q1.113-.044,2.223-.086a2.487,2.487,0,0,0-1.413-1.914,7.367,7.367,0,0,0-2.847-.767c.027-.195.055-.39.083-.586q-.625-.031-1.249-.06-.044.292-.085.586a8.9,8.9,0,0,0-3.283.514,2.742,2.742,0,0,0-1.909,2.043c-.163,1.132.719,1.9,1.792,2.322a12.544,12.544,0,0,0,2.594.715q-.28,1.953-.561,3.9a3.568,3.568,0,0,1-2.043-.832,2.209,2.209,0,0,1-.663-1.492q-1.086.063-2.169.129a2.3,2.3,0,0,0,.61,1.654,3.872,3.872,0,0,0,1.586,1.04,11.862,11.862,0,0,0,2.53.537l-.176,1.226c.418.021.834.04,1.25.06.06-.413.118-.827.179-1.24a7.818,7.818,0,0,0,3.766-.739,2.811,2.811,0,0,0,1.71-2.058,2.051,2.051,0,0,0-1.018-2,5.707,5.707,0,0,0-1.532-.691q-.5-.154-2.072-.461l.509-3.537a3.568,3.568,0,0,1,1.562.586A1.62,1.62,0,0,1,538.935,306.524Z" transform="translate(-514.523 -297.264)"/><path class="z" d="M540.658,306.272q-1.11.041-2.223.086a1.621,1.621,0,0,0-.625-1.146,3.57,3.57,0,0,0-1.562-.586l-.509,3.537q1.573.308,2.072.462a5.709,5.709,0,0,1,1.532.691,2.052,2.052,0,0,1,1.018,2,2.811,2.811,0,0,1-1.71,2.058,7.819,7.819,0,0,1-3.766.739c-.061.413-.119.827-.179,1.24l-1.25-.06.176-1.226a11.861,11.861,0,0,1-2.53-.537,3.872,3.872,0,0,1-1.586-1.04,2.3,2.3,0,0,1-.61-1.654q1.083-.064,2.169-.129a2.21,2.21,0,0,0,.663,1.492,3.568,3.568,0,0,0,2.043.832q.281-1.951.561-3.9a12.543,12.543,0,0,1-2.594-.715c-1.074-.419-1.956-1.19-1.792-2.322a2.742,2.742,0,0,1,1.909-2.043,8.9,8.9,0,0,1,3.283-.514q.041-.294.085-.586.625.028,1.249.06c-.027.2-.055.391-.083.586a7.367,7.367,0,0,1,2.847.767A2.488,2.488,0,0,1,540.658,306.272Zm-2.492,5.019a1.138,1.138,0,0,0-.419-1.1,5.893,5.893,0,0,0-2.179-.835l-.537,3.733a4.543,4.543,0,0,0,2.137-.522A1.752,1.752,0,0,0,538.166,311.29Zm-3.655-3.344q.245-1.7.489-3.394a4.585,4.585,0,0,0-2.036.479,1.494,1.494,0,0,0-.871,1.062C531.927,307.241,533.376,307.688,534.511,307.946Z" transform="translate(-514.023 -297.097)"/><path class="y" d="M537.476,309.906a1.138,1.138,0,0,1,.419,1.1,1.753,1.753,0,0,1-1,1.276,4.544,4.544,0,0,1-2.137.522l.537-3.733A5.892,5.892,0,0,1,537.476,309.906Z" transform="translate(-513.751 -296.812)"/><path class="y" d="M534.859,304.481q-.245,1.7-.489,3.394c-1.134-.258-2.584-.705-2.418-1.852a1.494,1.494,0,0,1,.871-1.062A4.585,4.585,0,0,1,534.859,304.481Z" transform="translate(-513.882 -297.025)"/></g><g transform="translate(0 17.89)"><path class="y" d="M514.684,307.815v-4.283l.023-.02a8.1,8.1,0,0,0,1.84,4.368c5.941,7.489,22.995,9.242,33.091,3.432a14.189,14.189,0,0,0,4.123-3.409,7.949,7.949,0,0,0,1.874-4.95v4.862c0,3.925-3.284,6.976-6.772,8.785a29.759,29.759,0,0,1-12.674,3.019A33.423,33.423,0,0,1,524.8,318.01c-3.134-1.029-6.735-3.029-8.6-5.735A7.687,7.687,0,0,1,514.684,307.815Z" transform="translate(-514.684 -291.133)"/><path class="z" d="M553.773,298.552a7.458,7.458,0,0,1-.013,9.875,14.192,14.192,0,0,1-4.123,3.409c-10.1,5.81-27.15,4.057-33.091-3.432a7.369,7.369,0,0,1-1.2-7.9,12.426,12.426,0,0,1,5.35-5.393c6.876-3.948,17.227-4.482,25.05-1.753A17.738,17.738,0,0,1,553.773,298.552Zm-3.3,9a6.141,6.141,0,0,0,.009-8.131c-4.874-6.147-18.895-7.616-27.228-2.832a11.692,11.692,0,0,0-3.405,2.814,6.141,6.141,0,0,0-.009,8.129c4.881,6.153,18.9,7.613,27.231,2.832A11.715,11.715,0,0,0,550.471,307.554Z" transform="translate(-514.684 -291.657)"/><path class="y" d="M550.32,299.33a6.141,6.141,0,0,1-.01,8.131,11.715,11.715,0,0,1-3.4,2.812c-8.328,4.781-22.35,3.321-27.231-2.832a6.141,6.141,0,0,1,.009-8.129,11.691,11.691,0,0,1,3.405-2.814C531.425,291.714,545.446,293.183,550.32,299.33Zm-11.385,1.5q1.113-.044,2.223-.086a2.487,2.487,0,0,0-1.413-1.914,7.384,7.384,0,0,0-2.847-.767c.027-.195.055-.39.083-.586-.417-.021-.833-.04-1.249-.06q-.044.292-.085.586a8.924,8.924,0,0,0-3.283.514,2.742,2.742,0,0,0-1.909,2.043c-.163,1.132.719,1.9,1.792,2.322a12.543,12.543,0,0,0,2.594.715q-.28,1.953-.561,3.9a3.56,3.56,0,0,1-2.043-.832,2.209,2.209,0,0,1-.663-1.492q-1.086.063-2.169.129a2.305,2.305,0,0,0,.61,1.655A3.879,3.879,0,0,0,531.6,308a11.913,11.913,0,0,0,2.53.538l-.176,1.225c.418.021.834.04,1.25.06.06-.413.118-.827.179-1.24a7.818,7.818,0,0,0,3.766-.739,2.809,2.809,0,0,0,1.71-2.058,2.051,2.051,0,0,0-1.018-2,5.709,5.709,0,0,0-1.532-.69q-.5-.154-2.072-.462l.509-3.537a3.569,3.569,0,0,1,1.562.586A1.622,1.622,0,0,1,538.935,300.825Z" transform="translate(-514.523 -291.564)"/><path class="z" d="M540.658,300.573q-1.11.041-2.223.086a1.622,1.622,0,0,0-.625-1.146,3.569,3.569,0,0,0-1.562-.586l-.509,3.537q1.573.308,2.072.463a5.712,5.712,0,0,1,1.532.69,2.052,2.052,0,0,1,1.018,2,2.809,2.809,0,0,1-1.71,2.058,7.818,7.818,0,0,1-3.766.739c-.061.413-.119.827-.179,1.24l-1.25-.06.176-1.225a11.914,11.914,0,0,1-2.53-.538,3.88,3.88,0,0,1-1.586-1.039,2.305,2.305,0,0,1-.61-1.655q1.083-.064,2.169-.129a2.209,2.209,0,0,0,.663,1.492,3.561,3.561,0,0,0,2.043.832q.281-1.951.561-3.9a12.541,12.541,0,0,1-2.594-.715c-1.074-.418-1.956-1.19-1.792-2.322a2.742,2.742,0,0,1,1.909-2.043,8.925,8.925,0,0,1,3.283-.514q.041-.294.085-.586c.417.02.833.039,1.249.06-.027.2-.055.391-.083.586a7.384,7.384,0,0,1,2.847.767A2.487,2.487,0,0,1,540.658,300.573Zm-2.492,5.019a1.138,1.138,0,0,0-.419-1.1,5.894,5.894,0,0,0-2.179-.835l-.537,3.733a4.543,4.543,0,0,0,2.137-.522A1.752,1.752,0,0,0,538.166,305.591Zm-3.655-3.344q.245-1.7.489-3.394a4.6,4.6,0,0,0-2.036.479,1.494,1.494,0,0,0-.871,1.062C531.927,301.543,533.376,301.989,534.511,302.247Z" transform="translate(-514.023 -291.398)"/><path class="y" d="M537.476,304.207a1.138,1.138,0,0,1,.419,1.1,1.753,1.753,0,0,1-1,1.276,4.543,4.543,0,0,1-2.137.522l.537-3.733A5.894,5.894,0,0,1,537.476,304.207Z" transform="translate(-513.751 -291.113)"/><path class="y" d="M534.859,298.782q-.245,1.7-.489,3.394c-1.134-.258-2.584-.7-2.418-1.852a1.494,1.494,0,0,1,.871-1.062A4.6,4.6,0,0,1,534.859,298.782Z" transform="translate(-513.882 -291.326)"/></g><g transform="translate(0 11.926)"><path class="y" d="M514.684,302.116v-4.283l.023-.02a8.1,8.1,0,0,0,1.84,4.368c5.941,7.489,22.995,9.242,33.091,3.432a14.189,14.189,0,0,0,4.123-3.409,7.949,7.949,0,0,0,1.874-4.949v4.861c0,3.925-3.284,6.977-6.772,8.785a29.759,29.759,0,0,1-12.674,3.019,33.424,33.424,0,0,1-11.392-1.608c-3.134-1.029-6.735-3.029-8.6-5.735A7.687,7.687,0,0,1,514.684,302.116Z" transform="translate(-514.684 -285.434)"/><path class="z" d="M553.773,292.853a7.458,7.458,0,0,1-.013,9.875,14.192,14.192,0,0,1-4.123,3.409c-10.1,5.81-27.15,4.057-33.091-3.432a7.369,7.369,0,0,1-1.2-7.9,12.426,12.426,0,0,1,5.35-5.393c6.876-3.948,17.227-4.482,25.05-1.753A17.746,17.746,0,0,1,553.773,292.853Zm-3.3,9a6.141,6.141,0,0,0,.009-8.131c-4.874-6.147-18.895-7.616-27.228-2.832a11.692,11.692,0,0,0-3.405,2.814,6.141,6.141,0,0,0-.009,8.129c4.881,6.153,18.9,7.613,27.231,2.832A11.715,11.715,0,0,0,550.471,301.855Z" transform="translate(-514.684 -285.958)"/><path class="y" d="M550.32,293.631a6.141,6.141,0,0,1-.01,8.131,11.714,11.714,0,0,1-3.4,2.812c-8.328,4.781-22.35,3.321-27.231-2.832a6.141,6.141,0,0,1,.009-8.129,11.691,11.691,0,0,1,3.405-2.814C531.425,286.015,545.446,287.484,550.32,293.631Zm-11.385,1.5q1.113-.044,2.223-.086a2.489,2.489,0,0,0-1.413-1.914,7.385,7.385,0,0,0-2.847-.767c.027-.195.055-.39.083-.585-.417-.022-.833-.041-1.249-.061-.029.2-.058.39-.085.586a8.925,8.925,0,0,0-3.283.514,2.742,2.742,0,0,0-1.909,2.043c-.163,1.132.719,1.9,1.792,2.322a12.541,12.541,0,0,0,2.594.715q-.28,1.953-.561,3.9a3.561,3.561,0,0,1-2.043-.832,2.209,2.209,0,0,1-.663-1.492l-2.169.129a2.305,2.305,0,0,0,.61,1.655A3.879,3.879,0,0,0,531.6,302.3a11.917,11.917,0,0,0,2.53.538l-.176,1.225q.626.031,1.25.06c.06-.413.118-.827.179-1.24a7.819,7.819,0,0,0,3.766-.739,2.809,2.809,0,0,0,1.71-2.058,2.052,2.052,0,0,0-1.018-2,5.707,5.707,0,0,0-1.532-.69q-.5-.154-2.072-.463l.509-3.537a3.581,3.581,0,0,1,1.562.586A1.622,1.622,0,0,1,538.935,295.126Z" transform="translate(-514.523 -285.866)"/><path class="z" d="M540.658,294.874q-1.11.041-2.223.086a1.622,1.622,0,0,0-.625-1.146,3.581,3.581,0,0,0-1.562-.586l-.509,3.537q1.573.308,2.072.463a5.711,5.711,0,0,1,1.532.69,2.053,2.053,0,0,1,1.018,2,2.809,2.809,0,0,1-1.71,2.058,7.818,7.818,0,0,1-3.766.739c-.061.413-.119.827-.179,1.24q-.625-.028-1.25-.06.088-.614.176-1.225a11.915,11.915,0,0,1-2.53-.538,3.88,3.88,0,0,1-1.586-1.039,2.305,2.305,0,0,1-.61-1.655q1.083-.063,2.169-.129a2.209,2.209,0,0,0,.663,1.492,3.561,3.561,0,0,0,2.043.832q.281-1.951.561-3.9a12.545,12.545,0,0,1-2.594-.715c-1.074-.418-1.956-1.19-1.792-2.322a2.742,2.742,0,0,1,1.909-2.043,8.925,8.925,0,0,1,3.283-.514c.027-.2.055-.39.085-.586.417.02.833.039,1.249.061-.027.195-.055.39-.083.585a7.384,7.384,0,0,1,2.847.767A2.489,2.489,0,0,1,540.658,294.874Zm-2.492,5.019a1.138,1.138,0,0,0-.419-1.1,5.892,5.892,0,0,0-2.179-.835l-.537,3.734a4.555,4.555,0,0,0,2.137-.523A1.752,1.752,0,0,0,538.166,299.892Zm-3.655-3.344q.245-1.7.489-3.394a4.6,4.6,0,0,0-2.036.479,1.494,1.494,0,0,0-.871,1.062C531.927,295.844,533.376,296.289,534.511,296.548Z" transform="translate(-514.023 -285.699)"/><path class="y" d="M537.476,298.508a1.138,1.138,0,0,1,.419,1.1,1.753,1.753,0,0,1-1,1.276,4.555,4.555,0,0,1-2.137.523l.537-3.734A5.893,5.893,0,0,1,537.476,298.508Z" transform="translate(-513.751 -285.414)"/><path class="y" d="M534.859,293.083q-.245,1.7-.489,3.394c-1.134-.258-2.584-.7-2.418-1.852a1.494,1.494,0,0,1,.871-1.062A4.6,4.6,0,0,1,534.859,293.083Z" transform="translate(-513.882 -285.627)"/></g><g transform="translate(0 5.963)"><path class="y" d="M514.684,296.417v-4.283l.023-.02a8.1,8.1,0,0,0,1.84,4.368c5.941,7.489,22.995,9.242,33.091,3.432a14.191,14.191,0,0,0,4.123-3.409,7.949,7.949,0,0,0,1.874-4.949v4.861c0,3.925-3.284,6.977-6.772,8.785a29.759,29.759,0,0,1-12.674,3.019,33.424,33.424,0,0,1-11.392-1.608c-3.134-1.028-6.735-3.029-8.6-5.735A7.684,7.684,0,0,1,514.684,296.417Z" transform="translate(-514.684 -279.735)"/><path class="z" d="M553.773,287.154a7.458,7.458,0,0,1-.013,9.875,14.192,14.192,0,0,1-4.123,3.409c-10.1,5.81-27.15,4.057-33.091-3.432a7.369,7.369,0,0,1-1.2-7.9,12.432,12.432,0,0,1,5.35-5.393c6.876-3.947,17.227-4.482,25.05-1.752A17.744,17.744,0,0,1,553.773,287.154Zm-3.3,9a6.141,6.141,0,0,0,.009-8.131c-4.874-6.147-18.895-7.616-27.228-2.832a11.726,11.726,0,0,0-3.405,2.814,6.141,6.141,0,0,0-.009,8.129c4.881,6.154,18.9,7.614,27.231,2.832A11.716,11.716,0,0,0,550.471,296.156Z" transform="translate(-514.684 -280.26)"/><path class="y" d="M550.32,287.932a6.141,6.141,0,0,1-.01,8.131,11.714,11.714,0,0,1-3.4,2.812c-8.328,4.782-22.35,3.322-27.231-2.832a6.141,6.141,0,0,1,.009-8.129,11.725,11.725,0,0,1,3.405-2.814C531.425,280.316,545.446,281.785,550.32,287.932Zm-11.385,1.5q1.113-.044,2.223-.086a2.489,2.489,0,0,0-1.413-1.914,7.369,7.369,0,0,0-2.847-.766c.027-.2.055-.391.083-.586-.417-.022-.833-.041-1.249-.061-.029.2-.058.39-.085.586a8.925,8.925,0,0,0-3.283.514,2.746,2.746,0,0,0-1.909,2.043c-.163,1.133.719,1.9,1.792,2.323a12.47,12.47,0,0,0,2.594.714q-.28,1.953-.561,3.9a3.56,3.56,0,0,1-2.043-.832,2.209,2.209,0,0,1-.663-1.492q-1.086.064-2.169.129a2.3,2.3,0,0,0,.61,1.655,3.892,3.892,0,0,0,1.586,1.04,11.99,11.99,0,0,0,2.53.537l-.176,1.225q.626.031,1.25.06c.06-.413.118-.827.179-1.24a7.806,7.806,0,0,0,3.766-.739,2.809,2.809,0,0,0,1.71-2.058,2.052,2.052,0,0,0-1.018-2,5.739,5.739,0,0,0-1.532-.69q-.5-.154-2.072-.463l.509-3.536a3.556,3.556,0,0,1,1.562.586A1.618,1.618,0,0,1,538.935,289.427Z" transform="translate(-514.523 -280.167)"/><path class="z" d="M540.658,289.175q-1.11.041-2.223.086a1.618,1.618,0,0,0-.625-1.145,3.556,3.556,0,0,0-1.562-.586l-.509,3.536q1.573.308,2.072.462a5.744,5.744,0,0,1,1.532.69,2.053,2.053,0,0,1,1.018,2,2.809,2.809,0,0,1-1.71,2.058,7.807,7.807,0,0,1-3.766.739c-.061.413-.119.827-.179,1.24q-.625-.028-1.25-.06l.176-1.225a11.988,11.988,0,0,1-2.53-.537,3.893,3.893,0,0,1-1.586-1.04,2.3,2.3,0,0,1-.61-1.655q1.083-.063,2.169-.129a2.209,2.209,0,0,0,.663,1.492,3.56,3.56,0,0,0,2.043.832q.281-1.95.561-3.9a12.475,12.475,0,0,1-2.594-.714c-1.074-.419-1.956-1.19-1.792-2.323a2.746,2.746,0,0,1,1.909-2.043,8.925,8.925,0,0,1,3.283-.514c.027-.2.055-.39.085-.586.417.02.833.039,1.249.061-.027.195-.055.39-.083.586a7.368,7.368,0,0,1,2.847.766A2.489,2.489,0,0,1,540.658,289.175Zm-2.492,5.019a1.138,1.138,0,0,0-.419-1.1,5.912,5.912,0,0,0-2.179-.835l-.537,3.734a4.555,4.555,0,0,0,2.137-.522A1.756,1.756,0,0,0,538.166,294.193Zm-3.655-3.344q.245-1.7.489-3.393a4.585,4.585,0,0,0-2.036.478,1.5,1.5,0,0,0-.871,1.062C531.927,290.145,533.376,290.591,534.511,290.849Z" transform="translate(-514.023 -280)"/><path class="y" d="M537.476,292.809a1.139,1.139,0,0,1,.419,1.1,1.756,1.756,0,0,1-1,1.277,4.555,4.555,0,0,1-2.137.522l.537-3.734A5.912,5.912,0,0,1,537.476,292.809Z" transform="translate(-513.751 -279.716)"/><path class="y" d="M534.859,287.385q-.245,1.7-.489,3.393c-1.134-.258-2.584-.7-2.418-1.852a1.5,1.5,0,0,1,.871-1.062A4.585,4.585,0,0,1,534.859,287.385Z" transform="translate(-513.882 -279.929)"/></g><path class="y" d="M514.684,290.718v-4.283l.023-.02a8.1,8.1,0,0,0,1.84,4.368c5.941,7.489,22.995,9.242,33.091,3.432a14.156,14.156,0,0,0,4.123-3.409,7.949,7.949,0,0,0,1.874-4.949v4.861c0,3.925-3.284,6.977-6.772,8.785a29.744,29.744,0,0,1-12.674,3.019,33.453,33.453,0,0,1-11.392-1.607c-3.134-1.029-6.735-3.029-8.6-5.736A7.684,7.684,0,0,1,514.684,290.718Z" transform="translate(-514.684 -274.037)"/><path class="z" d="M553.773,281.455a7.458,7.458,0,0,1-.013,9.875,14.158,14.158,0,0,1-4.123,3.409c-10.1,5.81-27.15,4.057-33.091-3.432a7.369,7.369,0,0,1-1.2-7.9,12.424,12.424,0,0,1,5.35-5.392c6.876-3.948,17.227-4.482,25.05-1.753A17.744,17.744,0,0,1,553.773,281.455Zm-3.3,9a6.141,6.141,0,0,0,.009-8.131c-4.874-6.147-18.895-7.616-27.228-2.832a11.725,11.725,0,0,0-3.405,2.814,6.141,6.141,0,0,0-.009,8.129c4.881,6.154,18.9,7.614,27.231,2.832A11.716,11.716,0,0,0,550.471,290.457Z" transform="translate(-514.684 -274.561)"/><path class="y" d="M550.32,282.233a6.141,6.141,0,0,1-.01,8.131,11.714,11.714,0,0,1-3.4,2.812c-8.328,4.782-22.35,3.322-27.231-2.832a6.141,6.141,0,0,1,.009-8.129,11.725,11.725,0,0,1,3.405-2.814C531.425,274.617,545.446,276.086,550.32,282.233Zm-11.385,1.5,2.223-.087a2.489,2.489,0,0,0-1.413-1.914,7.368,7.368,0,0,0-2.847-.766c.027-.2.055-.391.083-.586l-1.249-.061q-.044.294-.085.586a8.9,8.9,0,0,0-3.283.515,2.743,2.743,0,0,0-1.909,2.042c-.163,1.133.719,1.9,1.792,2.323a12.474,12.474,0,0,0,2.594.714q-.28,1.954-.561,3.9a3.567,3.567,0,0,1-2.043-.831,2.212,2.212,0,0,1-.663-1.493l-2.169.129a2.3,2.3,0,0,0,.61,1.655,3.892,3.892,0,0,0,1.586,1.04,11.986,11.986,0,0,0,2.53.537l-.176,1.225,1.25.061c.06-.413.118-.827.179-1.241a7.806,7.806,0,0,0,3.766-.739,2.809,2.809,0,0,0,1.71-2.058,2.052,2.052,0,0,0-1.018-2,5.741,5.741,0,0,0-1.532-.69q-.5-.154-2.072-.463l.509-3.536a3.555,3.555,0,0,1,1.562.586A1.618,1.618,0,0,1,538.935,283.729Z" transform="translate(-514.523 -274.469)"/><path class="z" d="M540.658,283.476l-2.223.087a1.618,1.618,0,0,0-.625-1.146,3.556,3.556,0,0,0-1.562-.586l-.509,3.536q1.573.308,2.072.463a5.744,5.744,0,0,1,1.532.69,2.053,2.053,0,0,1,1.018,2,2.809,2.809,0,0,1-1.71,2.058,7.806,7.806,0,0,1-3.766.739c-.061.414-.119.828-.179,1.241l-1.25-.061.176-1.225a11.986,11.986,0,0,1-2.53-.537,3.892,3.892,0,0,1-1.586-1.04,2.3,2.3,0,0,1-.61-1.655l2.169-.129a2.212,2.212,0,0,0,.663,1.493,3.567,3.567,0,0,0,2.043.831q.281-1.95.561-3.9a12.474,12.474,0,0,1-2.594-.714c-1.074-.419-1.956-1.19-1.792-2.323a2.743,2.743,0,0,1,1.909-2.042,8.9,8.9,0,0,1,3.283-.515q.041-.292.085-.586l1.249.061c-.027.195-.055.39-.083.586a7.368,7.368,0,0,1,2.847.766A2.489,2.489,0,0,1,540.658,283.476Zm-2.492,5.019a1.138,1.138,0,0,0-.419-1.1,5.913,5.913,0,0,0-2.179-.835l-.537,3.734a4.555,4.555,0,0,0,2.137-.522A1.754,1.754,0,0,0,538.166,288.494Zm-3.655-3.344q.245-1.7.489-3.393a4.585,4.585,0,0,0-2.036.478,1.5,1.5,0,0,0-.871,1.063C531.927,284.446,533.376,284.892,534.511,285.15Z" transform="translate(-514.023 -274.302)"/><path class="y" d="M537.476,287.11a1.139,1.139,0,0,1,.419,1.1,1.754,1.754,0,0,1-1,1.277,4.555,4.555,0,0,1-2.137.522l.537-3.734A5.911,5.911,0,0,1,537.476,287.11Z" transform="translate(-513.751 -274.017)"/><path class="y" d="M534.859,281.686q-.245,1.7-.489,3.393c-1.134-.258-2.584-.7-2.418-1.851a1.5,1.5,0,0,1,.871-1.063A4.585,4.585,0,0,1,534.859,281.686Z" transform="translate(-513.882 -274.231)"/></g><g transform="translate(477.654 135.442)"><path class="aa" d="M495.892,146.108v16.7l-6.355-1.865a5.811,5.811,0,0,0-3.711.356,10.9,10.9,0,0,0-1.132.569l-4.822,2.783a7.7,7.7,0,0,1-2.777,1.032,4.14,4.14,0,0,1-4.772-2.753,7.742,7.742,0,0,1-.495-2.923v-6.174c0-5.029,3.515-11.318,8.044-13.933l7.517-4.339c2.439-1.409,4.629-1.553,6.177-.661,1.443.836,2.326,2.578,2.326,5.042Z" transform="translate(-466.377 -131.193)"/><g transform="translate(13.063 10.821)"><path class="ab" d="M481.283,156.984l-.934.54c-.69.4-1.246.162-1.246-.527v-5.3a2.58,2.58,0,0,1,1.246-1.965l2.181-1.26v6.543a2.583,2.583,0,0,1-1.246,1.965ZM489.9,145.02a1.273,1.273,0,0,0-1.158.18l-2.32,1.338s.34-1.56.456-2.083a4.6,4.6,0,0,0,.111-1.9,1.191,1.191,0,0,0-.4-.766.727.727,0,0,0-.678-.066,1.165,1.165,0,0,0-.782.88c-.012.038-.513,2.092-.513,2.092a2.079,2.079,0,0,1-.135.418c-.369.791-.816,1.609-1.329,2.477v7.527c1.39-.4,3.478-1.248,3.621-1.316.082-.039.162-.082.241-.128a5.408,5.408,0,0,0,2.4-3.263c.262-1.159.8-3.882.8-3.882a3.566,3.566,0,0,0,.1-.6.881.881,0,0,0-.416-.915Z" transform="translate(-479.102 -141.673)"/></g><path class="ac" d="M468.976,162.206c-1.749-1.009-2.357-3.178-2.357-5.208v-6.174c0-5.029,3.518-11.319,8.044-13.933l7.517-4.339c1.9-1.1,4.3-1.749,6.18-.661.032.021.068.039.1.06l5.347,3.085c-1.548-.892-3.738-.747-6.177.661l-7.517,4.339c-4.529,2.615-8.044,8.9-8.044,13.933v6.174a7.742,7.742,0,0,0,.495,2.923,4.633,4.633,0,0,0,1.862,2.285Q471.7,163.776,468.976,162.206Z" transform="translate(-466.619 -131.332)"/></g><g transform="translate(259.686 230.854)"><path class="ab" d="M289.3,240.449c0,4.925-4.952,8.453-10.353,8.453h-6.207a11.957,11.957,0,0,0-6.233,1.7l-8.178,5.036V234.831c0-2.492,1.481-5.256,4.8-6.988a13.4,13.4,0,0,1,6.147-1.464h9.672c3.683,0,7.608,1.7,9.4,4.914a7.347,7.347,0,0,1,.952,3.538Z" transform="translate(-258.326 -222.33)"/><path class="ad" d="M289.3,230.963v4.048a7.347,7.347,0,0,0-.952-3.538c-1.794-3.215-5.718-4.914-9.4-4.914h-9.672a13.4,13.4,0,0,0-6.147,1.464c-3.317,1.732-4.8,4.5-4.8,6.988v-4.048c0-2.493,1.481-5.257,4.8-6.988a13.387,13.387,0,0,1,6.147-1.465h9.672c3.683,0,7.608,1.7,9.4,4.914A7.351,7.351,0,0,1,289.3,230.963Z" transform="translate(-258.326 -222.51)"/><g transform="translate(9.747 9.091)"><path class="ae" d="M275.864,242.68a1.133,1.133,0,0,1-1.133-1.134v-5.954h1.984a1.134,1.134,0,0,1,1.134,1.134v4.82a1.134,1.134,0,0,1-1.134,1.134Zm-7.843-6.359a1.4,1.4,0,0,0-.379,1.051,2.428,2.428,0,0,0,.093.489s.49,2.194.728,3.113a2.257,2.257,0,0,0,2.186,1.707c.071,0,.144,0,.219-.011.13-.013,2.03-.342,3.3-.7v-6.849a12.267,12.267,0,0,1-1.21-1.556,1.064,1.064,0,0,1-.122-.309s-.457-1.606-.467-1.635a.526.526,0,0,0-.712-.389,1.117,1.117,0,0,0-.617.415,2.033,2.033,0,0,0-.365.908,3.84,3.84,0,0,0,.1,1.668c.107.415.415,1.657.415,1.657h-2.111a1.439,1.439,0,0,0-1.055.446Z" transform="translate(-267.64 -231.197)"/></g></g><g transform="translate(481.836 208.214)"><g transform="translate(15.791)"><path class="ae" d="M531.1,213.849v23.715l-10.046,5.8V219.649Z" transform="translate(-484.064 -200.272)"/><path class="ac" d="M531.544,214.106l-10.046,5.8-10.046-5.8,10.046-5.8Z" transform="translate(-484.51 -200.53)"/><path class="y" d="M521.2,219.391v23.715l-3.425,1.978V221.368Z" transform="translate(-484.216 -200.015)"/><path class="y" d="M521.65,208.394l-10.046,5.8-3.424-1.978,10.045-5.8Z" transform="translate(-484.662 -200.617)"/><path class="y" d="M521.65,219.649l-3.424,1.977-10.046-5.8,3.424-1.977Z" transform="translate(-484.662 -200.272)"/><path class="ae" d="M518.225,221.281V245l-10.046,5.8V227.08Zm-3.244,24.613v-3.937l-5.9,3.409V249.3Z" transform="translate(-484.662 -199.927)"/><path class="ac" d="M518.671,221.538l-10.046,5.8-10.046-5.8,10.046-5.8Z" transform="translate(-485.108 -200.184)"/><path class="ac" d="M518.669,206.673l-10.045,5.8-10.045-5.8,10.045-5.8Z" transform="translate(-485.108 -200.875)"/><path class="ac" d="M514.941,241.04v3.937l-5.9,3.408V244.45Z" transform="translate(-484.622 -199.009)"/><path class="y" d="M508.331,211.958l3.424,1.978-3.424,1.977-3.424-1.977Z" transform="translate(-484.814 -200.36)"/><path class="aa" d="M508.625,227.08V250.8L498.579,245V221.281Z" transform="translate(-485.108 -199.927)"/><path class="y" d="M508.777,212.216l-3.424,1.978-10.046-5.8,3.426-1.978Z" transform="translate(-485.26 -200.617)"/><path class="y" d="M508.777,215.826l-10.046,5.8-3.425-1.977,10.046-5.8Z" transform="translate(-485.26 -200.272)"/><path class="ac" d="M505.8,214.106l-10.046,5.8-10.046-5.8,10.046-5.8Z" transform="translate(-485.706 -200.53)"/><path class="y" d="M498.731,221.368v23.717l-3.425-1.978V219.391Z" transform="translate(-485.26 -200.015)"/><path class="aa" d="M495.752,219.649v23.715l-10.046-5.8V213.849Z" transform="translate(-485.706 -200.272)"/></g><g transform="translate(56.308 22.268)"><path class="ae" d="M561.2,233.935V257.65l-13.722,2.122V236.057Z" transform="translate(-523.354 -221.607)"/><path class="ac" d="M559.065,229.335l2.233,4.813-13.722,2.122-2.235-4.813Z" transform="translate(-523.453 -221.82)"/><path class="y" d="M559.121,229.455,545.4,231.577l-1.254-2.7,13.724-2.122Z" transform="translate(-523.509 -221.94)"/><path class="ac" d="M558.174,226.967l-13.724,2.122-2.233-4.812-4.68.723,18.4-2.847Z" transform="translate(-523.815 -222.154)"/><path class="y" d="M547.685,235.963v23.715l-4.68.725V236.687Z" transform="translate(-523.562 -221.513)"/><path class="y" d="M545.549,231.363l2.235,4.813-4.68.725-2.234-4.813Z" transform="translate(-523.661 -221.726)"/><path class="y" d="M544.351,228.782l1.254,2.7-4.68.725-1.254-2.7Z" transform="translate(-523.716 -221.846)"/><path class="y" d="M542.217,224.184,544.451,229l-4.68.725-2.233-4.813Z" transform="translate(-523.815 -222.06)"/><path class="ae" d="M543.614,236.655v23.716l-13.722,2.122V238.777Zm-4.43,23.426v-3.937l-8.065,1.247v3.938Z" transform="translate(-524.171 -221.481)"/><path class="ac" d="M541.479,232.056l2.235,4.813-13.722,2.122-2.233-4.812v0Z" transform="translate(-524.27 -221.694)"/><path class="y" d="M540.281,229.474l1.254,2.7L527.814,234.3l-1.254-2.7v0Z" transform="translate(-524.325 -221.814)"/><path class="ac" d="M538.147,224.875l2.233,4.813-13.721,2.122L524.424,227Z" transform="translate(-524.424 -222.028)"/><path class="ac" d="M539.13,255.279v3.937l-8.065,1.248v-3.937Z" transform="translate(-524.116 -220.616)"/><path class="aa" d="M529.991,238.9v23.715l-2.233-4.812V234.085Z" transform="translate(-524.27 -221.6)"/><path class="y" d="M527.814,234.205V257.92l-1.254-2.7V231.5l1.254,2.7Z" transform="translate(-524.325 -221.72)"/><path class="aa" d="M526.659,231.717v23.715l-2.235-4.813V226.9l2.235,4.813Z" transform="translate(-524.424 -221.933)"/></g><g transform="translate(0 37.516)"><path class="ae" d="M506.036,248.071V258.12l-13.218,2.045V250.116Z" transform="translate(-469.585 -236.198)"/><path class="ac" d="M503.98,243.641l2.151,4.636-13.218,2.045h0l-2.151-4.634Z" transform="translate(-469.68 -236.404)"/><path class="y" d="M504.034,243.757,490.816,245.8l-1.208-2.6,13.217-2.045Z" transform="translate(-469.734 -236.52)"/><path class="ac" d="M500.77,236.725l2.151,4.636L489.7,243.406l-2.151-4.636Z" transform="translate(-469.829 -236.725)"/><path class="y" d="M493.018,250.026v10.049l-4.507.7V250.721Z" transform="translate(-469.785 -236.108)"/><path class="y" d="M490.963,245.6l2.151,4.634-4.507.7-2.151-4.636Z" transform="translate(-469.88 -236.313)"/><path class="y" d="M489.808,243.11l1.208,2.6-4.507.7-1.207-2.6Z" transform="translate(-469.934 -236.429)"/><path class="y" d="M487.752,238.68l2.151,4.636-4.505.7-2.151-4.636Z" transform="translate(-470.029 -236.635)"/><path class="ac" d="M489.193,250.9v0l-13.216,2.044-2.151-4.634h0l13.216-2.045Z" transform="translate(-470.467 -236.283)"/><path class="y" d="M487.1,246.376l-13.216,2.045-1.208-2.6,13.218-2.045Z" transform="translate(-470.521 -236.398)"/><path class="ac" d="M483.833,239.345l2.151,4.636-13.217,2.045-2.151-4.636Z" transform="translate(-470.616 -236.604)"/><path class="ae" d="M489.1,260.741l-13.216,2.045v-10.05l13.216-2.044Zm-4.267.247v-3.333l-7.768,1.2v3.335Z" transform="translate(-470.371 -236.077)"/><path class="ac" d="M484.778,257.346v3.334l-7.768,1.2v-3.335Z" transform="translate(-470.319 -235.768)"/><path class="aa" d="M475.977,252.85V262.9l-2.151-4.636V248.216Z" transform="translate(-470.467 -236.192)"/><path class="y" d="M473.88,248.332v10.049l-1.208-2.6V245.729l1.208,2.6Z" transform="translate(-470.521 -236.307)"/><path class="aa" d="M470.616,241.3l2.151,4.636v10.049l-2.151-4.634Z" transform="translate(-470.616 -236.513)"/></g><path class="af" d="M475.882,254.447V264.5l21.262,2.376,16.385-5.119v-6.047l14.336-1.929-1.185-2.553V227.509l6.768-1.047-.251-12.613-23.517,13.577v23.717l-8.367-13.355,5.51,11.873Z" transform="translate(-470.371 -200.272)"/><path class="af" d="M529.892,238.9v23.715l50.981-2.847-18.857-10.789V233.935Z" transform="translate(-467.863 -199.339)"/></g><g transform="translate(466.327 416.417)"><path class="ag" d="M455.8,418.231v-7.219a6.813,6.813,0,0,0,.111,1.21c1.052,5.883,9.679,10.485,20.141,10.485,10.827,0,19.684-4.918,20.229-11.094a2.816,2.816,0,0,0,.024-.364v6.983c.007,4.168-3.835,8.035-10.107,10.122a33.392,33.392,0,0,1-20.711-.142C459.448,426.077,455.8,422.288,455.8,418.231Z" transform="translate(-455.795 -399.317)"/><path class="ah" d="M496.17,410.141c-.031-.1-.115-.481-.115-.481a6.944,6.944,0,0,0-.377-1.015v-.021a10.955,10.955,0,0,0-.732-1.329,11.074,11.074,0,0,0-1.633-1.873c-.094-.084-.178-.167-.262-.251a18.046,18.046,0,0,0-4-2.606.468.468,0,0,0-.126-.063c-7.283-3.527-18.449-3.61-25.91.084a21.772,21.772,0,0,0-3.15,1.915,11.758,11.758,0,0,0-2.752,2.888,8.548,8.548,0,0,0-.523.91,7.7,7.7,0,0,0-.408.973,6.837,6.837,0,0,0-.356,2.867c.021.2.052.4.084.6,1.057,5.891,9.68,10.485,20.144,10.485,10.82,0,19.684-4.918,20.228-11.092A7.8,7.8,0,0,0,496.17,410.141Zm-2.825,2.438v-.01a3.8,3.8,0,0,0-.031-.471c-.46,4.866-6.98,8.8-15.257,9.345-.659.052-1.329.073-2,.073-9.2,0-16.733-4.154-17.266-9.387a5.7,5.7,0,0,1-.031-.6c0-5.515,7.754-9.983,17.3-9.983s17.287,4.468,17.287,9.983A9.35,9.35,0,0,1,493.345,412.58Z" transform="translate(-455.795 -399.837)"/><path class="ai" d="M493.213,412.5v-.01a3.8,3.8,0,0,0-.031-.471c-.46,4.866-6.98,8.8-15.257,9.345-.659.052-1.329.073-2,.073-9.2,0-16.733-4.154-17.266-9.387a5.7,5.7,0,0,1-.031-.6c0-5.515,7.754-9.983,17.3-9.983s17.287,4.468,17.287,9.983A9.338,9.338,0,0,1,493.213,412.5Z" transform="translate(-455.664 -399.76)"/></g><g transform="translate(419.269 92.853)"><path class="ah" d="M421.751,101.185c-4.975,4.8-8.2,9.706-7.622,11.416a.878.878,0,0,0,.539.581l.039,0a1.625,1.625,0,0,0,.758.043c1.787-.207,3.95-1.658,5.383-2.665,6.5-4.47,14.283-13.66,13.112-16.157a.929.929,0,0,0-.321-.357c-.04,0-.036-.044-.075-.048s-.114-.052-.154-.058C431.664,93.392,426.726,96.387,421.751,101.185Z" transform="translate(-410.676 -90.483)"/><path class="ag" d="M430.573,90.958c-.829-.854-3.288,0-6.542,2.257a48.1,48.1,0,0,0-9.466,8.845c-3.052,3.723-4.381,6.71-3.442,7.656l3.359,3.379a.844.844,0,0,1-.2-.343c-.57-1.75,2.648-6.619,7.622-11.416,4.931-4.762,9.913-7.793,11.653-7.2l.229.106C433.9,94.253,434.586,94.97,430.573,90.958Z" transform="translate(-410.826 -90.634)"/></g><g transform="translate(556.721 124.583)"><path class="ag" d="M575.023,141.736c4.894-.933,7.9-2.776,8.124-4.961l.689-6.889a2.339,2.339,0,0,1-.185.685c-1.417,3.433-10.426,5.446-20.988,4.481-10.655-.924-19.163-4.511-19.885-8.191-.121-.274.127-3.018-.592,6.243-.275,3.415,6.264,7.007,15.663,8.548A50.878,50.878,0,0,0,575.023,141.736Z" transform="translate(-542.177 -120.708)"/><path class="ah" d="M542.71,127.129c.721,3.68,9.275,7.246,19.881,8.191s19.573-1.047,20.99-4.48c1.08-2.843-2.806-5.158-5.6-6.374-6.574-2.81-16.1-3.91-22.656-3.383-3.362.194-7.821.877-10.645,2.637a4.059,4.059,0,0,0-2,2.489A4.319,4.319,0,0,0,542.71,127.129Z" transform="translate(-542.154 -120.955)"/><path class="ai" d="M579.086,130.634a4.757,4.757,0,0,0,1.539-.965c-.25-.435-1.306-1.443-3.963-2.609-6.243-2.684-15.419-3.612-21.232-3.142a26.041,26.041,0,0,0-8.281,1.685,7.807,7.807,0,0,0-.982.495,4.257,4.257,0,0,0-.556.469c.772,1.354,6.427,4.685,17.146,5.634C569.332,132.816,575.622,132.188,579.086,130.634Z" transform="translate(-542.018 -120.823)"/></g><g transform="translate(629.084 186.734)"><path class="ag" d="M651.08,198.916c4.289-3.433,6.267-6.778,5.36-9.023l-2.882-7.069a2.607,2.607,0,0,1,.174.764c.389,4.076-7.353,10.682-18.143,15.188-10.86,4.594-21,5.485-23.6,2.271-.261-.2-1.433-3.005,2.641,6.392,1.493,3.469,9.717,3.6,19.673.253A56.1,56.1,0,0,0,651.08,198.916Z" transform="translate(-611.315 -180.233)"/><path class="ah" d="M611.966,201.2c2.6,3.215,12.775,2.28,23.6-2.27s18.535-11.113,18.145-15.189c-.413-3.327-5.395-3.579-8.741-3.325-7.854.651-17.708,4.492-23.822,8.385-3.178,1.921-7.17,4.886-9.014,8.058a4.476,4.476,0,0,0-.669,3.46A4.809,4.809,0,0,0,611.966,201.2Z" transform="translate(-611.329 -180.348)"/><path class="ai" d="M649.276,185.777a5.273,5.273,0,0,0,1-1.734c-.47-.3-2.018-.733-5.208-.5-7.467.6-16.89,4.431-22.312,7.885a28.723,28.723,0,0,0-7.2,5.911,8.6,8.6,0,0,0-.7.989,4.551,4.551,0,0,0-.3.744c1.45.921,8.679,1.25,19.615-3.351C640.895,192.934,646.7,189.079,649.276,185.777Z" transform="translate(-611.179 -180.203)"/></g><g transform="translate(506.367 42.849)"><path class="ah" d="M494.456,49.295c.157,1.6,10.3,1.67,17.014.246,2.672-.574,4.226-1.257,4.168-1.886-.432-4.516-.348-3.7-.364-3.656-.206.982-4.783,2.1-10.434,2.55s-10.343.057-10.722-.849C494.078,45.608,494.017,44.927,494.456,49.295Z" transform="translate(-494.056 -42.799)"/><path class="ah" d="M515.28,43.974c-.063-.681-2.453-.956-3.164-1.008a48.064,48.064,0,0,0-6.4-.021c-.463.021-2.287.168-2.715.229a37.412,37.412,0,0,0-7.185,1.34c-.47.17-1.8.61-1.755,1.134.013.03,0,.052.018.083.369.928,5.063,1.32,10.714.871,5.7-.452,10.279-1.573,10.5-2.523A.18.18,0,0,0,515.28,43.974Z" transform="translate(-494.058 -42.849)"/><path class="ai" d="M495.723,45.477a35.853,35.853,0,0,0,8.948.157,35.963,35.963,0,0,0,8.834-1.556,10.067,10.067,0,0,0-1.53-.219,46.63,46.63,0,0,0-6.276-.022c-.462.021-2.256.155-2.631.211l-.022-.009a38.541,38.541,0,0,0-6.989,1.291l-.03.013Z" transform="translate(-493.98 -42.807)"/></g><g transform="translate(302.466 109.591)"><path class="ah" d="M299.281,124.5c.206,8.745,8.876,16.9,20.835,16.93,10.216.03,20.124-6.332,20.94-16.284a14.956,14.956,0,0,0-.116-3.193,14.376,14.376,0,0,0-1.218-4.086,16.939,16.939,0,0,0-4.188-5.614,22.967,22.967,0,0,0-15.3-5.625l-.038,0c-10.832-.059-20.59,7.056-20.994,16.782C299.246,123.764,299.237,124.189,299.281,124.5Z" transform="translate(-299.207 -106.629)"/><path class="ai" d="M317.689,136.894a21.721,21.721,0,0,0,2.231.128c7.662.023,16.022-4.57,16.718-12.364a10.735,10.735,0,0,0-.067-2.217l.008-.076a10.322,10.322,0,0,0-.847-2.884,13.522,13.522,0,0,0-3.173-4.262,18.361,18.361,0,0,0-10.242-4.414c-.459-.05-.956-.1-1.419-.116l-.161.06-.842-.091c-8.83.043-16.223,5.71-16.526,12.733.009.272-.02.541.006.659l-.008.076a11.617,11.617,0,0,0,3.885,8.024A17.214,17.214,0,0,0,317.689,136.894Z" transform="translate(-299.014 -106.442)"/><path class="ag" d="M340.919,127.653l.142-3.434-.067.612c-.007.076-.021.192-.028.268-1.112,8.757-10.063,15.572-20.857,15.518-10.87-.063-19.79-7.007-20.761-15.836.433,4.893.317,3.485.325,3.757.651,7.516,7.045,13.835,15.869,15.613C328.347,146.712,340.759,138.685,340.919,127.653Z" transform="translate(-299.2 -105.812)"/></g><g transform="translate(240.026 280.027)"><path class="aj" d="M269.56,345.7l17.1-.546,12.208-6.574,22.5-.51,8.069-1.184,6.249-3.61-9.248-14.507-25.463,1.382Z" transform="translate(-238.144 -267.211)"/><path class="y" d="M327.447,309.055a5.3,5.3,0,0,1,.5,1.012,3.227,3.227,0,0,1,.05,2.757c-.371.444-1.017.144-1.574-.708a.157.157,0,0,0-.016-.024,10.086,10.086,0,0,0-3.789-3.276l0-.005a5.232,5.232,0,0,0-.728-4.864A14.715,14.715,0,0,1,327.447,309.055Z" transform="translate(-235.713 -267.9)"/><path class="aa" d="M328.049,331.451l-8.346,6.616-14.284-12.551q4.175-3.31,8.346-6.616Z" transform="translate(-236.478 -267.205)"/><path class="ak" d="M321.055,311.012a4.824,4.824,0,0,0,.76-.77l1.213,4.7-3.562-3.132A4.33,4.33,0,0,0,321.055,311.012Z" transform="translate(-235.826 -267.608)"/><path class="y" d="M318.7,307.2c-2.421-.63-6.408-1.253-7.922-1.673a15.612,15.612,0,0,1-1.974-2.38l-.111-.246a.119.119,0,0,0,0-.039l.171-.019a32.86,32.86,0,0,1,5.155,0,21.261,21.261,0,0,1,3.772.545,5.086,5.086,0,0,1,.848.288l.014.008h0a2.245,2.245,0,0,1,.43,1.05A4.39,4.39,0,0,1,318.7,307.2Z" transform="translate(-236.326 -267.956)"/><path class="ak" d="M318.51,307.052a3.707,3.707,0,0,1-1.556,1.766,2.343,2.343,0,0,1-.57.215c-3.652-3.213-3.609-3.157-3.609-3.174C314.689,306.243,316.609,306.558,318.51,307.052Z" transform="translate(-236.137 -267.811)"/><path class="y" d="M319.646,311.753l3.562,3.132,1.094,4.228c-9.127-8.022-8.727-7.655-8.72-7.672A7.133,7.133,0,0,0,319.646,311.753Z" transform="translate(-236.006 -267.552)"/><path class="ak" d="M324.526,319.243l3.276,12.685-14.284-12.551q-1.389-5.371-2.775-10.741a23.3,23.3,0,0,0,2.572,1.773,13.616,13.616,0,0,0,2.471,1.155h0a.063.063,0,0,0,.019.005C315.806,311.6,315.271,311.109,324.526,319.243Z" transform="translate(-236.231 -267.682)"/><path class="y" d="M309.216,314.9l4.761,4.183q-4.175,3.306-8.346,6.616c-.016,0,.031.029-4.762-4.185Q305.042,318.209,309.216,314.9Z" transform="translate(-236.69 -267.391)"/><path class="y" d="M316.48,309.054a2.043,2.043,0,0,1-1.486-.183,19.9,19.9,0,0,1-4.309-3.471c.5.14,2.1.469,2.186.48C312.871,305.9,312.828,305.841,316.48,309.054Z" transform="translate(-236.234 -267.832)"/><path class="y" d="M306.034,295.505c.914-2.6,3.079-8.957,2.173-11.557v-.006a2.416,2.416,0,0,0-.373.151c-1.387.7-2,2.448-2.228,3.985A25.947,25.947,0,0,0,306.034,295.505Zm-3.353-3.132a14.968,14.968,0,0,0-1.442-1.365,22.129,22.129,0,0,1-.071-4.459.079.079,0,0,1,0-.024,8.607,8.607,0,0,1,1.1-3.543c1.474-2.371,4.13-2.751,6.664-1.579a6.358,6.358,0,0,1,3.66,4.054,9.1,9.1,0,0,1,.112,3.487,53.77,53.77,0,0,1-3.044,10.666c-.167.432-.215.568-.413,1.046-.009.028.062.005-.924.009a14.392,14.392,0,0,0-2.005.113A13.473,13.473,0,0,0,302.681,292.373Z" transform="translate(-236.679 -268.977)"/><path class="ak" d="M310.8,294.679c8.571,7.533,7.749,6.8,7.678,6.773a20.562,20.562,0,0,0-5.636-1.231c-1.481-.142-3.212-.2-3.959-.2.052-.078.584-1.5.616-1.591C310.7,295.147,310.706,294.9,310.8,294.679Z" transform="translate(-236.317 -268.33)"/><path class="aa" d="M287.218,309.523l8.348-6.616c14.344,12.6,14.284,12.536,14.284,12.553q-4.175,3.306-8.347,6.613l-1.346-1.182h0C300.155,320.874,300.326,321.039,287.218,309.523Z" transform="translate(-237.324 -267.948)"/><path class="ak" d="M304.927,302.088a4.387,4.387,0,0,0,1.29.745c0,.02,3.4,13.169,3.407,13.188L295.34,303.47l-3.276-12.684q6.3,5.535,12.6,11.071C304.706,301.9,304.819,302,304.927,302.088Z" transform="translate(-237.098 -268.511)"/><path class="al" d="M309.3,302.926c-.331.04-.117.03-.475.07a.118.118,0,0,1,0,.039c.005.005.077.183.136.293a22.428,22.428,0,0,0,6.062,5.7,2.471,2.471,0,0,0,.935.337c2.03.226,3.591-2.44,3.255-4.5a2.254,2.254,0,0,0-.43-1.05l.015.006-.024-.016-.01-.008.018.017-.014-.008a4.888,4.888,0,0,0-.848-.288,21.194,21.194,0,0,0-3.772-.545A40.106,40.106,0,0,0,309.3,302.926Zm-2.211-1.28a8.369,8.369,0,0,0-1.038-.382l-.022-.006a10.852,10.852,0,0,0,.074-1.362,20.978,20.978,0,0,1,2.953-.108,28.961,28.961,0,0,1,9.226,1.3c.152.055.37.143.39.151l0,0a11.456,11.456,0,0,1,1.233.585,8.324,8.324,0,0,1,2.727,2.317c.005.007.027.039.04.054a5.238,5.238,0,0,1,.649,4.926,5.7,5.7,0,0,1-.9,1.638c-1.573,1.964-4,2.035-6.391,1.225h0a.063.063,0,0,1-.019-.005,12.454,12.454,0,0,1-2.118-.955,28.474,28.474,0,0,1-6.021-4.748l-2.074-3.787,0,0A1.906,1.906,0,0,1,307.088,301.647Z" transform="translate(-236.46 -268.093)"/><path class="am" d="M306.988,291.412c-.119.4-.2.675-.377,1.226-.174-.675-.35-1.348-.522-2.023A10.345,10.345,0,0,1,306.988,291.412Z" transform="translate(-236.447 -268.519)"/><path class="y" d="M306.126,290.649c.173.675.349,1.348.522,2.023-.288.906-.526,1.6-.81,2.409a34.093,34.093,0,0,1-.55-5.169Z" transform="translate(-236.484 -268.552)"/><path class="y" d="M307.088,301.581a1.906,1.906,0,0,0-1.283.836,11.359,11.359,0,0,0,.221-1.224h0A8.791,8.791,0,0,1,307.088,301.581Z" transform="translate(-236.46 -268.028)"/><path class="y" d="M305.813,302.369l2.074,3.787a33.811,33.811,0,0,0,3.1,2.772c0,.019,2.77,10.722,2.775,10.743-4.815-4.23-4.761-4.169-4.761-4.185-1.043-4.033-2.365-9.153-3.407-13.186A2.126,2.126,0,0,0,305.813,302.369Z" transform="translate(-236.47 -267.976)"/><path class="y" d="M304.714,302.045c-12.716-11.169-12.6-11.057-12.6-11.072l-1.092-4.228,12.145,10.673c-.012.09-.026.183-.042.281a1.751,1.751,0,0,0-.072.37A5.739,5.739,0,0,0,304.714,302.045Z" transform="translate(-237.147 -268.699)"/><path class="ak" d="M303.31,297.981l-12.145-10.673-3.276-12.685c.315.276,13.607,11.956,13.892,12.208a20.438,20.438,0,0,0,.071,4.463c-1.1-.915-2.228-1.624-3.168-2.32h0a6.858,6.858,0,0,0-.851-2.286c-1.046-1.865-2.418-2.88-2.645-1.89a5.122,5.122,0,0,0-.138.954,10.153,10.153,0,0,0,2.412,6.18c1.877,2.3,4.246,3.226,5.893,4.872A5.522,5.522,0,0,1,303.31,297.981Z" transform="translate(-237.292 -269.262)"/><path class="y" d="M294.863,284.363a.488.488,0,0,1,.216-.337c.5-.278,1.584.72,2.43,2.227a6.859,6.859,0,0,1,.851,2.286c.043.314.056.794-.22.95-.495.276-1.584-.722-2.43-2.229A5.072,5.072,0,0,1,294.863,284.363Z" transform="translate(-236.97 -268.827)"/><path class="al" d="M298.364,288.522c.017,0-.032-.009.914.649a20.933,20.933,0,0,1,3.7,3.036,13.616,13.616,0,0,1,3.632,8.133,10.638,10.638,0,0,1-.291,2.863,2.135,2.135,0,0,1-.224-.069,4.333,4.333,0,0,1-1.29-.747c-.031-.027-.246-.214-.262-.23a5.74,5.74,0,0,1-1.663-3.975,1.755,1.755,0,0,1,.072-.37,5.948,5.948,0,0,0,.084-1.458c-2.192-2.191-5.755-3.149-7.668-7.888a6.758,6.758,0,0,1-.506-4.086c0-.012.006-.021.008-.032a5.072,5.072,0,0,0,.847,2.9c.846,1.507,1.935,2.505,2.43,2.229C298.421,289.317,298.407,288.836,298.364,288.522Z" transform="translate(-236.975 -268.81)"/><path class="al" d="M291.232,286.745l1.092,4.228c-.016,0,.067-.05-5.764,4.567a9.739,9.739,0,0,0,.2-2.975,14.469,14.469,0,0,0-.31-2.032Q288.842,288.638,291.232,286.745Z" transform="translate(-237.359 -268.699)"/><path class="ac" d="M292.421,290.785c0,.016-.028-.11,3.276,12.685l-8.348,6.616c-3.08-11.932-2.978-11.509-2.978-11.527,1.287-1,1.58-1.407,1.815-1.88a6.353,6.353,0,0,0,.471-1.327C292.487,290.736,292.406,290.785,292.421,290.785Z" transform="translate(-237.456 -268.511)"/><path class="ac" d="M288.237,274.623l3.276,12.685q-2.391,1.892-4.779,3.787a18.109,18.109,0,0,0-1.08-3.244,18.731,18.731,0,0,0-5.232-6.978l-.037-.029Z" transform="translate(-237.641 -269.262)"/><path class="ak" d="M287.225,309.255c13.06,11.474,12.937,11.352,12.937,11.369v7.411l-13.09,7.557V308.663Z" transform="translate(-237.33 -267.681)"/><path class="y" d="M287.3,335.8l-5.235,3.022v-32.4l4.006-2.313,1.23,4.759Z" transform="translate(-237.563 -267.892)"/><path class="ac" d="M287.371,302.2l.679,2.631-17.1,9.87c-28.473-16.439-2.6-1.5-31.416-18.138,14.245-8.224,13.557-7.842,13.577-7.809.36.673.767,1.431,1.227,2.286-.024,0-9.548,5.512-9.567,5.522,28.174,16.27,23.2,13.392,26.179,15.115C273.513,310.2,263.41,316.033,287.371,302.2Z" transform="translate(-239.538 -268.606)"/><path class="ak" d="M285.06,298.215l.917,3.543L270.3,310.809c-.247-.143-.495-.285-.741-.428v-1.786l1.657-.959C279.5,302.159,283.257,299.612,285.06,298.215Z" transform="translate(-238.144 -268.166)"/><path class="ak" d="M282.65,338.723l-13.09,7.557v-32.4l13.09-7.557Z" transform="translate(-238.144 -267.789)"/><path class="am" d="M270.2,279.248l1.51.874c-.017.012-1.02.589-1.038.6q-.2-.735-.474-1.473Z" transform="translate(-238.114 -269.047)"/><path class="ak" d="M270.334,310.269l-.741.427-.741-.427c.246-.143.494-.285.741-.428C269.839,309.984,270.087,310.126,270.334,310.269Z" transform="translate(-238.176 -267.626)"/><path class="an" d="M251.334,273.95l6.693-3.865c1.912-1.153,4.323-.443,6.223.752a18.513,18.513,0,0,1,7.294,10.337q-1.91,1.1-3.821,2.206v0c-1.824,1.012-2.451,3.24-2.451,5.325,0-4.995-3.4-11.168-7.815-13.95C255.608,273.594,253.228,272.867,251.334,273.95Z" transform="translate(-238.99 -269.5)"/><path class="aa" d="M270.141,313.882v32.4l-13.09-7.557v-32.4Z" transform="translate(-238.725 -267.789)"/><path class="ak" d="M269.662,308.134v1.786c-.247.143-.495.285-.741.428l-1.548-.894Z" transform="translate(-238.245 -267.705)"/><path class="an" d="M273.735,279.072c1.988-1.158,4.554-.3,6.453.992.281.183.578.411.819.6a16.187,16.187,0,0,1,2.169,2.09,19.338,19.338,0,0,1,4.178,8.161,9.9,9.9,0,0,1-.362,6.334c-.234.473-.527.884-1.814,1.88h0c-1.8,1.4-5.558,3.944-13.843,9.421-.713.413-3.93,2.279-3.946,2.279-.064-.039-.13-.075-.195-.113,11.666-7.738,12.48-8.486,13.006-9.548a8.392,8.392,0,0,0,.674-4.3c-.395-5.311-4.2-11.236-8.517-13.505-1.67-.878-3.7-1.325-5.362-.4,0-.015,4.693-2.7,4.859-2.808C271.88,280.155,273.735,279.056,273.735,279.072Z" transform="translate(-238.263 -269.08)"/><path class="ak" d="M262.936,307.079l-18.393-10.62q4.781-2.761,9.566-5.522C254.125,290.937,254.562,291.854,262.936,307.079Z" transform="translate(-239.306 -268.504)"/><path class="al" d="M257.283,306.459v32.4l-5.236-3.022v-32.4Z" transform="translate(-238.957 -267.924)"/><path class="aa" d="M252.628,303.771v32.4l-13.09-7.557v-32.4Z" transform="translate(-239.538 -268.259)"/><path class="ao" d="M257.565,274.583c4.381,2.759,7.815,8.914,7.815,13.95a7.213,7.213,0,0,1,1.035-4,4.007,4.007,0,0,1,2.844-1.794,6.686,6.686,0,0,1,3.934.87c4.343,2.281,8.125,8.223,8.517,13.505a8.392,8.392,0,0,1-.674,4.3c-.526,1.062-1.34,1.809-13.006,9.548l-5.3-3.061c-3.8-6.908-9.1-16.516-11.884-21.95-.247-.494-.458-.941-.7-1.489a13.935,13.935,0,0,1-1.095-6.2C249.445,273.451,253.2,271.837,257.565,274.583Z" transform="translate(-239.098 -269.326)"/></g></g></svg>