<svg xmlns="http://www.w3.org/2000/svg" width="68" height="68" viewBox="0 0 68 68"><defs><style>.a{fill:#fff;}</style></defs><path class="a" d="M189.555,112.25H177.6a1.992,1.992,0,0,1,0-3.984h9.3a1.992,1.992,0,1,0,0-3.984h-9.3a4.654,4.654,0,0,1-4.648-4.648V94.32a3.324,3.324,0,0,0-3.32-3.32.665.665,0,0,0-.664.664V98.3a5.983,5.983,0,0,1-5.977,5.977H161V130.24a23.3,23.3,0,0,0,9.26,1.931h13.982a1.992,1.992,0,1,0,0-3.984H177.6a1.992,1.992,0,0,1,0-3.984h9.3a1.992,1.992,0,1,0,0-3.984h-9.3a1.992,1.992,0,0,1,0-3.984h11.953a1.992,1.992,0,1,0,0-3.984Z" transform="translate(-139.617 -78.914)"/><path class="a" d="M58.042,9.958A34,34,0,0,0,9.958,58.042,34,34,0,0,0,58.042,9.958Zm-5.4,30.7a5.969,5.969,0,0,1-2.656,7.969,5.974,5.974,0,0,1-5.36,8.618H30.643A27.291,27.291,0,0,1,18.5,54.375a1.992,1.992,0,0,1-1.1-1.782V23.375a1.992,1.992,0,0,1,1.992-1.992h3.984a1.994,1.994,0,0,0,1.992-1.992V12.75A4.654,4.654,0,0,1,30.016,8.1a7.313,7.313,0,0,1,7.3,7.3v5.312a.665.665,0,0,0,.664.664h9.3A5.974,5.974,0,0,1,52.641,30a5.972,5.972,0,0,1,0,10.655Z" transform="translate(0)"/></svg>