<svg xmlns="http://www.w3.org/2000/svg" width="47.617" height="64.18" viewBox="0 0 47.617 64.18"><defs><style>.a{fill:#34a853;}</style></defs><path class="a" d="M205.512,124.125H186.879a3.105,3.105,0,0,1,0-6.211h14.492a3.105,3.105,0,1,0,0-6.211H186.879a7.254,7.254,0,0,1-7.246-7.246V96.176A5.182,5.182,0,0,0,174.457,91a1.036,1.036,0,0,0-1.035,1.035v10.352a9.327,9.327,0,0,1-9.316,9.316H161v40.466a36.327,36.327,0,0,0,14.435,3.011h21.8a3.105,3.105,0,1,0,0-6.211H186.879a3.105,3.105,0,0,1,0-6.211h14.492a3.105,3.105,0,1,0,0-6.211H186.879a3.105,3.105,0,0,1,0-6.211h18.633a3.105,3.105,0,1,0,0-6.211Z" transform="translate(-161 -91)"/></svg>