<svg xmlns="http://www.w3.org/2000/svg" width="128.902" height="79.993" viewBox="0 0 128.902 79.993"><defs><style>.a{fill:none;stroke:#f87d22;stroke-width:3px;}</style></defs><path class="a" d="M107.733,126.6A18.178,18.178,0,0,0,92.8,134.412l-4.729-2.019v-2.954l14.814-6.125,3.8-8.738h1.748l8.763,10.372a1.708,1.708,0,0,0,2.616-2.2l-6.908-8.177H114a1.7,1.7,0,1,0,0-3.408h-2.569l2.238-1.057a2.127,2.127,0,0,0,1.023-2.821l-1.289-2.769a2.138,2.138,0,0,0-1.92-1.234l-23.721-.214h-.019a2.142,2.142,0,0,0-1.565.679,24.62,24.62,0,0,1-13.83,6.208,20.038,20.038,0,0,0-2.961-4.119,17.464,17.464,0,0,0-13.067-5.617,22.4,22.4,0,0,0-3.192.236l-.017,0a134.8,134.8,0,0,0-14.479,3.273c-.09,0-.22.009-.38.009-.948,0-3.248-.168-4.145-1.728a2.951,2.951,0,0,1-.185-.39l3.951-.715a2.024,2.024,0,1,0-.726-3.982l-3.184.576a32.627,32.627,0,0,1,3.793-8.478,2.135,2.135,0,0,0-2.6-3.071A32.848,32.848,0,0,0,24.2,93.515a28.808,28.808,0,0,0-7.823,15.832,7.8,7.8,0,0,1,1.1-1.618s5.836,3.8,2.541,9.291H16.152c.093,1.116.237,2.267.444,3.457a2.129,2.129,0,0,0,.66,1.206l4.774,4.371c-15.7-2.1-21.342,8.053-21.342,8.053C-.49,135.668.1,137.352,2,136.458A17.937,17.937,0,0,0,0,144.7a18.169,18.169,0,1,0,36.2-2.188H58.4l-8.764-6.51s-10.4,1-17.82-7.045c.777-.039,1.624-.064,2.524-.064,6.016,0,14.392,1.079,20.124,6.219a2.156,2.156,0,0,0,.235.183l19.665,13.208a2.143,2.143,0,0,0,2.706-.26l7.923-7.9,4.724,2.016a18.171,18.171,0,1,0,18.013-15.77Zm-19.665-4.39,13.389-6.326-1.81,4.157-11.579,4.788Zm-69.9,32.083a9.586,9.586,0,1,1,0-19.172c.224,0,.445.01.665.025l-3.979,8.175,7.693,3.719,3.679-7.559a9.5,9.5,0,0,1,1.561,5.225A9.613,9.613,0,0,1,18.169,154.29Zm89.564,0a9.62,9.62,0,0,1-9.53-8.3l7.277,3.106,3.367-7.832-7.88-3.363a9.6,9.6,0,1,1,6.766,16.391Z" transform="translate(1.5 -84.318)"/></svg>