<svg xmlns="http://www.w3.org/2000/svg" xmlns:xlink="http://www.w3.org/1999/xlink" width="559.813" height="155" viewBox="0 0 559.813 155"><defs><style>.a{fill:url(#a);}.b{opacity:0.24;}.c{fill:#f3efef;}.d{fill:#f5eded;}.e{opacity:0.21;}.f{fill:#eee0e0;}</style><linearGradient id="a" x1="0.5" x2="0.5" y2="1" gradientUnits="objectBoundingBox"><stop offset="0" stop-color="#464bcd"/><stop offset="1" stop-color="#9f4aab"/></linearGradient></defs><g transform="translate(-409 -90)"><rect class="a" width="559.813" height="155" transform="translate(409 90)"/><g class="b" transform="translate(489 197.021)"><path class="c" d="M53.076,18.608H40.326A12.324,12.324,0,0,0,45.1,14.39c1.139-1.817,1.351-3.589.582-4.856a3.394,3.394,0,0,0-3.446-1.47c-4.637.362-8.725,5.257-10.711,8.068-1.986-2.81-6.074-7.705-10.711-8.071a3.39,3.39,0,0,0-3.446,1.47c-.769,1.268-.557,3.037.582,4.856a12.324,12.324,0,0,0,4.771,4.219H9.97a1.47,1.47,0,0,0-1.47,1.47V28.6a1.47,1.47,0,0,0,1.47,1.47h.345V53.514a1.47,1.47,0,0,0,1.47,1.47H51.265a1.47,1.47,0,0,0,1.47-1.47h0V30.073h.341a1.47,1.47,0,0,0,1.47-1.47V20.081a1.47,1.47,0,0,0-1.467-1.472ZM34.22,21.547v5.584H28.826V21.547Zm17.386,5.584H37.159V21.547H51.606ZM42.465,10.986c.081-.007.155-.009.22-.009a1.063,1.063,0,0,1,.481.076c.072.127.068.8-.6,1.835a11.015,11.015,0,0,1-8.317,4.466c1.959-2.658,5.17-6.122,8.214-6.366ZM20.478,12.892c-.666-1.036-.671-1.708-.607-1.825a.97.97,0,0,1,.49-.086,1.936,1.936,0,0,1,.218.009c3.043.24,6.254,3.708,8.214,6.368A11.014,11.014,0,0,1,20.478,12.892Zm-9.039,8.656H25.886v5.584H11.439Zm1.814,8.79H25.891V52.045H13.253ZM28.83,52.048V30.337h5.394V52.045Zm20.965,0H37.158V30.337H49.8Z" transform="translate(-8.5 -8.005)"/></g><g class="b" transform="translate(669.063 202.352)"><path class="d" d="M41.371,15.824h-9.4a9.088,9.088,0,0,0,3.518-3.111,3.429,3.429,0,0,0,.429-3.581,2.5,2.5,0,0,0-2.541-1.084c-3.419.267-6.434,3.877-7.9,5.949-1.464-2.072-4.479-5.682-7.9-5.951A2.5,2.5,0,0,0,15.038,9.13a3.429,3.429,0,0,0,.429,3.581,9.088,9.088,0,0,0,3.518,3.111h-9.4A1.084,1.084,0,0,0,8.5,16.905v6.285a1.084,1.084,0,0,0,1.084,1.084h.254v17.29a1.084,1.084,0,0,0,1.084,1.084H40.036a1.084,1.084,0,0,0,1.084-1.084h0V24.279h.251a1.084,1.084,0,0,0,1.084-1.084V16.91a1.084,1.084,0,0,0-1.081-1.086Zm-13.9,2.167v4.118H23.489V17.991Zm12.821,4.118H29.634V17.991H40.287ZM33.546,10.2c.06-.005.114-.007.163-.007a.784.784,0,0,1,.355.056c.053.094.05.59-.441,1.353A8.123,8.123,0,0,1,27.489,14.9c1.445-1.96,3.812-4.515,6.057-4.694ZM17.333,11.608c-.491-.764-.495-1.259-.448-1.346a.715.715,0,0,1,.361-.064,1.427,1.427,0,0,1,.161.007c2.244.177,4.612,2.734,6.057,4.7A8.122,8.122,0,0,1,17.333,11.608Zm-6.665,6.383H21.321v4.118H10.667Zm1.338,6.482h9.32V40.481h-9.32Zm11.487,16.01V24.473H27.47V40.481Zm15.46,0H29.633V24.473h9.319Z" transform="translate(0 0)"/></g><g class="e" transform="translate(864.438 -10.33)"><g transform="translate(-51 108)"><path class="f" d="M224.768,189.574a1.974,1.974,0,0,1-1.094-.331l-9.822-6.548-9.822,6.548a1.972,1.972,0,0,1-2.964-2.263l3.254-9.763L197.9,170.8a1.971,1.971,0,0,1,1.394-3.365h9.495l3.189-9.567a1.972,1.972,0,0,1,3.74,0l3.189,9.567h9.494A1.971,1.971,0,0,1,229.8,170.8l-6.422,6.415,3.254,9.761a1.973,1.973,0,0,1-1.87,2.591Zm-10.915-11.22a1.972,1.972,0,0,1,1.094.331l6.133,4.09-1.819-5.465a1.972,1.972,0,0,1,.477-2.018l3.91-3.91H217.49a1.973,1.973,0,0,1-1.87-1.352l-1.768-5.3-1.768,5.3a1.973,1.973,0,0,1-1.871,1.352h-6.155l3.91,3.91a1.972,1.972,0,0,1,.477,2.018l-1.822,5.465,6.134-4.09A1.971,1.971,0,0,1,213.852,178.355Z" transform="translate(-136.113 -113.173)"/><path class="f" d="M394.442,302.09a1.972,1.972,0,0,1-1.708-.988l-4.593-7.98-9.132,1.171a1.971,1.971,0,0,1-1.649-3.345L383,285.266l-2.245-6.671a1.972,1.972,0,0,1,2.744-2.4l6.569,3.259,5.5-5.537a1.972,1.972,0,0,1,3.352,1.662l-1.079,7.731,6.569,3.259a1.971,1.971,0,0,1-.248,3.634l-6.667,2.244-1.106,7.933a1.979,1.979,0,0,1-1.953,1.7Zm-5.248-13.062a1.972,1.972,0,0,1,1.708.988l2.382,4.138.482-3.448a1.969,1.969,0,0,1,1.323-1.6l3.311-1.115-3.578-1.774a1.972,1.972,0,0,1-1.077-2.039l.458-3.282-2.335,2.35a1.971,1.971,0,0,1-2.275.376l-3.578-1.774,1.115,3.311a1.972,1.972,0,0,1-.47,2.019l-2.454,2.469,4.732-.607a2.092,2.092,0,0,1,.256-.016Z" transform="translate(-254.361 -193.706)"/><path class="f" d="M250.972,338.386A1.972,1.972,0,0,1,249,336.415V279.436a1.972,1.972,0,0,1,3.943,0v56.979a1.972,1.972,0,0,1-1.972,1.972Z" transform="translate(-173.234 -193.058)"/><path class="f" d="M332.915,401.15a1.947,1.947,0,0,1-.643-.113,1.971,1.971,0,0,1-1.22-2.507,165.145,165.145,0,0,1,16.7-32.784,1.972,1.972,0,0,1,3.327,2.117l-.023.036a164.041,164.041,0,0,0-16.276,31.922,1.971,1.971,0,0,1-1.863,1.328Z" transform="translate(-226.208 -255.82)"/><path class="f" d="M294.275,378.847a6.974,6.974,0,1,1,6.972-6.975h0A6.985,6.985,0,0,1,294.275,378.847Zm0-10a3.031,3.031,0,1,0,3.029,3.032h0A3.034,3.034,0,0,0,294.275,368.843Z" transform="translate(-197.939 -257.99)"/><path class="f" d="M383.758,150.827a6.974,6.974,0,1,1,6.974-6.974A6.973,6.973,0,0,1,383.758,150.827Zm0-10a3.031,3.031,0,1,0,3.031,3.031,3.03,3.03,0,0,0-3.031-3.031Z" transform="translate(-254.359 -100.289)"/><path class="f" d="M401.014,458.2a6.974,6.974,0,1,1,6.974-6.974h0A6.985,6.985,0,0,1,401.014,458.2Zm0-10a3.031,3.031,0,1,0,3.031,3.031A3.03,3.03,0,0,0,401.014,448.2Z" transform="translate(-266.755 -312.871)"/><path class="f" d="M250.972,27.6A1.973,1.973,0,0,1,249,25.624V20.2a1.972,1.972,0,0,1,3.943,0v5.425A1.973,1.973,0,0,1,250.972,27.6Z" transform="translate(-173.234 -18.228)"/><path class="f" d="M250.972,84.55A1.973,1.973,0,0,1,249,82.579V68.64a1.972,1.972,0,0,1,3.943,0V82.579A1.973,1.973,0,0,1,250.972,84.55Z" transform="translate(-173.234 -53.025)"/><path class="f" d="M327.917,237.917a1.973,1.973,0,0,1-1.893-2.528,263.368,263.368,0,0,1,12.708-32.981,1.972,1.972,0,0,1,3.572,1.671,258.751,258.751,0,0,0-12.5,32.421,1.971,1.971,0,0,1-1.89,1.417Z" transform="translate(-223.423 -143.68)"/><path class="f" d="M447.228,408.275a1.97,1.97,0,0,1-1.438-3.319,43.279,43.279,0,0,1,10.231-7.646,1.972,1.972,0,0,1,1.858,3.479,39.942,39.942,0,0,0-9.214,6.872,1.966,1.966,0,0,1-1.436.614Z" transform="translate(-303.547 -278.982)"/><path class="f" d="M345.668,69.713a1.974,1.974,0,0,1-1.782-2.816c.885-1.883,1.773-3.673,2.638-5.323a1.972,1.972,0,1,1,3.492,1.832c-.838,1.6-1.7,3.339-2.562,5.17A1.974,1.974,0,0,1,345.668,69.713Z" transform="translate(-236.575 -48.607)"/><path class="f" d="M315.551,124.594A1.973,1.973,0,0,1,313.678,122c.02-.063,2.119-6.411,5.312-14.195a1.972,1.972,0,0,1,3.648,1.5c-3.141,7.651-5.195,13.866-5.215,13.928A1.97,1.97,0,0,1,315.551,124.594Z" transform="translate(-216.063 -79.253)"/><path class="f" d="M44.3,302.1a1.979,1.979,0,0,1-1.954-1.7l-1.107-7.938-6.664-2.241a1.972,1.972,0,0,1-.248-3.634l6.569-3.259L39.816,275.6a1.971,1.971,0,0,1,3.352-1.662l5.5,5.537,6.569-3.259a1.971,1.971,0,0,1,2.744,2.392l-2.245,6.667,5.651,5.685a1.972,1.972,0,0,1-1.649,3.345l-9.132-1.171-4.593,7.98a1.973,1.973,0,0,1-1.714.988ZM40.341,288l3.311,1.115a1.969,1.969,0,0,1,1.323,1.6l.482,3.448,2.382-4.138a1.973,1.973,0,0,1,1.959-.972l4.732.607-2.454-2.469a1.972,1.972,0,0,1-.47-2.019l1.115-3.311-3.578,1.774a1.975,1.975,0,0,1-2.275-.376l-2.335-2.35.457,3.282a1.971,1.971,0,0,1-1.076,2.039Z" transform="translate(-28.919 -193.715)"/><path class="f" d="M126.945,401.152a1.972,1.972,0,0,1-1.863-1.326A164.438,164.438,0,0,0,108.806,367.9a1.972,1.972,0,0,1,3.28-2.189l.023.036a165.027,165.027,0,0,1,16.7,32.784,1.971,1.971,0,0,1-1.862,2.615Z" transform="translate(-78.175 -255.823)"/><path class="f" d="M182.15,378.847a6.974,6.974,0,1,1,6.974-6.974A6.973,6.973,0,0,1,182.15,378.847Zm0-10a3.031,3.031,0,1,0,3.031,3.031A3.03,3.03,0,0,0,182.15,368.843Z" transform="translate(-123.01 -257.99)"/><path class="f" d="M92.67,150.827a6.974,6.974,0,1,1,6.974-6.974h0A6.985,6.985,0,0,1,92.67,150.827Zm0-10a3.031,3.031,0,1,0,3.031,3.031h0a3.034,3.034,0,0,0-3.031-3.026Z" transform="translate(-66.607 -100.289)"/><path class="f" d="M75.434,458.2a6.974,6.974,0,1,1,6.974-6.974h0A6.985,6.985,0,0,1,75.434,458.2Zm0-10a3.031,3.031,0,1,0,3.031,3.031A3.03,3.03,0,0,0,75.434,448.2Z" transform="translate(-54.226 -312.871)"/><path class="f" d="M141.881,237.917a1.974,1.974,0,0,1-1.892-1.416,258.845,258.845,0,0,0-12.5-32.422,1.972,1.972,0,0,1,3.572-1.671,263.343,263.343,0,0,1,12.708,32.979,1.972,1.972,0,0,1-1.893,2.528Z" transform="translate(-90.899 -143.68)"/><path class="f" d="M29.7,408.153a1.963,1.963,0,0,1-1.435-.62,39.94,39.94,0,0,0-9.214-6.872,1.971,1.971,0,1,1,1.687-3.564c.058.027.115.058.17.091a43.263,43.263,0,0,1,10.232,7.646,1.97,1.97,0,0,1-1.439,3.319Z" transform="translate(-17.921 -278.86)"/><path class="f" d="M149.639,69.725a1.974,1.974,0,0,1-1.786-1.133c-.861-1.831-1.724-3.57-2.562-5.17a1.972,1.972,0,1,1,3.492-1.832c.865,1.65,1.753,3.441,2.638,5.323a1.974,1.974,0,0,1-1.782,2.816Z" transform="translate(-103.258 -48.618)"/><path class="f" d="M173,124.7a1.97,1.97,0,0,1-1.871-1.352c-.02-.062-2.079-6.285-5.215-13.928a1.972,1.972,0,0,1,3.646-1.5c3.193,7.78,5.295,14.129,5.312,14.195a1.973,1.973,0,0,1-1.874,2.591Z" transform="translate(-117.009 -79.354)"/></g></g></g></svg>