<svg xmlns="http://www.w3.org/2000/svg" xmlns:xlink="http://www.w3.org/1999/xlink" width="495.482" height="397" viewBox="0 0 495.482 397"><defs><style>.a{fill:#e6e6e6;}.b,.j,.n{fill:#fff;}.c{fill:#407bff;}.d{fill:#2f2e41;}.e{fill:#3f3d56;}.f{fill:url(#a);}.g{fill:#ff887b;}.h{fill:#263238;}.i,.j,.o{opacity:0.2;}.k{fill:#ff8b7b;}.l{opacity:0.1;}.m{opacity:0.3;}.n{opacity:0.7;}.o{isolation:isolate;}.p{fill:#ff5652;}.q{opacity:0.4;}</style><linearGradient id="a" x1="0.5" y1="1" x2="0.5" gradientUnits="objectBoundingBox"><stop offset="0" stop-color="#c5cfff"/><stop offset="0.248" stop-color="#d3dbff"/><stop offset="0.547" stop-color="#dce3ff"/><stop offset="1" stop-color="#dfe6ff"/></linearGradient></defs><g transform="translate(-173.519 -284)"><rect class="a" width="315.189" height="149.563" transform="translate(330.536 292.641)"/><rect class="b" width="297.164" height="124.785" transform="translate(339.549 305.466)"/><rect class="c" width="315.189" height="13.39" transform="translate(330.402 284)"/><circle class="b" cx="2.482" cy="2.482" r="2.482" transform="translate(337.871 287.712)"/><circle class="b" cx="2.482" cy="2.482" r="2.482" transform="translate(347.291 287.712)"/><circle class="b" cx="2.482" cy="2.482" r="2.482" transform="translate(356.711 287.712)"/><path class="a" d="M593.487,91.208a1.2,1.2,0,1,0,0,2.4h65.975a1.2,1.2,0,0,0,0-2.4Z" transform="translate(-121.025 243.872)"/><path class="a" d="M593.49,104.09a1.2,1.2,0,0,0,0,2.4h33.682a1.2,1.2,0,0,0,0-2.4Z" transform="translate(-121.028 238.205)"/><path class="a" d="M590.523,166.444a1.2,1.2,0,1,0,0,2.4h123.7a1.2,1.2,0,1,0,0-2.4Z" transform="translate(-119.721 210.771)"/><path class="a" d="M590.526,179.326a1.2,1.2,0,0,0,0,2.4h91.41a1.2,1.2,0,0,0,0-2.4Z" transform="translate(-119.724 205.104)"/><path class="a" d="M590.526,191.917a1.2,1.2,0,0,0,0,2.4h123.7a1.2,1.2,0,0,0,0-2.4Z" transform="translate(-119.724 199.564)"/><path class="a" d="M590.526,204.8a1.2,1.2,0,0,0,0,2.4h91.41a1.2,1.2,0,0,0,0-2.4Z" transform="translate(-119.724 193.896)"/><path class="c" d="M460.677,201.343a36.636,36.636,0,0,1-5.992-.985l.11-2.088.917-16.6.008-.128h18.443l2.894,15.285.39,2.063c-.764.3-1.536.577-2.325.823-.009,0-.009.008-.017.008-1.1.339-2.207.637-3.328.883a38.387,38.387,0,0,1-4.515.7,34.714,34.714,0,0,1-3.53.17C462.714,201.47,461.687,201.427,460.677,201.343Z" transform="translate(-60.486 204.129)"/><path class="d" d="M437.819,198.383c-.764-.331-1.5-.688-2.232-1.061l-.314-.161c-.212-.11-.433-.23-.645-.348q-.434-.242-.84-.483c-.263-.153-.535-.314-.8-.475-.017-.008-.025-.017-.042-.017-.917-.586-1.817-1.188-2.682-1.842l-.433-.331-.152-2.444.221-.136,14.81-9.42.2-.128.017-.008,2.088.008v7.774c1.18,1.706,1.977,5.279,2.47,9.955.068.67.127,1.358.187,2.071a36.646,36.646,0,0,1-5.992-.985c-.212-.043-.416-.094-.628-.153a35.155,35.155,0,0,1-3.649-1.171c-.365-.136-.721-.281-1.078-.425l-.034-.017C438.142,198.518,437.972,198.45,437.819,198.383Z" transform="translate(-49.485 204.136)"/><path class="d" d="M495.219,196.518c-.255.136-.509.272-.764.4-.059.034-.11.059-.161.085-.339.17-.67.339-1.01.5-.008.008-.026.008-.026.017-.017.008-.042.017-.059.025-.763.365-1.536.7-2.325,1.019-.764.3-1.536.577-2.325.823-.009,0-.009.008-.017.008-1.1.339-2.207.637-3.328.883a7.013,7.013,0,0,1,.272-2.062l.008-.119.73-11.814-.976-5.067,2.8-.416,15.4,8.292s-1.7,1.7-8.666,5.313C494.162,194.724,495.066,195.788,495.219,196.518Z" transform="translate(-73.913 204.455)"/><path class="e" d="M444.707,155.982c-1.1.1-2.224.153-3.344.153-1.086,0-2.165-.043-3.243-.144.068.67.127,1.358.187,2.071,1.01.085,2.037.127,3.056.127a34.715,34.715,0,0,0,3.53-.17,38.388,38.388,0,0,0,4.515-.7,7.015,7.015,0,0,1,.272-2.062l.008-.119A35.3,35.3,0,0,1,444.707,155.982Zm32.072-47.63a37.507,37.507,0,1,0-64.815,35.629c.339.425.687.849,1.044,1.256.034.034.051.059.076.085a35.721,35.721,0,0,0,2.792,2.877c.237.221.483.441.73.654.026.017.043.043.068.059.509.458,1.036.891,1.579,1.307.076.059.144.11.212.17l.433.331c.865.654,1.765,1.256,2.682,1.841.017,0,.025.009.042.017.263.161.535.323.8.475s.552.323.84.484c.212.119.433.238.645.348l.314.161c.73.374,1.468.73,2.232,1.061.153.068.323.136.476.2l.034.017c.357.144.713.288,1.078.424a35.019,35.019,0,0,0,3.649,1.172c.212.059.416.11.628.153a36.576,36.576,0,0,0,5.992.984c1.01.085,2.037.128,3.056.128a34.715,34.715,0,0,0,3.53-.17,38.388,38.388,0,0,0,4.515-.7c1.121-.246,2.232-.543,3.327-.883.008,0,.008-.008.017-.008.789-.246,1.561-.526,2.325-.823.789-.314,1.562-.654,2.325-1.019.017-.008.043-.017.059-.025,0-.008.017-.008.026-.017.339-.161.67-.331,1.01-.5.051-.026.1-.051.161-.085.254-.127.509-.263.764-.4.017-.008.025-.017.042-.026.671-.374,1.333-.764,1.986-1.179.178-.11.356-.221.535-.348.263-.161.517-.339.763-.517.331-.229.662-.467.985-.713a2.7,2.7,0,0,0,.305-.229c.789-.594,1.553-1.222,2.283-1.884a37.475,37.475,0,0,0,10.456-40.314Zm-11.092,38.124a36.36,36.36,0,0,1-2.885,2.444c-.221.17-.45.339-.679.492-.221.17-.442.331-.671.484-.195.136-.39.272-.594.4-.017.017-.042.026-.059.043-.144.1-.3.2-.441.288-.45.28-.917.561-1.375.823-.11.059-.212.128-.323.187-.059.034-.119.068-.187.1-.255.144-.51.272-.764.407-.034.025-.076.034-.11.059a.066.066,0,0,0-.034.017c-.178.094-.356.179-.534.263-.153.077-.3.153-.45.221-.619.3-1.256.577-1.892.84-.67.272-1.349.518-2.037.747-.17.059-.348.127-.526.178-.807.255-1.612.484-2.436.67a35.3,35.3,0,0,1-4.982.841c-1.1.1-2.224.153-3.344.153-1.086,0-2.165-.043-3.243-.144a34.93,34.93,0,0,1-5.695-1l-.212-.051a32.562,32.562,0,0,1-4.49-1.528c-.076-.034-.161-.059-.229-.094-.085-.034-.161-.059-.229-.093-.085-.034-.161-.068-.237-.1-.637-.28-1.256-.586-1.876-.9l-.289-.152c-.552-.289-1.095-.586-1.63-.917-.187-.1-.381-.221-.568-.339-.212-.128-.424-.263-.628-.4l-.152-.1c-.476-.323-.959-.645-1.417-.993-.322-.238-.636-.467-.95-.713-.2-.153-.407-.314-.6-.484-.127-.094-.254-.2-.382-.314-.17-.144-.339-.288-.509-.441-.263-.212-.509-.45-.747-.67a33.732,33.732,0,0,1-2.707-2.8c-.288-.323-.561-.645-.823-.985a2,2,0,0,1-.17-.212,35.45,35.45,0,1,1,52.111,3.777Z" transform="translate(-38.117 247.41)"/><path class="f" d="M3361.079,1466.068s-193.611,30.471-193.611,213.5h193.394Z" transform="translate(-2692.078 -1008.068)"/><g transform="translate(173.519 351.311)"><g transform="translate(0 5.296)"><g transform="translate(6.551 106.927)"><g transform="translate(68.987 183.258)"><path class="g" d="M730.653,222.494l8.97-2.166-4.632-20.855-8.97,2.166Z" transform="translate(-726.021 -199.473)"/><path class="h" d="M738.911,215.727,729.1,218.1a.774.774,0,0,0-.594.789l.338,8.326a1.393,1.393,0,0,0,1.716,1.282c3.516-.918,8.567-2.357,13.013-3.431,5.188-1.253,5.682-1.073,11.763-2.541,3.684-.89,3.713-4.83,2.084-4.793-7.423.166-9.131.405-16.183-1.861A4.347,4.347,0,0,0,738.911,215.727Z" transform="translate(-725.647 -197.037)"/><path class="i" d="M734.994,199.483l2.388,10.75-8.97,2.166-2.388-10.75Z" transform="translate(-726.021 -199.472)"/><path class="c" d="M738.556,215.6a.21.21,0,0,1-.158-.371c.345-.311,3.432-2.966,4.654-2.612a.688.688,0,0,1,.487.461,1.158,1.158,0,0,1-.12,1.108,3.373,3.373,0,0,1-2.015,1.067A15.4,15.4,0,0,1,738.556,215.6Zm.572-.456c2.045-.142,3.474-.578,3.884-1.188a.752.752,0,0,0,.073-.734.268.268,0,0,0-.183-.194,1.053,1.053,0,0,0-.416.021A11.71,11.71,0,0,0,739.128,215.142Z" transform="translate(-724.167 -197.496)"/><path class="c" d="M738.44,215.816a.253.253,0,0,1-.132-.173c-.013-.1-.384-2.532.466-3.715a1.515,1.515,0,0,1,1.063-.632c.593-.086.88.162.936.388.426.966-1.155,3.358-2.113,4.1l-.086.021A.307.307,0,0,1,738.44,215.816Zm.694-3.622a4.972,4.972,0,0,0-.415,2.986c.916-.915,1.948-2.755,1.7-3.32-.024-.051-.1-.226-.476-.135l-.129.031A1.1,1.1,0,0,0,739.134,212.194Z" transform="translate(-724.182 -197.693)"/></g><g transform="translate(0 183.44)"><path class="g" d="M670.053,220.673l9.117,1.427,3.692-21.042-9.117-1.428Z" transform="translate(-665.475 -199.631)"/><path class="h" d="M679.846,218.435l-9.969-1.56a.774.774,0,0,0-.85.5l-2.87,7.824a1.389,1.389,0,0,0,.844,1.776,1.346,1.346,0,0,0,.252.064c3.6.5,8.817,1.1,13.337,1.8,5.273.825,5.66,1.181,11.841,2.149,3.745.587,5.278-3.043,3.759-3.633-6.923-2.684-8.592-3.115-14.242-7.9A4.357,4.357,0,0,0,679.846,218.435Z" transform="translate(-666.075 -197.032)"/><path class="i" d="M682.657,201.068l-2.143,12.219L671.4,211.86l2.143-12.219Z" transform="translate(-665.272 -199.63)"/><path class="c" d="M679.16,218.3a.21.21,0,0,1,0-.4c.438-.155,4.305-1.428,5.3-.635a.682.682,0,0,1,.273.613,1.159,1.159,0,0,1-.533.978,3.378,3.378,0,0,1-2.269.215A15.433,15.433,0,0,1,679.16,218.3Zm.7-.2c1.944.651,3.431.794,4.043.387a.748.748,0,0,0,.348-.65.266.266,0,0,0-.094-.25,1.041,1.041,0,0,0-.392-.139A11.705,11.705,0,0,0,679.862,218.1Z" transform="translate(-664.124 -197.011)"/><path class="c" d="M679.035,218.589a.253.253,0,0,1-.056-.211c.026-.1.613-2.487,1.852-3.254a1.516,1.516,0,0,1,1.223-.177c.581.147.751.487.716.716.025,1.055-2.351,2.662-3.519,2.983l-.087-.014A.317.317,0,0,1,679.035,218.589Zm2.025-3.082a4.972,4.972,0,0,0-1.525,2.6c1.2-.495,2.853-1.8,2.838-2.418,0-.056-.006-.246-.388-.306l-.131-.021A1.106,1.106,0,0,0,681.06,215.507Z" transform="translate(-664.129 -197.33)"/></g><g transform="translate(47.922 41.775)"><g transform="translate(0 0.108)"><path class="c" d="M709.305,105.827c7.189.386,13.824.853,21.02.609.717-8.4-.375-20.29-3.323-28.187-5.945-3.175-12.907-1.088-19.284,1.1Z" transform="translate(-707.717 -76.624)"/><path class="i" d="M709.305,105.827c7.189.386,13.824.853,21.02.609.717-8.4-.375-20.29-3.323-28.187-5.945-3.175-12.907-1.088-19.284,1.1Z" transform="translate(-707.717 -76.624)"/><path class="i" d="M707.717,79.088l2.416,1.045,3.371,23.089,16.95,1.024-.128,1.934-21.02-.609Z" transform="translate(-707.717 -76.253)"/></g><path class="j" d="M727,78.263l1.022,3.144-5.9,2.2-9.689-1.517-4.714-2.73a30.926,30.926,0,0,1,10.152-2.721C723.953,76.021,727,78.263,727,78.263Z" transform="translate(-707.717 -76.531)"/></g><path class="c" d="M722.515,44.922,735.681,155.93l9.765,70a3.316,3.316,0,0,1-2.562,3.841l-10.86,2.763a3.27,3.27,0,0,1-3.514-2.673c-3.471-14.463-12.728-42.7-14.476-70.42,0,0-18.469-70.72-22.2-92.591L690.7,47.079Z" transform="translate(-662.361 -39.522)"/><path class="i" d="M705.51,68.217s3.358,31.471,0,57.058c0,0-7.069-29.357-10.279-40.949Z" transform="translate(-661.677 -36.009)"/><path class="c" d="M712.124,40.23l-11.129,125.2-14.085,66.911a2.918,2.918,0,0,1-3.485,2.481l-11.945-2.483a3.529,3.529,0,0,1-2.486-3.76c1.13-14.433.461-38.011,7.514-63.5,0,0,.791-86.31,3.8-124.621Z" transform="translate(-665.636 -40.23)"/></g><path class="k" d="M766.95-8.353l2.411-3.342,8.721,5.369a32.949,32.949,0,0,1-5.74,3.91A4.046,4.046,0,0,1,768-2.837l-.328-.251A3.83,3.83,0,0,1,766.95-8.353Z" transform="translate(-644.421 58.866)"/><path class="k" d="M776-15.982,780.565-8.1l-2.886,2.419-8.721-5.368Z" transform="translate(-644.008 58.22)"/><path class="h" d="M715.657,1.957c9.746,2.521,24.135,4.48,27.6,4.937,4.591.6,24.229-3.913,32.693-5.383a2.224,2.224,0,0,0,1.331-.555,2.241,2.241,0,0,0,.272-1.823l-1.035-7.371A3.312,3.312,0,0,0,775.8-10.2c-.732-.726-1.924-.609-2.941-.438C761.685-8.757,745.687-7.6,745.687-7.6c-7.914-1.135-16.4-4.435-23.639-7.706C700.453-25.057,710.862.717,715.657,1.957Z" transform="translate(-653.065 57.99)"/><path class="l" d="M715.657,1.957c9.746,2.521,24.135,4.48,27.6,4.937,4.591.6,24.229-3.913,32.693-5.383a2.224,2.224,0,0,0,1.331-.555,2.241,2.241,0,0,0,.272-1.823l-1.035-7.371A3.312,3.312,0,0,0,775.8-10.2c-.732-.726-1.924-.609-2.941-.438C761.685-8.757,745.687-7.6,745.687-7.6c-7.914-1.135-16.4-4.435-23.639-7.706C700.453-25.057,710.862.717,715.657,1.957Z" transform="translate(-653.065 57.99)"/><path class="c" d="M782.92-.195l-9.909-1.968,6.067-20.828,9.909,1.968Z" transform="translate(-643.396 57.162)"/><g transform="translate(138.937 33.78)"><path class="c" d="M789.8-21.774,783.018,1.533a1.157,1.157,0,0,1-1.326.8l-.58-.115a1.148,1.148,0,0,0,1.315-.8l6.786-23.307a1.14,1.14,0,0,0-.871-1.44l.58.115A1.148,1.148,0,0,1,789.8-21.774Z" transform="translate(-781.112 23.331)"/><path class="m" d="M789.8-21.774,783.018,1.533a1.157,1.157,0,0,1-1.326.8l-.58-.115a1.148,1.148,0,0,0,1.315-.8l6.786-23.307a1.14,1.14,0,0,0-.871-1.44l.58.115A1.148,1.148,0,0,1,789.8-21.774Z" transform="translate(-781.112 23.331)"/></g><g transform="translate(128.13 31.794)"><path class="c" d="M789.759-23.071l-9.89-1.964a1.14,1.14,0,0,0-1.315.8L771.767-.93a1.139,1.139,0,0,0,.871,1.44l9.89,1.964a1.148,1.148,0,0,0,1.315-.8l6.786-23.307A1.14,1.14,0,0,0,789.759-23.071ZM783.115.117l-9.91-1.968,6.067-20.828,9.908,1.968Z" transform="translate(-771.721 25.057)"/><path class="c" d="M788.987-21.023,782.92-.195l-9.909-1.968,6.067-20.828Z" transform="translate(-771.526 25.368)"/><path class="n" d="M788.987-21.023,782.92-.195l-9.909-1.968,6.067-20.828Z" transform="translate(-771.526 25.368)"/></g><path class="k" d="M773.308-14.012l2.225-2.368a.42.42,0,0,1,.7.151l.31.9a1.964,1.964,0,0,1-.2,1.7L772.95-8.313l-3.992-2.65Z" transform="translate(-644.008 58.139)"/><g transform="translate(0 28.147)"><path class="h" d="M728.755,16.443c.17,30.3,1.984,41.674-2.524,41.667-8.366-.012-38.932,1.1-40.714.85-13.194-1.877-5.1-31.921-5.283-36.627-.114-2.906-.354-5.8-.738-8.646a26.536,26.536,0,0,0-1.134-5.074c-.963-2.777-2.537-5.173-5.229-6.066-2.41-.808-5.06-.1-7.6-.269s-5.442-1.941-5.13-4.464a5.829,5.829,0,0,1,1.829-3.047c3.7-3.94,7.866-7.852,9.325-13.054.624-2.182.751-4.578,1.985-6.492,5.088-7.823,17.206-.2,23.272,2.028,3.884,1.432,7.4,3.557,11.254,5,4.039,1.517,11.14,1.871,16.313,2.084C729.045-15.48,728.755,16.443,728.755,16.443Z" transform="translate(-660.382 28.226)"/></g><g transform="translate(29.135)"><path class="k" d="M689.964-32.757c1.28,5.113.991,13.43,1.023,19.184.03,5.347,13.83,9.784,13.83,9.784s5.686-4.808,1.277-8.4c-3.688-3.011-4.21-6.515-3.383-10.747Z" transform="translate(-685.056 55.69)"/><path class="o" d="M694.511-29.249l7.548,5.791a21.826,21.826,0,0,0-.436,3.563c-2.748-.252-6.652-3.053-7.089-5.889A9.4,9.4,0,0,1,694.511-29.249Z" transform="translate(-684.393 56.219)"/><path class="k" d="M688.889-39.339c.982,8.647,1.113,13.751,5.723,17.979,6.932,6.354,17.429,1.834,19.054-6.937,1.46-7.881-.392-20.7-9.053-23.7a11.859,11.859,0,0,0-15.137,7.221A11.864,11.864,0,0,0,688.889-39.339Z" transform="translate(-685.232 52.684)"/><g transform="translate(5.911 17.634)"><path class="h" d="M713.81-33.176c.452,3.367,1.022,9.337,2.028,12.7-5.914-.015-11.537.308-17.451.293-.816-.627-8.05-6.951-7.524-7.5,1.994-2.06,4.454-4.389,2.121-6.714-.705-.7-.329-1.983-.433-2.974,2.137,3.218,10.312,5.545,14.112,4.853Z" transform="translate(-690.835 37.361)"/><path class="k" d="M702.807-32.111c-1.253.449.566,2.3,2.558,2.4h3.557a2.4,2.4,0,0,0,2.144-1.191c.365-.681.35-1.405-.214-1.615,0,0-.354-.244-2.656-.244A25.867,25.867,0,0,0,702.807-32.111Z" transform="translate(-689.092 38.055)"/><path class="h" d="M709.206-31.339h0a6.372,6.372,0,0,1-5.781-1.053.223.223,0,0,1,.031-.314.224.224,0,0,1,.257-.018,6.054,6.054,0,0,0,5.405.969.223.223,0,0,1,.273.16h0a.213.213,0,0,1-.162.253Z" transform="translate(-688.944 38.055)"/><g transform="translate(7.93 1.76)"><path class="h" d="M708.531-35.787c-1.891-.238-3.69.529-5.379,1.237s-3.569,1.391-5.426.979a11.039,11.039,0,0,0,5.394,2.143,10.053,10.053,0,0,0,5.849-1.053,8,8,0,0,0,7.043.634c-2.192.526-3.074-2.467-5.34-3.517A9.532,9.532,0,0,0,708.531-35.787Z" transform="translate(-697.726 35.831)"/><path class="l" d="M708.531-35.787c-1.891-.238-3.69.529-5.379,1.237s-3.569,1.391-5.426.979a11.039,11.039,0,0,0,5.394,2.143,10.053,10.053,0,0,0,5.849-1.053,8,8,0,0,0,7.043.634c-2.192.526-3.074-2.467-5.34-3.517A9.532,9.532,0,0,0,708.531-35.787Z" transform="translate(-697.726 35.831)"/></g></g><path class="h" d="M696.259-42.834a6.012,6.012,0,0,1,.8,3.185,16,16,0,0,0-2.393,3c-.977,1.613-1.292,3.633-2.542,5.045.051-.026-.285.174-.234.148a62.322,62.322,0,0,1-2.74-5.7A24.7,24.7,0,0,1,696.259-42.834Z" transform="translate(-685.178 54.17)"/><path class="k" d="M686.133-33.021a8.3,8.3,0,0,0,4.728,4.2c2.747.931,4.279-1.486,3.636-4.185-.563-2.4-2.68-5.789-5.5-5.563S684.985-35.433,686.133-33.021Z" transform="translate(-685.699 54.811)"/><path class="h" d="M701.667-39.376c-.013.7.434,1.251.9,1.227s.808-.612.768-1.314-.444-1.262-.9-1.238S701.627-40.09,701.667-39.376Z" transform="translate(-683.292 54.491)"/><path class="h" d="M708.073-39.743c-.013.712.444,1.262.9,1.238s.808-.612.768-1.325-.434-1.252-.9-1.228S708.043-40.445,708.073-39.743Z" transform="translate(-682.325 54.438)"/><path class="p" d="M706.053-40.29c1.33,1.9,2.853,2.8,4.646,4.271-.946,1.42-3.269,1.252-3.269,1.252Z" transform="translate(-682.63 54.554)"/><path class="h" d="M699.443-41.357a.393.393,0,0,0,.4-.174,3.315,3.315,0,0,1,2.589-1.526.415.415,0,0,0,.422-.406.414.414,0,0,0-.406-.422h0A4.112,4.112,0,0,0,699.158-42a.414.414,0,0,0,.107.575A.28.28,0,0,0,699.443-41.357Z" transform="translate(-683.681 54.012)"/><path class="h" d="M710.615-41.674a.4.4,0,0,0,.245,0,.425.425,0,0,0,.169-.571,4.122,4.122,0,0,0-3.149-2.182.425.425,0,0,0-.443.384.414.414,0,0,0,.384.443h0a3.3,3.3,0,0,1,2.434,1.755A.433.433,0,0,0,710.615-41.674Z" transform="translate(-682.421 53.93)"/></g><path class="q" d="M684.352-7.546s.459,15.561-2.622,22.768c-1.227,2.877-2.414,4.332-3.4,5.035-.457-2.875-1.044-5.715-1.767-8.5a26.709,26.709,0,0,0-1.738-4.9l-.267-3.6Z" transform="translate(-658.244 59.492)"/><g transform="translate(1.788 42.749)"><path class="i" d="M686.516,49.058c-.1.495-.394,3.055-.787,4.774-.7,3.047-3.531,6.768-5.884,7.988s-.967-9.5-.967-9.5l.444-3.7Z" transform="translate(-659.442 25.214)"/><g transform="translate(12.857 74.272)"><path class="k" d="M677.845,49,686.7,53.02h0a12.824,12.824,0,0,1-5.287,8.213l-.761.529s-8.592-8.2-7.439-10.66Z" transform="translate(-673.108 -49.001)"/></g><path class="h" d="M661.936,32.034c0,12.72,4.321,17.438,8.084,28.379a4.61,4.61,0,0,0,5.375,2.982c4.223-.946,8.377-4.052,5.711-9.534,0,0-2.557-7.109-4.269-21.154a16.327,16.327,0,0,1-.023-5.768c1.284-5.421,6.4-16.213,7.581-23.44,1.008-6.175,2.275-13.9-.631-16.468C670.194-24.972,661.937,7.648,661.936,32.034Z" transform="translate(-661.936 15.538)"/></g><path class="q" d="M675.643-17.3l.01.047a2.846,2.846,0,0,0,3.984,2c2.787-1.358,10.526,1.242,13.584.577,0,0,.009-4.154.007-5.3,0-1.237-10.353-5.118-13.409-5.379C674.633-25.807,674.7-21.425,675.643-17.3Z" transform="translate(-658.155 56.8)"/></g><path class="c" d="M712.978-43.42c-3.285-1.842-7.32-1.207-10.566.513a34.522,34.522,0,0,0-7.615,6.121c-2.435,2.368-4.779,4.576-7.187,6.9a1.375,1.375,0,0,1-2.2-.39c-.281-.588-.546-1.178-.88-1.762a1.4,1.4,0,0,1-.146-1.123c.274-.869.567-1.752.829-2.611A20.106,20.106,0,0,1,688.4-54.21c2.681-3.424,7.849-3.5,12.094-2.563A16.311,16.311,0,0,1,710.8-49.366a2.786,2.786,0,0,1,2.574.649,4.559,4.559,0,0,1,1.6,2.213,3.093,3.093,0,0,1-.024,2.627A1.476,1.476,0,0,1,712.978-43.42Z" transform="translate(-656.785 57.287)"/><path class="b" d="M704.453-51.621a6.447,6.447,0,0,1,1.329,2.347,12.562,12.562,0,0,0-4.82,1.04,7.949,7.949,0,0,0-1.333-2.359C701.3-50.966,702.784-51.248,704.453-51.621Z" transform="translate(-654.463 58.141)"/><g transform="translate(8.37 153.998)"><g transform="translate(0 0.108)"><path class="c" d="M688.887,105.827c-7.189.386-13.823.853-21.019.609-.717-8.4.375-20.29,3.323-28.187,5.945-3.175,12.907-1.088,19.284,1.1Z" transform="translate(-667.655 -76.624)"/><path class="i" d="M690.465,79.088l-2.417,1.045-3.37,23.089-16.95,1.024.128,1.934,21.02-.609Z" transform="translate(-667.644 -76.253)"/></g><path class="j" d="M670.862,78.263l-1.022,3.144,5.9,2.2,9.689-1.517,4.714-2.73a30.925,30.925,0,0,0-10.152-2.721C673.91,76.021,670.862,78.263,670.862,78.263Z" transform="translate(-667.326 -76.531)"/></g></g><g transform="translate(360.566 337.485)"><g transform="translate(1.315 6.907)"><g transform="translate(29.135)"><path class="k" d="M689.964-32.757c1.28,5.113.991,13.43,1.023,19.184.03,5.347,13.83,9.784,13.83,9.784s5.686-4.808,1.277-8.4c-3.688-3.011-4.21-6.515-3.383-10.747Z" transform="translate(-685.056 55.69)"/><path class="o" d="M694.511-29.249l7.548,5.791a21.826,21.826,0,0,0-.436,3.563c-2.748-.252-6.652-3.053-7.089-5.889A9.4,9.4,0,0,1,694.511-29.249Z" transform="translate(-684.393 56.219)"/><path class="k" d="M688.889-39.339c.982,8.647,1.113,13.751,5.723,17.979,6.932,6.354,17.429,1.834,19.054-6.937,1.46-7.881-.392-20.7-9.053-23.7a11.859,11.859,0,0,0-15.137,7.221A11.864,11.864,0,0,0,688.889-39.339Z" transform="translate(-685.232 52.684)"/><g transform="translate(5.911 17.634)"><path class="h" d="M713.81-33.176c.452,3.367,1.022,9.337,2.028,12.7-5.914-.015-11.537.308-17.451.293-.816-.627-8.05-6.951-7.524-7.5,1.994-2.06,4.454-4.389,2.121-6.714-.705-.7-.329-1.983-.433-2.974,2.137,3.218,10.312,5.545,14.112,4.853Z" transform="translate(-690.835 37.361)"/><path class="k" d="M702.807-32.111c-1.253.449.566,2.3,2.558,2.4h3.557a2.4,2.4,0,0,0,2.144-1.191c.365-.681.35-1.405-.214-1.615,0,0-.354-.244-2.656-.244A25.867,25.867,0,0,0,702.807-32.111Z" transform="translate(-689.092 38.055)"/><path class="h" d="M709.206-31.339h0a6.372,6.372,0,0,1-5.781-1.053.223.223,0,0,1,.031-.314.224.224,0,0,1,.257-.018,6.054,6.054,0,0,0,5.405.969.223.223,0,0,1,.273.16h0a.213.213,0,0,1-.162.253Z" transform="translate(-688.944 38.055)"/><g transform="translate(7.93 1.76)"><path class="h" d="M708.531-35.787c-1.891-.238-3.69.529-5.379,1.237s-3.569,1.391-5.426.979a11.039,11.039,0,0,0,5.394,2.143,10.053,10.053,0,0,0,5.849-1.053,8,8,0,0,0,7.043.634c-2.192.526-3.074-2.467-5.34-3.517A9.532,9.532,0,0,0,708.531-35.787Z" transform="translate(-697.726 35.831)"/><path class="l" d="M708.531-35.787c-1.891-.238-3.69.529-5.379,1.237s-3.569,1.391-5.426.979a11.039,11.039,0,0,0,5.394,2.143,10.053,10.053,0,0,0,5.849-1.053,8,8,0,0,0,7.043.634c-2.192.526-3.074-2.467-5.34-3.517A9.532,9.532,0,0,0,708.531-35.787Z" transform="translate(-697.726 35.831)"/></g></g><path class="h" d="M696.259-42.834a6.012,6.012,0,0,1,.8,3.185,16,16,0,0,0-2.393,3c-.977,1.613-1.292,3.633-2.542,5.045.051-.026-.285.174-.234.148a62.322,62.322,0,0,1-2.74-5.7A24.7,24.7,0,0,1,696.259-42.834Z" transform="translate(-685.178 54.17)"/><path class="k" d="M686.133-33.021a8.3,8.3,0,0,0,4.728,4.2c2.747.931,4.279-1.486,3.636-4.185-.563-2.4-2.68-5.789-5.5-5.563S684.985-35.433,686.133-33.021Z" transform="translate(-685.699 54.811)"/><path class="h" d="M701.667-39.376c-.013.7.434,1.251.9,1.227s.808-.612.768-1.314-.444-1.262-.9-1.238S701.627-40.09,701.667-39.376Z" transform="translate(-683.292 54.491)"/><path class="h" d="M708.073-39.743c-.013.712.444,1.262.9,1.238s.808-.612.768-1.325-.434-1.252-.9-1.228S708.043-40.445,708.073-39.743Z" transform="translate(-682.325 54.438)"/><path class="p" d="M706.053-40.29c1.33,1.9,2.853,2.8,4.646,4.271-.946,1.42-3.269,1.252-3.269,1.252Z" transform="translate(-682.63 54.554)"/><path class="h" d="M699.443-41.357a.393.393,0,0,0,.4-.174,3.315,3.315,0,0,1,2.589-1.526.415.415,0,0,0,.422-.406.414.414,0,0,0-.406-.422h0A4.112,4.112,0,0,0,699.158-42a.414.414,0,0,0,.107.575A.28.28,0,0,0,699.443-41.357Z" transform="translate(-683.681 54.012)"/><path class="h" d="M710.615-41.674a.4.4,0,0,0,.245,0,.425.425,0,0,0,.169-.571,4.122,4.122,0,0,0-3.149-2.182.425.425,0,0,0-.443.384.414.414,0,0,0,.384.443h0a3.3,3.3,0,0,1,2.434,1.755A.433.433,0,0,0,710.615-41.674Z" transform="translate(-682.421 53.93)"/></g></g><path class="c" d="M712.978-43.42c-3.285-1.842-7.32-1.207-10.566.513a34.522,34.522,0,0,0-7.615,6.121c-2.435,2.368-4.779,4.576-7.187,6.9a1.375,1.375,0,0,1-2.2-.39c-.281-.588-.546-1.178-.88-1.762a1.4,1.4,0,0,1-.146-1.123c.274-.869.567-1.752.829-2.611A20.106,20.106,0,0,1,688.4-54.21c2.681-3.424,7.849-3.5,12.094-2.563A16.311,16.311,0,0,1,710.8-49.366a2.786,2.786,0,0,1,2.574.649,4.559,4.559,0,0,1,1.6,2.213,3.093,3.093,0,0,1-.024,2.627A1.476,1.476,0,0,1,712.978-43.42Z" transform="translate(-656.785 57.287)"/><path class="b" d="M704.453-51.621a6.447,6.447,0,0,1,1.329,2.347,12.562,12.562,0,0,0-4.82,1.04,7.949,7.949,0,0,0-1.333-2.359C701.3-50.966,702.784-51.248,704.453-51.621Z" transform="translate(-654.463 58.141)"/></g></g></svg>