<svg xmlns="http://www.w3.org/2000/svg" width="21.38" height="21.38" viewBox="0 0 21.38 21.38"><defs><style>.a{fill:#efe7e7;}</style></defs><path class="a" d="M10.69,0A10.69,10.69,0,1,0,21.38,10.69,10.7,10.7,0,0,0,10.69,0Zm0,19.581a8.891,8.891,0,1,1,8.891-8.891A8.9,8.9,0,0,1,10.69,19.581Z"/><path class="a" d="M117.652,66.949a3.873,3.873,0,0,0-3.869,3.869.9.9,0,1,0,1.8,0,2.07,2.07,0,1,1,2.07,2.07.9.9,0,0,0-.9.9V75.82a.9.9,0,0,0,1.8,0v-1.24a3.869,3.869,0,0,0-.9-7.632Z" transform="translate(-106.962 -62.935)"/><circle class="a" cx="1.259" cy="1.259" r="1.259" transform="translate(9.431 14.682)"/></svg>