<svg xmlns="http://www.w3.org/2000/svg" width="97.998" height="102.665" viewBox="0 0 97.998 102.665"><defs><style>.a{fill:#2d50a7;}.b{fill:#73a1fb;}.c{fill:#355ec9;}.d{fill:#c4d9fd;}.e{fill:#3d6deb;}.f{fill:#5286fa;}</style></defs><path class="a" d="M249.03,0a4.667,4.667,0,0,0-4.667,4.667V23.333a4.667,4.667,0,0,0,9.333,0V4.667A4.667,4.667,0,0,0,249.03,0Z" transform="translate(-197.697)"/><path class="b" d="M249.032,372.364a4.667,4.667,0,0,0-4.667,4.667V395.7a4.667,4.667,0,0,0,9.333,0V377.031A4.667,4.667,0,0,0,249.032,372.364Z" transform="translate(-197.699 -297.699)"/><path class="c" d="M100.966,82.73l-13.2-13.2a4.666,4.666,0,0,0-6.6,6.6l13.2,13.2a4.666,4.666,0,0,0,6.6-6.6Z" transform="translate(-66.132 -54.495)"/><g transform="translate(66.465 46.666)"><path class="d" d="M421.273,232.727H411.94a4.667,4.667,0,0,0,0,9.333h9.333a4.667,4.667,0,0,0,0-9.333Z" transform="translate(-394.406 -232.727)"/><path class="d" d="M351.068,332.834a4.666,4.666,0,1,0-6.6,6.6l13.2,13.2a4.666,4.666,0,0,0,6.6-6.6Z" transform="translate(-343.102 -311.668)"/></g><path class="e" d="M39.636,237.394a4.667,4.667,0,0,0-4.667-4.667H16.3a4.667,4.667,0,1,0,0,9.333H34.969A4.667,4.667,0,0,0,39.636,237.394Z" transform="translate(-11.636 -186.061)"/><path class="f" d="M100.967,332.833a4.666,4.666,0,0,0-6.6,0l-13.2,13.2a4.667,4.667,0,0,0,6.6,6.6l13.2-13.2A4.666,4.666,0,0,0,100.967,332.833Z" transform="translate(-66.133 -265.002)"/></svg>