<svg xmlns="http://www.w3.org/2000/svg" width="21" height="25" viewBox="0 0 21 25"><defs><style>.a{fill:#f9f8f8;}</style></defs><path class="a" d="M75.306,17.648A1.5,1.5,0,0,1,73.755,16.2V11.1a7.7,7.7,0,0,0-5.455-7.2V2.532a2.716,2.716,0,0,0-5.419,0V3.907a7.7,7.7,0,0,0-5.455,7.2v5.1a1.5,1.5,0,0,1-1.551,1.449.76.76,0,0,0-.784.732v2.83a.76.76,0,0,0,.784.732h6.74v.276a2.983,2.983,0,0,0,5.953,0v-.276h6.74a.759.759,0,0,0,.784-.732V18.38A.759.759,0,0,0,75.306,17.648ZM64.448,2.532a1.145,1.145,0,0,1,2.284,0V3.549a8.736,8.736,0,0,0-2.284,0ZM67,22.219a1.412,1.412,0,0,1-2.817,0v-.276H67Zm7.524-1.741H56.658V19.02A2.963,2.963,0,0,0,58.993,16.2V11.1a6.612,6.612,0,0,1,13.194,0v5.1a2.963,2.963,0,0,0,2.335,2.821Z" transform="translate(-55.09)"/></svg>