<svg xmlns="http://www.w3.org/2000/svg" width="64.645" height="91.939" viewBox="0 0 64.645 91.939"><defs><style>.a{fill:#fff;}</style></defs><g transform="translate(-76)"><g transform="translate(76 10.774)"><path class="a" d="M140.645,85.588a2.694,2.694,0,0,0-.732-1.846L118.364,60.847A2.694,2.694,0,0,0,116.4,60H89.468a2.694,2.694,0,0,0-2.013.9L76.68,73.025a2.694,2.694,0,0,0-.68,1.79v47.5a8.049,8.049,0,0,0,2.063,5.387,8.077,8.077,0,0,0,6.018,13.468h48.483a8.077,8.077,0,0,0,6.018-13.468,8.048,8.048,0,0,0,2.063-5.387ZM108.322,125a8.09,8.09,0,0,1-8.081-8.081c0-1.109.317-3.131,3.057-7.854,1.384-2.386,2.75-4.367,2.807-4.451a2.694,2.694,0,0,1,4.432,0c.057.083,1.423,2.064,2.807,4.451,2.74,4.724,3.057,6.745,3.057,7.854A8.09,8.09,0,0,1,108.322,125Zm19.856-31.778A5.387,5.387,0,0,1,120.563,93L108.193,79.852a5.387,5.387,0,1,1,7.844-7.386L128.407,85.61A5.387,5.387,0,0,1,128.178,93.225Z" transform="translate(-76 -60)"/><path class="a" d="M241,350.583a2.694,2.694,0,0,0,5.387,0c-.023-.826-1.143-3.173-2.693-5.784-1.552,2.614-2.672,4.961-2.694,5.785Z" transform="translate(-211.371 -293.657)"/></g><path class="a" d="M154.855,0H138.694A2.694,2.694,0,0,0,136,2.694V5.387h21.548V2.694A2.694,2.694,0,0,0,154.855,0Z" transform="translate(-49.226 0)"/></g></svg>