<svg xmlns="http://www.w3.org/2000/svg" width="98.031" height="103.26" viewBox="0 0 98.031 103.26"><defs><style>.a{fill:#e8edfc;}.b{fill:#cad9fc;}.c{fill:#c6d8fb;}.d{fill:#a4c3fd;}.e{fill:#fff;}.f{fill:#428dff;}</style></defs><g transform="translate(-16.962 -8.535)"><g transform="translate(16.962 8.535)"><path class="a" d="M113.591,77.9a54.025,54.025,0,0,1,11.551,32.588h0c0,25.133-20.372,40.254-45.5,40.254s-45.5-15.122-45.5-40.254,20.372-50.755,45.5-50.755a37.713,37.713,0,0,1,13.214,2.415l-4.13,2.013" transform="translate(-30.611 -49.232)"/><path class="a" d="M359.6,161.2" transform="translate(-289.321 -129.885)"/><path class="b" d="M279.779,148.309l-1.6,5.31a53.207,53.207,0,0,1,7.9,27.278c0,24.251-18.97,39.176-42.879,40.195.875.037,1.75.059,2.625.059,25.133,0,45.5-15.122,45.5-40.254a54.025,54.025,0,0,0-11.551-32.588Z" transform="translate(-196.799 -119.641)"/><path class="c" d="M47.565,365.473a7,7,0,1,1-12.974-5.264c2.631-6.491,11.749-10.342,11.749-10.342S50.19,358.985,47.565,365.473Z" transform="translate(-30.567 -279.86)"/><path class="d" d="M63.241,349.867a31.885,31.885,0,0,0-4.405,2.422c.957,3.15,2.169,8.772.378,13.184a6.97,6.97,0,0,1-3.875,3.851,7,7,0,0,0,9.118-3.851C67.091,358.985,63.241,349.867,63.241,349.867Z" transform="translate(-47.468 -279.86)"/><path class="c" d="M408.531,365.473a7,7,0,1,0,12.974-5.264c-2.634-6.491-11.751-10.342-11.751-10.342S405.9,358.985,408.531,365.473Z" transform="translate(-327.49 -279.86)"/><path class="d" d="M426.533,360.209c-2.636-6.491-11.752-10.342-11.752-10.342s-.394.94-.845,2.422a18.859,18.859,0,0,1,7.351,7.919,7,7,0,0,1-3.85,9.117,6.99,6.99,0,0,0,9.1-9.117Z" transform="translate(-332.516 -279.86)"/><path class="e" d="M39.879,129.581a12.454,12.454,0,0,1,1.75-2.975,1.774,1.774,0,0,0,.278-1.729,40.434,40.434,0,0,1-2.529-14.388c0-24.2,18.9-48.847,42.736-50.64-.824-.056-1.647-.116-2.482-.116-25.133,0-45.5,25.623-45.5,50.755a40.2,40.2,0,0,0,2.907,15.344,13.358,13.358,0,0,0-2.419,3.779,7.244,7.244,0,0,0,3.577,8.938l.291.152a6.94,6.94,0,0,0,5.237,0A7,7,0,0,1,39.879,129.581Z" transform="translate(-30.606 -49.232)"/><path class="e" d="M27.677,234.829l3.362.973A53.838,53.838,0,0,0,29.1,249.13H25.6A57.231,57.231,0,0,1,27.677,234.829Z" transform="translate(-23.828 -188.416)"/><path class="f" d="M30.257,265.473a1.75,1.75,0,0,1-.019-3.5h.019a1.75,1.75,0,1,1,0,3.5Z" transform="translate(-26.131 -209.993)"/><path class="f" d="M108.752,70.546,96.415,60.557c0-.541-1.262-1.471-1.415-1.56l-9.067-5.522A39.719,39.719,0,0,0,72.8,51.2,43.754,43.754,0,0,0,44.111,62.713a56.294,56.294,0,0,0-16.49,26.15,1.787,1.787,0,0,0,1.267,2.186,1.706,1.706,0,0,0,2.1-1.213,52.817,52.817,0,0,1,15.447-24.5A40.227,40.227,0,0,1,72.8,54.7a60.77,60.77,0,0,1,8.327,1.111c3.9,2.389,26.352,18.974,26.352,18.974a51.333,51.333,0,0,1,9.075,28.378,39.308,39.308,0,0,1-2.023,12.6,33.094,33.094,0,0,0-7.811-4.916,1.75,1.75,0,0,0-2.294.929c-.175.4-4.1,9.869-1.225,16.947A8.666,8.666,0,0,0,104.56,131c-7.993,7.241-19.187,11.21-31.762,11.21S49,138.224,41.013,130.961a8.667,8.667,0,0,0,1.376-2.24c2.872-7.078-1.062-16.546-1.225-16.947a1.75,1.75,0,0,0-2.294-.93,33.117,33.117,0,0,0-7.8,4.9,39.251,39.251,0,0,1-2.03-12.582,1.75,1.75,0,1,0-3.5,0,42.239,42.239,0,0,0,2.786,15.382,14.57,14.57,0,0,0-2.158,3.595,8.751,8.751,0,0,0,11.516,11.352c.2-.088.381-.214.576-.313,8.655,8.084,20.852,12.531,34.535,12.531s25.868-4.439,34.526-12.507a8.732,8.732,0,0,0,12.085-11.063,14.488,14.488,0,0,0-2.144-3.576,42.267,42.267,0,0,0,2.788-15.4,55.148,55.148,0,0,0-11.3-32.617ZM32.307,130.3a5.251,5.251,0,0,1-2.893-6.84c1.682-4.144,6.553-7.19,9.145-8.576.9,2.8,2.275,8.371.586,12.517a5.251,5.251,0,0,1-6.838,2.891Zm80.967,0a5.251,5.251,0,0,1-6.84-2.891c-1.682-4.146-.312-9.722.588-12.517,2.592,1.379,7.461,4.425,9.143,8.576a5.25,5.25,0,0,1-2.891,6.833Z" transform="translate(-23.771 -42.449)"/><path class="f" d="M322.138,9.048a1.75,1.75,0,0,0-2.475,0l-.513.513-.513-.513a1.75,1.75,0,0,0-2.475,2.475l.513.513-.513.513a1.75,1.75,0,1,0,2.475,2.475l.513-.513.513.513a1.75,1.75,0,0,0,2.475-2.475l-.513-.513.513-.513A1.75,1.75,0,0,0,322.138,9.048Z" transform="translate(-254.372 -8.535)"/><path class="f" d="M467.2,111.448a1.75,1.75,0,0,0-2.475,0l-.513.513-.513-.513a1.75,1.75,0,0,0-2.475,2.475l.513.513-.513.513a1.75,1.75,0,1,0,2.475,2.475l.513-.513.513.513a1.75,1.75,0,0,0,2.475-2.475l-.513-.513.513-.513a1.75,1.75,0,0,0,0-2.475Z" transform="translate(-369.685 -89.933)"/><path class="f" d="M66.138,68.7a1.75,1.75,0,0,0-2.475,0l-.513.513-.513-.513a1.75,1.75,0,1,0-2.475,2.475l.513.513-.513.513a1.75,1.75,0,1,0,2.475,2.475l.513-.513.513.513A1.75,1.75,0,0,0,66.138,72.2l-.513-.513.513-.513A1.75,1.75,0,0,0,66.138,68.7Z" transform="translate(-50.878 -55.932)"/><path class="f" d="M19.971,134.571l.513-.513.513.513a1.75,1.75,0,1,0,2.475-2.475l-.513-.513.513-.513A1.75,1.75,0,0,0,21,128.6l-.513.513-.513-.513a1.75,1.75,0,0,0-2.475,2.475l.513.513-.513.513a1.75,1.75,0,1,0,2.475,2.475Z" transform="translate(-16.962 -103.581)"/><path class="f" d="M153.641,89.253a37.227,37.227,0,0,0-16.525,8.674,1.752,1.752,0,0,0,2.321,2.625,33.752,33.752,0,0,1,14.978-7.876,1.751,1.751,0,0,0-.774-3.415Z" transform="translate(-112.002 -72.67)"/><path class="f" d="M197.308,324.267a8.7,8.7,0,0,0-7.827,4.837l-1.567,3.131a1.751,1.751,0,0,0,3.133,1.565l1.565-3.131a5.225,5.225,0,0,1,4.7-2.9h8.849a5.225,5.225,0,0,1,4.7,2.9l1.565,3.131a1.751,1.751,0,1,0,3.133-1.565l-1.567-3.131a8.7,8.7,0,0,0-7.827-4.837Z" transform="translate(-152.705 -259.51)"/><path class="f" d="M240.683,366.933a1.75,1.75,0,1,0,0,3.5h3.5a1.75,1.75,0,1,0,0-3.5Z" transform="translate(-193.407 -293.426)"/><path class="f" d="M140.231,260.414a1.75,1.75,0,0,0-.641-2.391,17.892,17.892,0,0,0-19.444,1.811,1.751,1.751,0,1,0,2.135,2.776,14.418,14.418,0,0,1,15.564-1.552,1.75,1.75,0,0,0,2.385-.644Z" transform="translate(-98.439 -205.218)"/><path class="f" d="M110.963,200.937a1.75,1.75,0,1,0,3.283,1.208c.012-.033,1.286-3.311,6.722-2.072a1.751,1.751,0,1,0,.774-3.414C115.02,195.134,111.751,198.792,110.963,200.937Z" transform="translate(-91.581 -157.787)"/><path class="f" d="M291,258.02a1.752,1.752,0,1,0,1.75,3.035,14.42,14.42,0,0,1,15.566,1.552,1.751,1.751,0,0,0,2.135-2.776A17.9,17.9,0,0,0,291,258.02Z" transform="translate(-234.1 -205.214)"/><path class="f" d="M343.467,200.111c5.208-1.19,6.582,1.735,6.729,2.1a1.75,1.75,0,0,0,3.276-1.225c-.789-2.148-4.052-5.805-10.779-4.279a1.751,1.751,0,1,0,.774,3.414Z" transform="translate(-274.802 -157.825)"/></g></g></svg>