<svg xmlns="http://www.w3.org/2000/svg" width="374.099" height="429" viewBox="0 0 374.099 429"><defs><style>.a{fill:#ceafa3;}.b{fill:#dfc4b7;}.c{fill:#34324c;}.d{fill:#fff;}.e{fill:#23203a;}.f{fill:#44435e;}.g{fill:#4f4f68;}.h{fill:#ea6f53;}.i{fill:#ff8f80;}.j{fill:#efd9d0;}.k{fill:#bc9c91;}.l{fill:#656c9a;}.m{fill:#7d86b2;}.n{fill:#a6acc6;}.o{fill:#bf9c91;}.p{fill:#ad887f;}.q{fill:#ffc5b3;}.r{fill:#e05a44;}.s{fill:#ce4638;}.t{fill:#bc978b;}.u{fill:#ff816c;}.v{fill:#545470;}.w{fill:#8c7988;}.x{fill:#ce4132;}.y{fill:#bf9b90;}.z{fill:#d6543e;}.aa{fill:#7f0057;}</style></defs><g transform="translate(-38.068 -33.291)"><g transform="translate(159.944 90.575)"><path class="a" d="M139.631,95.889l21.117,12.138v20.435l-21.117-12.114Z" transform="translate(-139.631 -78.055)"/><path class="b" d="M185.309,92.709l-28.081,15.953V129.1l28.081-15.929Z" transform="translate(-136.112 -78.691)"/><path class="c" d="M159.576,111.977l21.993-12.495v10.229l-21.993,12.476Z" transform="translate(-135.642 -77.336)"/><path class="d" d="M160.74,116.921l19.294-10.961v1.655L160.74,118.559Z" transform="translate(-135.409 -76.04)"/><path class="e" d="M139.631,95.963l14.981,8.474,6.136,3.575v3.163L139.631,99.15Z" transform="translate(-139.631 -78.04)"/><path class="c" d="M185.309,92.786,157.228,108.74v3.071l28.081-15.929Z" transform="translate(-136.112 -78.675)"/><path class="f" d="M187.806,94.243l-15.43-8.737-27.631,15.96,14.981,8.73Z" transform="translate(-138.608 -80.131)"/><path class="c" d="M179.067,87.672l-28.081,15.953v1.862l28.081-15.929Z" transform="translate(-137.36 -79.698)"/><path class="c" d="M173.421,93.8l-11.942,6.922v1.862l11.942-6.9Z" transform="translate(-135.261 -78.472)"/><path class="g" d="M181.338,89.01l-14.076-7.983-27.631,15.96,13.626,7.977,7.786-4.423,4.806,2.777,12-6.953-4.7-2.7Z" transform="translate(-139.631 -81.027)"/><g transform="translate(39.799 10.963)"><path class="a" d="M172.8,93.747c0,.535.815.97,1.82.97s1.82-.434,1.82-.97-.815-.968-1.82-.968S172.8,93.213,172.8,93.747Z" transform="translate(-172.796 -89.64)"/><rect class="a" width="3.641" height="0.452" transform="translate(0 3.657)"/><path class="b" d="M172.8,93.371c0,.535.815.968,1.82.968s1.82-.433,1.82-.968-.815-.968-1.82-.968S172.8,92.836,172.8,93.371Z" transform="translate(-172.796 -89.715)"/><path class="h" d="M173.089,93.264c0,.433.66.784,1.475.784s1.475-.35,1.475-.784-.661-.785-1.475-.785S173.089,92.831,173.089,93.264Z" transform="translate(-172.738 -89.7)"/><path class="h" d="M176.038,93.626l-.341-2.961h-2.266l-.342,2.961Z" transform="translate(-172.738 -90.063)"/><path class="i" d="M173.374,90.765c0,.332.508.6,1.133.6s1.133-.27,1.133-.6-.508-.6-1.133-.6S173.374,90.433,173.374,90.765Z" transform="translate(-172.681 -90.163)"/></g><g transform="translate(19.043 22.986)"><path class="a" d="M155.5,103.767c0,.535.815.968,1.82.968s1.82-.433,1.82-.968-.815-.968-1.82-.968S155.5,103.232,155.5,103.767Z" transform="translate(-155.5 -99.659)"/><rect class="a" width="3.642" height="0.452" transform="translate(0 3.657)"/><path class="b" d="M155.5,103.391c0,.534.815.968,1.82.968s1.82-.434,1.82-.968-.815-.968-1.82-.968S155.5,102.856,155.5,103.391Z" transform="translate(-155.5 -99.734)"/><path class="c" d="M155.793,103.283c0,.433.66.785,1.474.785s1.475-.352,1.475-.785-.66-.784-1.475-.784S155.793,102.849,155.793,103.283Z" transform="translate(-155.441 -99.719)"/><path class="c" d="M158.741,103.646l-.342-2.961h-2.266l-.341,2.961Z" transform="translate(-155.441 -100.082)"/><path class="g" d="M156.077,100.784c0,.334.508.6,1.133.6s1.133-.27,1.133-.6-.506-.6-1.133-.6S156.077,100.452,156.077,100.784Z" transform="translate(-155.384 -100.182)"/></g><path class="e" d="M153.257,102.294v2.373l-13.626-8.055V94.327Z" transform="translate(-139.631 -78.367)"/><path class="e" d="M157.474,97.288v1.86l4.806,2.74v-1.823Z" transform="translate(-136.062 -77.775)"/><path class="d" d="M162.394,99.96l9.84-5.718-3.86-2.228-9.84,5.718Z" transform="translate(-135.85 -78.83)"/><path class="i" d="M142.416,95.582l5.83-3.388-1.143-.634-5.83,3.388Z" transform="translate(-139.303 -78.92)"/><path class="i" d="M144.319,96.682l5.83-3.388-1.143-.634-5.83,3.388Z" transform="translate(-138.922 -78.7)"/><path class="c" d="M145.683,100.53l27.6-16.066-1.152-.67-27.6,16.066Z" transform="translate(-138.651 -80.474)"/><g transform="translate(32.518 6.147)"><path class="a" d="M166.729,88.078c0,.62.944,1.123,2.11,1.123s2.111-.5,2.111-1.123-.944-1.122-2.111-1.122S166.729,87.459,166.729,88.078Z" transform="translate(-166.729 -85.989)"/><rect class="a" width="4.215" height="0.904" transform="translate(0.005 1.186)"/><path class="j" d="M166.729,87.272c0,.62.944,1.123,2.11,1.123s2.111-.5,2.111-1.123-.944-1.122-2.111-1.122S166.729,86.653,166.729,87.272Z" transform="translate(-166.729 -86.15)"/><g transform="translate(0.37 0.197)"><path class="a" d="M168.777,86.511c-.9,0-1.627.364-1.721.828a.563.563,0,0,1-.019-.1c0-.511.78-.925,1.74-.925s1.74.414,1.74.925a.558.558,0,0,1-.018.1C170.405,86.874,169.675,86.511,168.777,86.511Z" transform="translate(-167.037 -86.314)"/><path class="k" d="M168.774,88.133c-.9,0-1.627-.364-1.721-.827.094-.464.824-.828,1.721-.828s1.628.364,1.722.828C170.4,87.769,169.671,88.133,168.774,88.133Z" transform="translate(-167.034 -86.281)"/></g></g><g transform="translate(27.666 8.956)"><path class="a" d="M162.686,90.419c0,.619.946,1.122,2.111,1.122s2.11-.5,2.11-1.122-.944-1.123-2.11-1.123S162.686,89.8,162.686,90.419Z" transform="translate(-162.686 -88.329)"/><rect class="a" width="4.215" height="0.904" transform="translate(0.006 1.186)"/><path class="j" d="M162.686,89.613c0,.619.946,1.122,2.111,1.122s2.11-.5,2.11-1.122-.944-1.123-2.11-1.123S162.686,88.993,162.686,89.613Z" transform="translate(-162.686 -88.49)"/><g transform="translate(0.371 0.197)"><path class="a" d="M164.735,88.852c-.9,0-1.628.362-1.722.827a.568.568,0,0,1-.018-.1c0-.511.779-.926,1.74-.926s1.74.415,1.74.926a.475.475,0,0,1-.019.1C166.362,89.214,165.633,88.852,164.735,88.852Z" transform="translate(-162.995 -88.654)"/><path class="k" d="M164.732,90.473c-.9,0-1.628-.362-1.722-.827.094-.464.824-.827,1.722-.827s1.627.362,1.721.827C166.359,90.11,165.63,90.473,164.732,90.473Z" transform="translate(-162.992 -88.621)"/></g></g><g transform="translate(22.632 11.903)"><path class="a" d="M158.491,92.874c0,.62.944,1.123,2.11,1.123s2.111-.5,2.111-1.123-.944-1.122-2.111-1.122S158.491,92.255,158.491,92.874Z" transform="translate(-158.491 -90.785)"/><rect class="a" width="4.215" height="0.904" transform="translate(0.006 1.186)"/><ellipse class="j" cx="2.11" cy="1.122" rx="2.11" ry="1.122"/><g transform="translate(0.37 0.197)"><path class="a" d="M160.539,91.307c-.9,0-1.627.364-1.721.827a.46.46,0,0,1-.019-.1c0-.511.78-.925,1.74-.925s1.74.414,1.74.925a.548.548,0,0,1-.018.1C162.167,91.67,161.437,91.307,160.539,91.307Z" transform="translate(-158.799 -91.11)"/><path class="k" d="M160.536,92.929c-.9,0-1.627-.364-1.721-.828.094-.463.823-.827,1.721-.827s1.628.364,1.722.827C162.164,92.565,161.433,92.929,160.536,92.929Z" transform="translate(-158.796 -91.077)"/></g></g><g transform="translate(17.78 14.711)"><path class="a" d="M154.448,95.215c0,.619.946,1.122,2.111,1.122s2.11-.5,2.11-1.122-.944-1.123-2.11-1.123S154.448,94.595,154.448,95.215Z" transform="translate(-154.448 -93.125)"/><rect class="a" width="4.215" height="0.904" transform="translate(0.006 1.186)"/><path class="j" d="M154.448,94.409c0,.619.946,1.122,2.111,1.122s2.11-.5,2.11-1.122-.944-1.123-2.11-1.123S154.448,93.789,154.448,94.409Z" transform="translate(-154.448 -93.286)"/><g transform="translate(0.371 0.197)"><path class="a" d="M156.5,93.647c-.9,0-1.628.364-1.722.828a.565.565,0,0,1-.018-.1c0-.511.779-.926,1.74-.926s1.74.415,1.74.926a.475.475,0,0,1-.019.1C158.124,94.01,157.395,93.647,156.5,93.647Z" transform="translate(-154.757 -93.45)"/><path class="k" d="M156.494,95.269c-.9,0-1.628-.362-1.722-.827.094-.464.824-.828,1.722-.828s1.627.364,1.721.828C158.121,94.906,157.392,95.269,156.494,95.269Z" transform="translate(-154.754 -93.417)"/></g></g><g transform="translate(12.407 17.719)"><path class="a" d="M149.97,97.721c0,.62.944,1.123,2.11,1.123s2.111-.5,2.111-1.123-.946-1.122-2.111-1.122S149.97,97.1,149.97,97.721Z" transform="translate(-149.97 -95.632)"/><rect class="a" width="4.215" height="0.904" transform="translate(0.005 1.186)"/><path class="j" d="M149.97,96.916c0,.619.944,1.122,2.11,1.122s2.111-.5,2.111-1.122-.946-1.123-2.111-1.123S149.97,96.3,149.97,96.916Z" transform="translate(-149.97 -95.793)"/><g transform="translate(0.37 0.197)"><path class="a" d="M152.018,96.154c-.9,0-1.627.364-1.721.828a.474.474,0,0,1-.019-.1c0-.511.779-.926,1.74-.926s1.74.415,1.74.926a.565.565,0,0,1-.018.1C153.646,96.517,152.916,96.154,152.018,96.154Z" transform="translate(-150.278 -95.957)"/><path class="k" d="M152.015,97.776c-.9,0-1.627-.364-1.721-.827.094-.464.823-.828,1.721-.828s1.628.364,1.722.828C153.643,97.412,152.912,97.776,152.015,97.776Z" transform="translate(-150.275 -95.924)"/></g></g></g><g transform="translate(76.882 33.291)"><g transform="translate(0 31.295)"><path class="c" d="M138.214,79.124,145,75.209a2,2,0,0,0,1.166-1.6c0-.784-.656-1.61-1.8-2.269l-10.824-6.25a9.577,9.577,0,0,0-4.638-1.144,7.1,7.1,0,0,0-3.46.779l-3.283,1.9c-.461-.266-.918-.539-1.368-.823l3.953-2.282c2.443-1.41,6.7-1.248,9.494.365l10.824,6.25a4.292,4.292,0,0,1,2.5,3.478,3.289,3.289,0,0,1-1.865,2.81l-6.391,3.689C138.938,79.784,138.573,79.458,138.214,79.124Z" transform="translate(-60.336 -58.733)"/><g transform="translate(24.033 108.366)"><path class="e" d="M92.554,153.614a7.517,7.517,0,0,0,3.138,6c1.733,1,3.138-.061,3.138-2.372a7.517,7.517,0,0,0-3.138-6C93.959,150.241,92.554,151.3,92.554,153.614Z" transform="translate(-90.017 -149.436)"/><path class="e" d="M91.564,152.4l2.422-1.421,3.949,8.779-2.522,1.454Z" transform="translate(-90.215 -149.414)"/><path class="c" d="M90.44,154.835a7.517,7.517,0,0,0,3.138,6c1.734,1,3.139-.061,3.139-2.372a7.515,7.515,0,0,0-3.139-6C91.845,151.462,90.44,152.524,90.44,154.835Z" transform="translate(-90.44 -149.192)"/><path class="d" d="M91.564,155.358a3.787,3.787,0,0,0,1.58,3.019c.872.5,1.58-.031,1.58-1.2a3.787,3.787,0,0,0-1.58-3.019C92.272,153.659,91.564,154.194,91.564,155.358Z" transform="translate(-90.215 -148.815)"/><path class="a" d="M96.656,151.61v5.167a20.559,20.559,0,0,1-2.642,1.1c-1.42.467-1.993-.833-1.543-2.568a52.675,52.675,0,0,1,1.73-5.122Z" transform="translate(-90.064 -149.573)"/><path class="b" d="M95.933,151.614l2.557-1.452v5.164l-2.557,1.455Z" transform="translate(-89.341 -149.577)"/><path class="j" d="M98.331,149.7l-1.989,1.148-1.989-1.17-.465.611,2.455,1.425L98.9,150.26Z" transform="translate(-89.751 -149.675)"/></g><g transform="translate(77.127 77.819)"><path class="e" d="M136.8,128.158a7.517,7.517,0,0,0,3.138,6c1.734,1,3.139-.061,3.139-2.372a7.517,7.517,0,0,0-3.139-6C138.2,124.785,136.8,125.847,136.8,128.158Z" transform="translate(-134.262 -123.98)"/><path class="e" d="M135.809,126.944l2.422-1.421,3.95,8.779-2.522,1.454Z" transform="translate(-134.46 -123.957)"/><path class="c" d="M134.685,129.379a7.515,7.515,0,0,0,3.139,6c1.733,1,3.138-.061,3.138-2.372a7.519,7.519,0,0,0-3.138-6C136.09,126,134.685,127.068,134.685,129.379Z" transform="translate(-134.685 -123.736)"/><path class="d" d="M135.809,129.9a3.787,3.787,0,0,0,1.58,3.02c.874.5,1.58-.031,1.58-1.2a3.782,3.782,0,0,0-1.58-3.019C136.517,128.2,135.809,128.738,135.809,129.9Z" transform="translate(-134.46 -123.359)"/><path class="a" d="M140.9,126.153v5.168a20.475,20.475,0,0,1-2.642,1.1c-1.42.466-1.993-.833-1.543-2.568a52.982,52.982,0,0,1,1.73-5.123Z" transform="translate(-134.309 -124.117)"/><path class="b" d="M140.178,126.157l2.557-1.451v5.164l-2.557,1.455Z" transform="translate(-133.586 -124.121)"/><path class="j" d="M142.576,124.24l-1.989,1.148-1.989-1.17-.465.611,2.455,1.426,2.557-1.451Z" transform="translate(-133.996 -124.218)"/></g><g transform="translate(0 94.286)"><path class="e" d="M72.527,141.88a7.519,7.519,0,0,0,3.138,6c1.734,1,3.139-.062,3.139-2.374a7.516,7.516,0,0,0-3.139-6C73.932,138.507,72.527,139.569,72.527,141.88Z" transform="translate(-69.99 -137.703)"/><path class="e" d="M71.537,140.666l2.422-1.421,3.949,8.779-2.522,1.454Z" transform="translate(-70.188 -137.68)"/><path class="c" d="M70.413,143.1a7.517,7.517,0,0,0,3.139,6c1.733,1,3.138-.062,3.138-2.374a7.517,7.517,0,0,0-3.138-6C71.818,139.728,70.413,140.79,70.413,143.1Z" transform="translate(-70.413 -137.459)"/><path class="d" d="M71.537,143.624a3.783,3.783,0,0,0,1.582,3.019c.872.5,1.58-.03,1.58-1.194a3.787,3.787,0,0,0-1.58-3.02C72.245,141.925,71.537,142.46,71.537,143.624Z" transform="translate(-70.188 -137.081)"/><path class="a" d="M76.629,139.876v5.167a20.473,20.473,0,0,1-2.642,1.1c-1.42.467-1.992-.832-1.543-2.568a53.038,53.038,0,0,1,1.73-5.122Z" transform="translate(-70.037 -137.839)"/><path class="b" d="M75.906,139.88l2.557-1.452v5.164l-2.557,1.454Z" transform="translate(-69.314 -137.843)"/><path class="j" d="M78.3,137.963l-1.99,1.148-1.989-1.17-.465.611,2.455,1.426,2.557-1.452Z" transform="translate(-69.724 -137.941)"/></g><g transform="translate(4.726)"><path class="l" d="M74.351,85.262l26.551,15.31v63.445L74.351,148.749Z" transform="translate(-74.351 -54.191)"/><path class="m" d="M150.555,72.035,96.477,103.217v63.445l54.078-31.1Z" transform="translate(-69.926 -56.837)"/><path class="d" d="M97.534,103.812l51.6-29.614V80.35l-51.6,29.538Z" transform="translate(-69.714 -56.404)"/><path class="l" d="M96.477,111.1l54.078-31.181v1.638l-54.078,31.1Z" transform="translate(-69.926 -55.259)"/><path class="c" d="M110.659,94.737l23.2-13.375v2.084l-23.2,13.339Z" transform="translate(-67.089 -54.971)"/><path class="d" d="M97.534,113.119l51.6-29.614v6.152l-51.6,29.538Z" transform="translate(-69.714 -54.543)"/><path class="l" d="M96.477,120.41l54.078-31.181v1.638l-54.078,31.1Z" transform="translate(-69.926 -53.398)"/><path class="c" d="M110.659,104.044l23.2-13.375v2.084l-23.2,13.339Z" transform="translate(-67.089 -53.11)"/><path class="d" d="M97.534,122.324l51.6-29.614v6.152L97.534,128.4Z" transform="translate(-69.714 -52.702)"/><path class="l" d="M96.477,129.615l54.078-31.181v1.638l-54.078,31.1Z" transform="translate(-69.926 -51.557)"/><path class="c" d="M110.659,113.249l23.2-13.375v2.084l-23.2,13.339Z" transform="translate(-67.089 -51.269)"/><path class="d" d="M97.534,131.734l51.6-29.614v10.386l-51.6,29.538Z" transform="translate(-69.714 -50.82)"/><path class="c" d="M110.659,122.659l23.2-13.375v2.085l-23.2,13.339Z" transform="translate(-67.089 -49.387)"/><path class="l" d="M96.477,143.258l54.078-31.181v1.638l-54.078,31.1Z" transform="translate(-69.926 -48.828)"/><path class="d" d="M97.534,145.249l51.6-29.614v10.386l-51.6,29.538Z" transform="translate(-69.714 -48.116)"/><path class="c" d="M110.659,136.174l23.2-13.376v2.084l-23.2,13.339Z" transform="translate(-67.089 -46.684)"/><path class="n" d="M154.98,74.568,100.9,105.75,74.351,90.441,128.469,59.37Z" transform="translate(-74.351 -59.37)"/></g><path class="b" d="M96.477,156.182l55-31.685v1.65l-55,31.685Z" transform="translate(-65.2 -46.344)"/><path class="j" d="M96.477,155.234l54.078-31.18.92.531-55,31.711Z" transform="translate(-65.2 -46.432)"/><path class="a" d="M101.056,153.538,73.584,137.716v1.65l27.472,15.822Z" transform="translate(-69.779 -43.7)"/><path class="b" d="M75.482,89.229,98.69,102.6v2.7L75.482,91.931Z" transform="translate(-69.399 -53.398)"/><path class="j" d="M101.056,152.59,74.5,137.273l-.92.532,27.472,15.848Z" transform="translate(-69.779 -43.789)"/><g transform="translate(3.188 37.477)"><path class="c" d="M74.929,92.133l2.564-1.5.58,1.266-2.448,1.439a1.989,1.989,0,0,0-1.163,1.594c0,.781.654,1.606,1.792,2.263l10.79,6.228c2.358,1.362,6.055,1.528,8.071.364l2.354-1.374.622,1.244-2.28,1.336a8.471,8.471,0,0,1-4.154.956,10.907,10.907,0,0,1-5.309-1.32L75.558,98.4a4.28,4.28,0,0,1-2.488-3.468A3.277,3.277,0,0,1,74.929,92.133Z" transform="translate(-73.07 -90.594)"/><path class="c" d="M93.294,100.807a1.091,1.091,0,0,0,.456.871c.251.145.456-.008.456-.344a1.094,1.094,0,0,0-.456-.871C93.5,100.318,93.294,100.473,93.294,100.807Z" transform="translate(-69.025 -88.639)"/><path class="c" d="M76.636,91a1.093,1.093,0,0,0,.455.87c.252.145.456-.008.456-.344a1.09,1.09,0,0,0-.456-.87C76.84,90.51,76.636,90.664,76.636,91Z" transform="translate(-72.357 -90.6)"/></g></g><g transform="translate(27.234 51.634)"><g transform="translate(0.007 0.339)"><g transform="translate(0 2.093)"><path class="o" d="M93.271,90.437a2.6,2.6,0,0,1,.286-.47c.956-1.254,2.621-1.366,4.048-1.3a4.067,4.067,0,0,0,2.664-.476c1.265-.736,15.3-8.868,16.894-9.847l2.976,1.718c-2.554,1.446-16.745,9.64-16.9,9.74-.487.313-.358.816-.253,1.2a2.094,2.094,0,0,1-1.034,2.365,4.657,4.657,0,0,1-3.589.78.7.7,0,0,1,.106-.208c.259-.323.87-1.1,1.183-1.513.241-.318-.574-.876-1.688-1.214-1.313-.4-1.948-.38-2.234-.144a13.132,13.132,0,0,0-1.5,1.578,1.854,1.854,0,0,1-.163.155v-.832Z" transform="translate(-93.083 -78.346)"/><path class="p" d="M93.3,88.422l.79,1.538v.832A1.88,1.88,0,0,1,93.3,88.422Z" transform="translate(-93.114 -76.331)"/><rect class="p" width="1.053" height="0.807" transform="translate(0.001 12.073)"/></g><path class="o" d="M117.748,77.575a2.4,2.4,0,0,0-1.8-.973,4.447,4.447,0,0,0-2.158.608l3.526.618Z" transform="translate(-88.979 -76.602)"/><g transform="translate(23.809 0.292)"><path class="o" d="M113.662,77.418a3.487,3.487,0,0,1,1.555-.4v.631l-.006-.01a2.428,2.428,0,0,0-.349.074v-.562l-.631.062v.832a.741.741,0,0,0-.18.264c.241.043.419.134.43.232s-.173.182-.433.2a1.05,1.05,0,0,0,.336.455.777.777,0,0,1,.61-.007c.136.082.118.222-.028.343a3.1,3.1,0,0,0,.731.186.317.317,0,0,1,.348-.271.487.487,0,0,1,.418.278,2.371,2.371,0,0,0,.478-.1c-.16-.127-.206-.262-.1-.33a.791.791,0,0,1,.606.049.753.753,0,0,0,.214-.308c-.269-.04-.473-.136-.484-.241s.188-.19.469-.2a1.089,1.089,0,0,0-.323-.422v-.788a3.775,3.775,0,0,1,.426.206c1.21.7,1.34,1.754.293,2.359a4.539,4.539,0,0,1-4.087-.169C112.746,79.08,112.614,78.024,113.662,77.418Z" transform="translate(-112.955 -76.81)"/><path class="o" d="M116.112,77.789a3.088,3.088,0,0,0-.656-.151v-.6a4.856,4.856,0,0,1,1.18.266l-.244.314Z" transform="translate(-112.455 -76.806)"/><path class="p" d="M116.526,77.276l-.521-.078s0,.734,0,.8a.162.162,0,0,0,.092.15.78.78,0,0,0,.62-.012V77.3Z" transform="translate(-112.345 -76.774)"/><path class="p" d="M114.59,78.063a.76.76,0,0,1-.572-.036V77.2l.631-.062v.847A.1.1,0,0,1,114.59,78.063Z" transform="translate(-112.742 -76.787)"/><path class="p" d="M114.84,77.056v-.211h.739v.235A4.776,4.776,0,0,0,114.84,77.056Z" transform="translate(-112.578 -76.845)"/><path class="p" d="M115.236,77.892a.492.492,0,0,1-.4-.239v-.631a4.776,4.776,0,0,1,.739.024v.6A.317.317,0,0,1,115.236,77.892Z" transform="translate(-112.578 -76.811)"/></g><rect class="o" width="1.549" height="0.621" transform="translate(26.536 2.77)"/><path class="p" d="M114.317,77.618v.728s-.36.03-.456-.226a1.282,1.282,0,0,1-.1-.406Z" transform="translate(-88.984 -76.398)"/><rect class="o" width="0.776" height="0.761" transform="translate(28.829 1.568)"/><path class="p" d="M114.77,78.242V78.6l-.246-.131Z" transform="translate(-88.832 -76.274)"/><rect class="o" width="0.893" height="0.775" transform="translate(9.085 14.511)"/><path class="p" d="M116.474,77.805v.681l.42.123.239-.525Z" transform="translate(-88.442 -76.361)"/><path class="p" d="M116.146,78.3v.681l.42.123.239-.525Z" transform="translate(-88.507 -76.261)"/><path class="o" d="M97.511,90.848v.832a2.179,2.179,0,0,0,1.106-.168,2.518,2.518,0,0,0,.544-.8Z" transform="translate(-92.235 -73.779)"/></g><g transform="translate(0 1.601)"><path class="b" d="M100.3,87.5c1.265-.736,15.3-8.868,16.894-9.847l2.976,1.718c-2.554,1.446-16.745,9.64-16.9,9.74-.487.313-.358.816-.253,1.2a2.094,2.094,0,0,1-1.034,2.365,4.657,4.657,0,0,1-3.589.78.7.7,0,0,1,.106-.208,3.3,3.3,0,0,0,2.23-.3c1.168-.65,1.873-1.433,1.645-2.279-.276-1.019-1.321-1.886-3.264-2.245-1.312-.242-3.356-.419-4.366.324-1.363,1-1.655,2.053-.486,3.205a1.853,1.853,0,0,1-.163.155,1.858,1.858,0,0,1-.5-2.84c.956-1.254,2.621-1.366,4.048-1.3A4.067,4.067,0,0,0,100.3,87.5Z" transform="translate(-93.108 -77.653)"/><path class="j" d="M94.672,86.993c1.009-.743,3.054-.566,4.366-.324,1.943.359,2.988,1.226,3.264,2.245.228.846-.478,1.628-1.645,2.279a3.3,3.3,0,0,1-2.23.3c.259-.323.87-1.1,1.183-1.513.241-.318-.574-.877-1.688-1.214-1.313-.4-1.948-.38-2.234-.144a13.131,13.131,0,0,0-1.5,1.578C93.018,89.046,93.309,88,94.672,86.993Z" transform="translate(-93.038 -75.892)"/></g><path class="j" d="M114.222,79.707a1.88,1.88,0,0,0-1.7-.06l-11.458,6.742c-.43.254-.366.694.142.98h0a1.877,1.877,0,0,0,1.7.06l11.458-6.742c.43-.254.366-.694-.14-.98Z" transform="translate(-91.573 -75.688)"/><g transform="translate(23.816)"><path class="b" d="M113.956,79.087c-1.21-.7-1.342-1.756-.294-2.36a4.546,4.546,0,0,1,4.088.17c1.21.7,1.34,1.754.293,2.359A4.543,4.543,0,0,1,113.956,79.087Zm3.368-1.608a.78.78,0,0,1-.62.012c-.139-.083-.118-.228.035-.35a3.1,3.1,0,0,0-.782-.191.317.317,0,0,1-.343.25.492.492,0,0,1-.4-.248,2.29,2.29,0,0,0-.5.119c.154.126.2.257.09.324a.76.76,0,0,1-.572-.036.748.748,0,0,0-.18.263c.241.044.419.136.43.233s-.173.182-.433.2a1.057,1.057,0,0,0,.336.455.777.777,0,0,1,.61-.007c.136.082.118.222-.028.343a3.1,3.1,0,0,0,.731.186.317.317,0,0,1,.348-.271.487.487,0,0,1,.418.278,2.372,2.372,0,0,0,.478-.1c-.16-.127-.206-.262-.1-.33a.791.791,0,0,1,.606.049.753.753,0,0,0,.214-.308c-.269-.04-.473-.137-.484-.241s.188-.19.469-.2A1.08,1.08,0,0,0,117.324,77.479Z" transform="translate(-112.955 -76.319)"/></g><path class="p" d="M118.477,79.085v.832l-16.9,9.74v-.832Z" transform="translate(-91.415 -75.766)"/></g><g transform="translate(48.756)"><path class="a" d="M111.887,69.447c0,1.812,2.612,3.282,5.833,3.282s5.833-1.47,5.833-3.282-2.611-3.283-5.833-3.283S111.887,67.633,111.887,69.447Z" transform="translate(-110.874 -26.716)"/><path class="a" d="M121.857,70.81a5.168,5.168,0,0,0,1.606-3.508c-.023-1.572-6.2.481-6.2.481Z" transform="translate(-109.798 -26.607)"/><path class="a" d="M112.65,70.81a5.167,5.167,0,0,1-1.607-3.508c.023-1.572,6.2.481,6.2.481Z" transform="translate(-111.043 -26.607)"/><rect class="b" width="13.693" height="24.009" transform="translate(0 16.341)"/><path class="b" d="M111.043,67.558c0,2.129,3.065,3.853,6.846,3.853s6.847-1.724,6.847-3.853-3.066-3.853-6.847-3.853S111.043,65.431,111.043,67.558Z" transform="translate(-111.043 -27.208)"/><path class="a" d="M111.043,47.551c0,2.128,3.065,3.853,6.846,3.853s6.847-1.726,6.847-3.853S121.67,43.7,117.889,43.7,111.043,45.422,111.043,47.551Z" transform="translate(-111.043 -31.21)"/><path class="c" d="M114.96,54.217a11.527,11.527,0,0,0,2.118.2c3.781,0,6.846-1.724,6.846-3.853V67.3c0,2.128-3.065,3.853-6.846,3.853a11.633,11.633,0,0,1-2.118-.2Z" transform="translate(-110.259 -29.837)"/><path class="a" d="M116.864,40.791l2.988-.212a27.321,27.321,0,0,1,3.562,6.772c.745,2.639-2.876,2.622-6.55,1.991Z" transform="translate(-109.878 -31.833)"/><path class="a" d="M118.812,40.791l-4.112-.212a27.321,27.321,0,0,0-3.562,6.772c-.745,2.639,4,2.622,7.674,1.991Z" transform="translate(-111.039 -31.833)"/><path class="b" d="M113.982,41.268c0,1.019,1.466,1.844,3.276,1.844s3.276-.826,3.276-1.844-1.466-1.843-3.276-1.843S113.982,40.251,113.982,41.268Z" transform="translate(-110.455 -32.064)"/><rect class="b" width="6.551" height="2.561" transform="translate(3.527 6.643)"/><path class="j" d="M113.982,39.134c0,1.018,1.466,1.843,3.276,1.843s3.276-.826,3.276-1.843-1.466-1.844-3.276-1.844S113.982,38.116,113.982,39.134Z" transform="translate(-110.455 -32.491)"/><path class="a" d="M114.96,38.884c0,.642.925,1.163,2.066,1.163s2.065-.521,2.065-1.163-.924-1.163-2.065-1.163S114.96,38.242,114.96,38.884Z" transform="translate(-110.259 -32.405)"/><rect class="l" width="4.132" height="1.922" transform="translate(4.701 4.557)"/><path class="d" d="M115.723,55.514a10.376,10.376,0,0,0,1.9.179c3.395,0,6.148-1.549,6.148-3.46v.893c0,1.91-2.753,3.46-6.148,3.46a10.484,10.484,0,0,1-1.9-.178Z" transform="translate(-110.107 -29.502)"/><path class="d" d="M120.369,57.832s2.436,4.072,0,5.525S120.369,57.832,120.369,57.832Z" transform="translate(-109.394 -28.383)"/><g transform="translate(3.362)"><path class="c" d="M117.858,34.889v5.178a5.808,5.808,0,0,1-1.174.124v-5.3Z" transform="translate(-113.276 -32.971)"/><path class="c" d="M116.534,34.889V40.17a5.7,5.7,0,0,1-.983-.139V34.889Z" transform="translate(-113.503 -32.971)"/><path class="c" d="M118.958,34.889v4.654a3.785,3.785,0,0,1-.983.428V34.889Z" transform="translate(-113.018 -32.971)"/><path class="c" d="M115.4,34.889v5.027a3.484,3.484,0,0,1-.966-.486V34.889Z" transform="translate(-113.726 -32.971)"/><path class="c" d="M113.844,34.889h.329v4.2a1.272,1.272,0,0,1-.329-.81Z" transform="translate(-113.844 -32.971)"/><path class="c" d="M119.6,34.889v3.385a1.367,1.367,0,0,1-.494.982V34.889Z" transform="translate(-112.791 -32.971)"/><path class="e" d="M119.171,34.889v4.367a2.466,2.466,0,0,1-.377.287V34.889Z" transform="translate(-112.854 -32.971)"/><path class="e" d="M118.038,34.889v5.082c-.122.036-.246.068-.376.1V34.889Z" transform="translate(-113.08 -32.971)"/><path class="e" d="M116.747,34.889v5.3h0c-.128,0-.25-.014-.374-.022V34.889Z" transform="translate(-113.339 -32.971)"/><path class="e" d="M115.614,34.889v5.142c-.132-.032-.253-.074-.377-.115V34.889Z" transform="translate(-113.565 -32.971)"/><path class="e" d="M114.495,34.889V39.43a2.1,2.1,0,0,1-.377-.346v-4.2Z" transform="translate(-113.789 -32.971)"/><path class="f" d="M113.844,35.209c0,1.058,1.524,1.916,3.406,1.916s3.406-.858,3.406-1.916-1.525-1.918-3.406-1.918S113.844,34.15,113.844,35.209Z" transform="translate(-113.844 -33.291)"/><path class="c" d="M114.432,35.138c0,.823,1.186,1.49,2.648,1.49s2.65-.667,2.65-1.49-1.187-1.492-2.65-1.492S114.432,34.314,114.432,35.138Z" transform="translate(-113.726 -33.22)"/></g></g></g><g transform="translate(349.411 287.424)"><path class="q" d="M323.166,267.069s3.943.181,7.243,8.944,3,9.678,2.55,12.512c-.662,4.22-4.562,9.973-7.5,13.177a36.523,36.523,0,0,1-5.8,5.134l-4.1-5.7Z" transform="translate(-293.911 -240.667)"/><g transform="translate(13.707 95.063)"><path class="q" d="M317.22,375.037c-2.366-1.183-4.614-2.63-3.9-3.979a2.4,2.4,0,0,1,1.807-1c2.182.718,3.27,1.206,3.27,1.206s.186-15.374-.713-27.424a102.47,102.47,0,0,0-2.634-15.65c-.307-1.73,9.71-3.9,9.71-3.9-2.606,1.141,1.877,9,2.236,17.624.461,11.1-1.484,24.336-1.8,27.983a19.063,19.063,0,0,0,.091,4.644c-.563.245-1.726.75-2.591,1.144C321.521,376.219,319.585,376.219,317.22,375.037Z" transform="translate(-308.092 -324.286)"/><path class="e" d="M326.241,370.507c-.791,1.883-2.615,1.708-6.3.382a31.694,31.694,0,0,1-8.293-4.229c-2.327-1.721-2.35-1.949-2.657-3.113-.431-1.63,1.948-2.543,5.9-1.314.391.121.75.236,1.088.348a2.4,2.4,0,0,0-1.807,1c-.719,1.349,1.529,2.8,3.9,3.979s4.3,1.182,5.484.644c.865-.394,2.028-.9,2.591-1.144C326.384,368.642,326.717,369.376,326.241,370.507Z" transform="translate(-308.941 -316.81)"/></g><g transform="translate(0.706 100.798)"><path class="q" d="M306.386,381.546c-2.366-1.183-4.613-2.629-3.894-3.979a2.394,2.394,0,0,1,1.806-1c2.182.718,3.271,1.206,3.271,1.206s-1.7-42.69-2.636-47.938c-.307-1.73,10.423,0,10.423,0a39.987,39.987,0,0,0-.829,8.124c1.168,4.842.962,10.14.272,17.843a151.07,151.07,0,0,0-.337,25.246c-.564.245-1.726.75-2.592,1.144C310.687,382.729,308.751,382.729,306.386,381.546Z" transform="translate(-297.258 -329.065)"/><path class="e" d="M315.407,376.728c-.791,1.883-2.614,1.708-6.3.382a31.729,31.729,0,0,1-8.293-4.229c-2.326-1.72-2.35-1.949-2.657-3.113-.43-1.63,1.948-2.543,5.9-1.314.39.121.75.236,1.087.348a2.394,2.394,0,0,0-1.806,1c-.719,1.35,1.528,2.8,3.894,3.979s4.3,1.183,5.484.644c.866-.394,2.028-.9,2.592-1.144C315.551,374.864,315.883,375.6,315.407,376.728Z" transform="translate(-298.107 -321.301)"/></g><path class="q" d="M314.183,248.859c-.914.634-4.322,1.417-5.275,8.927-.844,6.654.622,8.387,1.974,8.95a15.545,15.545,0,0,0,3.4.3l-.1,5.621a9.538,9.538,0,0,0,6.455,0l3.161-1.3a11.119,11.119,0,0,1-1.028-5.813c.256-4.57,1.874-11.076.73-13.5C321.429,247.674,316.662,247.137,314.183,248.859Z" transform="translate(-295.291 -244.492)"/><path class="h" d="M306.3,304.967c1.151-5.238,1.5-16.426,1.5-16.426s-2.555-7.776-.13-12.646,5.048-6.068,7.37-6.854c2.46-.833,9.95-2.893,9.95-2.893s6.358,7.8,4.7,15.1c-2.76,12.152-7.232,14.263-6.373,19.987,0,0,4.974,10.167,5.669,13.034.9,3.72,3.4,29.715,3.4,29.715s-9.718,7.543-17.869,6.559c-6.655-.8-12.172-6.559-12.172-6.559S305.149,310.224,306.3,304.967Z" transform="translate(-296.552 -240.851)"/><path class="q" d="M311.625,272.293c-1.406.133-3.506,2.633-5.058,8.082-1.465,5.144-1.549,14.371-2.4,18.206-.6,1.73-3.353,14.623-4.092,19.074a19.441,19.441,0,0,0-2.556,9.6c-.121,6.721,3,7.176,4.694,5.128,1.39-1.68,2.014-9.292,2.194-11.986a49.956,49.956,0,0,1,3.79-10.06,44.628,44.628,0,0,0,3.509-8.388c1.27-6.046,3.583-17.515,3.77-21.7C315.683,275.724,313.615,272.1,311.625,272.293Z" transform="translate(-297.519 -239.624)"/><path class="q" d="M310.511,257.323s1.973-3.382,2.821,0a3.435,3.435,0,0,1-1.95,4.2Z" transform="translate(-294.921 -242.917)"/><path class="e" d="M313.532,246.832c1.99-.917,4.357-3.26,8.754-.359s7,9.914,6.691,13.112-2.789,6.884,1.928,9.51,5.294,4.126,3.971,7.806c-1.286,3.581-3.352,5.344-.62,7.164,3.776,2.519,3.536,7.3,2.111,8.886-2.533,2.82-4.43,2.054-4.116,3.961.541,3.283,2.874,6.84-1.1,8.554-4.218,1.819-6.456-.842-6.456-.842s4.28.276,4.28-2.982c0-3.167-2.446-.944-8.254-1.489-6.613-.622-6.632-3.715-6.919-9.089s-7.758-5.906-4.879-9.928,6.439-5.161,2.222-6.522c-2.222-.716-2.458-5.491-1.654-7.29,1.242-2.777,5.065-4.049,2.36-6.5-1.475-1.339-5.842-2.345-4.136-9.708C308.173,249.151,311.243,247.887,313.532,246.832Z" transform="translate(-295.557 -245.068)"/><path class="r" d="M332.751,332.111s1.637,6.056,1.394,8.213-1.986,1.536-4.469,2.908.624,4.722-3.353,4.722c-2.828,0,.094,4.842-5.592,3.524-4.817-1.117-1.242,2.321-3.23,3.256a14,14,0,0,1-6.734,1.042c-3.438-.186-2.582,2.942-6.7,2.3-1.438-.223-3.77-2.534-4.226-4.213s4.42-36.181,4.42-36.181,1.763,13.855,11.6,14.428A134.494,134.494,0,0,0,332.751,332.111Z" transform="translate(-297.06 -230.544)"/><path class="b" d="M332.069,330.93c.3,3.038.36,3.652.36,3.652a23.508,23.508,0,0,1-17.674,1.04,19.821,19.821,0,0,1-12.184-11.75l1.272-6.781s4.253,10.476,13.488,13.286C325.9,332.984,332.069,330.93,332.069,330.93Z" transform="translate(-296.509 -230.663)"/></g><g transform="translate(79.378 115.973)"><g transform="translate(0)"><g transform="translate(11.25)"><path class="s" d="M216.987,259.18l-31.762-18.6s5.562-10.818,19.147-7.049,21.3,8.5,21.3,8.5Z" transform="translate(-61.195 -76.083)"/><g transform="translate(108.625 163.108)"><path class="e" d="M206.841,253.206c-.013,12.678-7.735,27.4-17.249,32.878s-17.216-.354-17.2-13.032,7.735-27.4,17.25-32.878S206.853,240.529,206.841,253.206Z" transform="translate(-172.388 -238.115)"/><path class="e" d="M177.771,287.174l11.145,6.455,20.911-48.518-11.6-6.622Z" transform="translate(-171.311 -238.04)"/><path class="c" d="M216.152,258.6c-.012,12.678-7.734,27.4-17.249,32.878s-17.215-.354-17.2-13.032,7.735-27.4,17.249-32.878S216.165,245.917,216.152,258.6Z" transform="translate(-170.526 -237.037)"/><path class="d" d="M210.5,260.213c-.01,9.113-5.561,19.693-12.4,23.633s-12.376-.256-12.366-9.367,5.56-19.695,12.4-23.633S210.51,251.1,210.5,260.213Z" transform="translate(-169.718 -235.865)"/><path class="c" d="M203.961,262.234c0,4.655-2.84,10.06-6.334,12.072s-6.32-.13-6.317-4.784,2.84-10.061,6.334-12.072S203.966,257.58,203.961,262.234Z" transform="translate(-168.603 -234.399)"/><path class="t" d="M202.729,262.587c0,3.878-2.366,8.381-5.276,10.057s-5.266-.109-5.262-3.986,2.366-8.381,5.276-10.057S202.733,258.709,202.729,262.587Z" transform="translate(-168.427 -234.144)"/></g><path class="s" d="M326.952,195.73l-31.763-18.6s5.562-10.817,19.147-7.049,21.3,8.5,21.3,8.5Z" transform="translate(-39.202 -88.774)"/><path class="u" d="M362.994,142.281s-38.082-30.785-68.286-37.572c-12.568-2.824-26.091,3.406-36.569,4.292l-11.27,10.972,81.086,49.847,33.211-17.687C364.263,150.332,366.087,144.09,362.994,142.281Z" transform="translate(-48.866 -101.835)"/><g transform="translate(56.089 54.184)"><path class="m" d="M131.362,187.839c3.568,4.354,10.774,10.991,25.013,20.986,34.39,24.138,58.785,22.337,58.785,22.337l19.054-33.521c-19.919-9.22-49.913-22.475-62.676-24.893S141.863,180.336,131.362,187.839Z" transform="translate(-128.058 -142.338)"/><path class="n" d="M161.028,147.345,129.1,185.1s-2.243,1.584,2.808,7.745c10.5-7.5,27.407-17.512,40.175-15.091s42.757,15.673,62.676,24.893l5.216-9.179Z" transform="translate(-128.608 -147.345)"/></g><path class="i" d="M155.625,156.372s3.481,5.086,24.318,19.573c19.415,13.5,54.634,26.55,54.634,26.55s25.2-19.074,45.165-30.16,54.824-25.654,54.824-25.654l-58.178-37.327s-15.365-15.112-41.717-1.367c-9.9,5.162-27.772,16.16-52.859,31.41C172.441,145.094,163.061,151.3,155.625,156.372Z" transform="translate(-67.116 -102.188)"/><path class="h" d="M157.667,160.507s17.464-10.645,42.352-24.822,57.293-32.872,57.293-32.872l3.022.949s-13.454,8.082-26.082,15.058c-10.25,5.66-75.4,43.775-75.4,43.775Z" transform="translate(-66.707 -102.068)"/><path class="h" d="M209.142,190.531s17.464-10.645,42.353-24.822,57.293-32.871,57.293-32.871l3.02.948s-13.454,8.082-26.082,15.056c-10.25,5.663-75.4,43.776-75.4,43.776Z" transform="translate(-56.412 -96.063)"/><path class="i" d="M298.6,135.852l16.8,2.926,16.968,9.317s-33.124-4.326-36.46-5.71S298.6,135.852,298.6,135.852Z" transform="translate(-39.26 -95.46)"/><g transform="translate(240.584 86.968)"><path class="e" d="M316.805,189.756c-.013,12.678-7.735,27.4-17.249,32.879s-17.215-.355-17.2-13.032,7.735-27.4,17.249-32.879S316.818,177.079,316.805,189.756Z" transform="translate(-282.353 -174.665)"/><path class="e" d="M287.736,223.724l11.145,6.455,20.911-48.518L308.2,175.039Z" transform="translate(-281.276 -174.59)"/><path class="c" d="M326.117,195.145c-.013,12.677-7.735,27.4-17.249,32.878s-17.216-.354-17.2-13.032,7.735-27.4,17.249-32.878S326.129,182.467,326.117,195.145Z" transform="translate(-280.491 -173.587)"/><path class="d" d="M320.466,196.763c-.008,9.113-5.56,19.693-12.4,23.633s-12.374-.254-12.366-9.367,5.561-19.695,12.4-23.633S320.475,187.65,320.466,196.763Z" transform="translate(-279.683 -172.415)"/><path class="c" d="M313.925,198.786c0,4.654-2.84,10.06-6.332,12.071s-6.322-.13-6.317-4.784,2.84-10.06,6.332-12.072S313.93,194.13,313.925,198.786Z" transform="translate(-278.568 -170.949)"/><path class="t" d="M312.695,199.137c0,3.878-2.366,8.381-5.276,10.057s-5.267-.108-5.263-3.986,2.366-8.381,5.276-10.057S312.7,195.26,312.695,199.137Z" transform="translate(-278.392 -170.694)"/></g><g transform="translate(0.06 40.446)"><path class="h" d="M395.985,135.9c-7.512,1.37-14.308,12.33-27.859,9.827-3.778-.7-15.362-5.1-24.87-4.426-10.12.72-15.725,4.487-24.837,9.881-7.226,4.278-32.939,18.8-52.606,31.451-11.014,7.084-18.636,11.291-21.5,16.044-1.988,3.294-9.006,19.678-15.84,32.457a32.907,32.907,0,0,1-5.08,7.021L98.572,215.071s-7.019,7.278-11.538,20.463c-1.709,4.985-6.924,17.495-4.471,28.829,2.226,10.278,9.491,21.019,22.707,28.673,45.605,26.413,71.362,20.372,90.345,9.786.071-16.81,10.3-36.275,22.9-43.535,12.587-7.25,22.779.416,22.842,17.118,26.8-15.472,61.02-35.226,88.531-51.106.559-4.426,2.927-18.735,5.376-22.925,4.912-8.4,17.3-20.041,22.8-19.5,17.585,1.74,10.3,20.212,13.35,18.452l6.716-3.876c13.8-7.942,20.832-23.719,23.1-33.673C402.484,158.272,402.087,139.921,395.985,135.9Z" transform="translate(-81.918 -135.897)"/><path class="u" d="M355.322,190.685c-.071-18.626-11.437-27.177-25.475-19.091-6.161,3.548-11.812,9.714-16.225,17.1-2.36,1.456-4.82,3-7.352,4.625-13.3,8.548-70.589,41.242-91.716,53.265-4.436-2.449-10.17-2.18-16.446,1.435-14.054,8.1-25.465,29.8-25.543,48.551q.985-.549,1.949-1.112c.354-.206,1.332-.774,2.809-1.627,0-.182,2.861-1.256,2.861-1.44.016-15.515,8.563-32.517,20.206-39.223a17.711,17.711,0,0,1,6.869-2.435l-.572.325,7.412,1.555c3.434,2.806,5.372,8.492,5.364,16.4,0,.162-.016.328-.018.49l4.139-2.389c-.025-6.708-1.534-12.084-4.086-15.871,0,0,42.6-23.8,56.8-31.731,7.8-4.355,30.343-14.722,30.343-14.722-1.25,2.876-1.956,7.993-2.336,15.362q.985-.549,1.949-1.111c.354-.206,1.333-.774,2.809-1.628,0-.181,2.861-1.255,2.862-1.44a50.5,50.5,0,0,1,3.736-18.451l.907-.506,7.153-10.434,9.655-9.158c1.566-1-1.439.518-6.944,3.661a30.349,30.349,0,0,1,5.7-4.333c11.642-6.707,20.275.122,20.261,15.636,0,.162-1.2.534-1.2.7Z" transform="translate(-63.788 -129.367)"/><path class="r" d="M199.569,239.177c-12.6,7.26-22.834,26.725-22.9,43.535q.882-.493,1.747-1c.318-.186,1.2-.694,2.519-1.459,0-.164-.018-.314-.018-.48.014-13.912,8.488-30.064,18.926-36.077s18.892.39,18.879,14.3c0,.145-.016.294-.018.439l3.712-2.143C222.347,239.593,212.155,231.926,199.569,239.177Z" transform="translate(-62.968 -115.787)"/></g><path class="i" d="M262.547,113.042s11.845-7.976,25.549-4.835,29.015,14.051,29.015,14.051l-23.9,9.619Z" transform="translate(-45.731 -101.136)"/><path class="r" d="M309.533,175.727c-12.6,7.26-22.834,26.725-22.9,43.535q.884-.493,1.748-1c.317-.185,1.194-.694,2.518-1.46,0-.162-.018-.313-.018-.479.014-13.91,8.488-30.064,18.928-36.076s18.891.389,18.877,14.3c0,.145-.016.294-.017.439l3.712-2.143C332.312,176.143,322.119,168.476,309.533,175.727Z" transform="translate(-40.914 -88.032)"/><path class="c" d="M136.556,178.808S120.9,189.867,99.2,204.421c-10.69,7.17-13.559,26.093,11.608,42.555,29.4,19.229,50.8,18.455,69.486,7.572,20.085-11.7,42.87-24.671,42.87-24.671s-15.45-.086-46.27-18.361A175.006,175.006,0,0,1,136.556,178.808Z" transform="translate(-79.971 -86.868)"/><path class="c" d="M213.369,233.911a2.92,2.92,0,0,1-4.15-3.666c5.174-12.15,15-34.21,19.214-36.937,5.49-3.547,24.553-14.928,47.814-28.716,17.2-10.194,32.46-19.066,39.657-17.059,2.792.779,10.427,5.99,16,9.968a5.084,5.084,0,0,1-.433,8.544Z" transform="translate(-56.445 -93.181)"/><path class="f" d="M239.8,102.229S263.12,115,273.644,121.922c15.637,10.28,36.613,21.763,36.613,21.763l23.794,6.138c-6.473-3.931,0,0-12.522-7.04-17.855-10.037-37.33-22.426-40.5-24.389-4.354-2.694-12.786-7.116-17.3-9.43C254.523,104.248,242.666,101.861,239.8,102.229Z" transform="translate(-50.28 -102.192)"/><path class="d" d="M131.6,263.455c2.5-4.759,6.9-8.34,12.245-7.717,4.049.472,4.59-.168,11.173-.823a45.578,45.578,0,0,0,17.61-5.987c4.633-2.754,5.046,1.97,4.541,3.754-1.884,6.662-7.193,11.665-13.986,13.877C147.072,271.8,131.6,263.455,131.6,263.455Z" transform="translate(-71.921 -73.013)"/><g transform="translate(12.823 147.609)"><path class="c" d="M131.747,251.815c4.356.92,8.826,1.986,11.777,2.636l.773-.88s-20.728-4.661-35.113-14.585A51.006,51.006,0,0,1,95.369,225.2l-.508,1.856a57.342,57.342,0,0,0,5.274,7.716C105.956,242.1,124.58,250.3,131.747,251.815Z" transform="translate(-92.092 -225.199)"/><path class="c" d="M130.63,255.026c3.468.733,7.178,1.591,10.084,2.249l1.752-1.994c-3.214-.673-7.552-1.634-11.7-2.72-7.961-2.086-19.393-8.15-26.9-13.229a29.238,29.238,0,0,1-9.3-11.029l-.787,2.881a48.842,48.842,0,0,0,5.238,6.8C105.293,244.93,123.462,253.512,130.63,255.026Z" transform="translate(-92.309 -224.578)"/><path class="c" d="M101.187,246.028a28.565,28.565,0,0,1-8.633-9.76,9.961,9.961,0,0,0,3.3,7.534,63.966,63.966,0,0,0,12.126,8.641,180.366,180.366,0,0,0,20.112,9.509,8.483,8.483,0,0,0,7.657-.85c-2.418-.541-5.076-1.169-7.662-1.846C120.124,257.171,108.693,251.107,101.187,246.028Z" transform="translate(-92.554 -222.985)"/><path class="c" d="M102.729,242.347a34.858,34.858,0,0,1-9.306-9.966l-.57,2.087c-.025.094-.034.188-.056.282a66.157,66.157,0,0,0,4.825,6.875c5.821,7.333,24.445,15.528,31.613,17.044,2.711.574,5.6,1.223,8.14,1.794.036-.04.078-.071.113-.11l2.126-2.419c-2.957-.637-6.539-1.454-9.985-2.357C121.667,253.492,110.234,247.427,102.729,242.347Z" transform="translate(-92.505 -223.763)"/><path class="f" d="M97.671,241.23a66.156,66.156,0,0,1-4.825-6.875,10.138,10.138,0,0,0-.292,2.3,28.565,28.565,0,0,0,8.633,9.76c7.506,5.08,18.937,11.143,26.9,13.229,2.586.677,5.244,1.3,7.662,1.846a8.569,8.569,0,0,0,1.676-1.417c-2.54-.571-5.429-1.22-8.14-1.794C122.116,256.758,103.492,248.563,97.671,241.23Z" transform="translate(-92.554 -223.368)"/><path class="f" d="M130.722,254.546c-7.168-1.514-25.337-10.1-31.613-17.044a48.842,48.842,0,0,1-5.238-6.8l-.552,2.014a34.858,34.858,0,0,0,9.306,9.966c7.5,5.08,18.937,11.144,26.9,13.229,3.446.9,7.028,1.72,9.985,2.357l1.3-1.474C137.9,256.137,134.19,255.279,130.722,254.546Z" transform="translate(-92.401 -224.098)"/><path class="f" d="M103.735,239.642c7.506,5.078,18.939,11.143,26.9,13.229,4.148,1.086,8.486,2.047,11.7,2.72l1.274-1.45c-2.951-.65-7.421-1.716-11.777-2.636-7.166-1.516-25.791-9.71-31.612-17.044a57.342,57.342,0,0,1-5.274-7.716l-.511,1.867A29.238,29.238,0,0,0,103.735,239.642Z" transform="translate(-92.177 -224.89)"/></g><path class="d" d="M90.8,209.959s-.518,6.505-.526,13.586c0,5.28-2.257,12.475-2.257,12.475s-2.638-9.984-2.275-13.579A25.7,25.7,0,0,1,90.8,209.959Z" transform="translate(-81.099 -80.638)"/><path class="c" d="M89.91,254.717s.02-13.022,8.15-7.381a140.489,140.489,0,0,0,19.078,11.548c6.04,2.851,10.375,4.912,12.078,8.058,1.728,3.193,1.793,11.578,1.793,11.578s-5.725-.3-25.176-11.29C91.249,258.988,89.91,254.717,89.91,254.717Z" transform="translate(-80.259 -73.446)"/><path class="d" d="M95,248.763l-.007,7.794s5.987,4.234,10.8,7.36c3.132,2.035,15.11,7.514,15.11,7.514l.007-7.494s-8.489-3.835-15.109-7.664A79.884,79.884,0,0,1,95,248.763Z" transform="translate(-79.243 -72.877)"/><path class="r" d="M81.959,238.846s-1.121,11.249,4.478,19.4,19.768,22.71,44.953,29.937c28.179,8.086,46.167,5.521,56.6.838s11.629-4.344,11.9-9.242-4.262-1.552-4.262-1.552-4.595,7.721-26.471,9.055c-11.588.706-26.515-1.4-38.956-5.112-11.041-3.292-21.911-10.019-32.591-17.8C82.563,253.395,81.959,238.846,81.959,238.846Z" transform="translate(-81.868 -74.86)"/><path class="c" d="M137.623,269.789a1.6,1.6,0,0,0-1.355,2.383A15.1,15.1,0,0,0,139.077,276c3.607,3.335,20.088,3.571,21.936,1.856s.611-7.088-3.781-6.936C151.159,271.129,142.843,269.7,137.623,269.789Z" transform="translate(-71.028 -68.672)"/><path class="c" d="M83.008,229.807s1.223,5.632,2.056,7.822-3.12,3.025-3.12,3.025A57.009,57.009,0,0,1,83.008,229.807Z" transform="translate(-81.852 -76.668)"/><path class="d" d="M113.977,247.16c-.49,1.531-3.344,1.65-6.374.265s-5.09-3.749-4.6-5.28,3.346-1.65,6.376-.265S114.468,245.629,113.977,247.16Z" transform="translate(-77.655 -74.447)"/><path class="c" d="M126.35,181.064s1.969,4.536,12.87,13.079c10.528,8.251,33.445,24.445,48.478,30.471s24.676,9.805,28.464,5.263,23-43.445,23-43.445l-2.189-.9s-20.465,39.8-22.971,41.992-21.559-5.028-55.364-27.052c-12.832-8.359-29.081-21.659-29.081-21.659Z" transform="translate(-72.971 -86.868)"/><path class="c" d="M155.878,147.345l-1.519,1.8a173.9,173.9,0,0,0,26.9,20.283c14.994,8.986,50.862,25.294,50.862,25.294l1.441-1.992s-33.346-14.1-51.276-26.013S155.878,147.345,155.878,147.345Z" transform="translate(-67.369 -93.161)"/><path class="r" d="M304.078,205.921l-90.686,52.3-.005,5.1,1.34-.773,90.477-52.18Z" transform="translate(-55.563 -81.446)"/><path class="m" d="M260.147,170.948l-.026,26.287L221.4,219.593s-.086-9.986.013-14.051a23.607,23.607,0,0,1,2.408-9.1A22.693,22.693,0,0,1,231.9,187.9C242.283,181.532,260.147,170.948,260.147,170.948Z" transform="translate(-53.967 -88.44)"/><path class="m" d="M257.905,172.531l-.026,26.4,40.877-24.01s.044-10.027-.493-13.044c-.473-2.644-1.889-10.577-1.889-10.577Z" transform="translate(-46.664 -92.37)"/><path class="m" d="M293.082,150.385s1.5,7.452,1.908,10.13c.409,2.642.629,12.534.629,12.534s9.286-5.6,11.425-6.691,3.863-4.22-1.765-8.45A132.427,132.427,0,0,0,293.082,150.385Z" transform="translate(-39.623 -92.553)"/><path class="c" d="M347.442,142.681l-.526.344a5.379,5.379,0,0,0-2.443,4.5l-.006,5.987a87.056,87.056,0,0,1-.852,10.837l5.576-3.48a22.667,22.667,0,0,0,1.538-12.65C349.977,144.141,347.442,142.681,347.442,142.681Z" transform="translate(-29.516 -94.094)"/><path class="u" d="M320.393,177.294s17.25-7.776,29.317-16.6a44.943,44.943,0,0,0,5.021-4.91s1.508,2.24-3.89,9.644c-1.829,2.508-20.812,16.244-26.625,18.212C321.529,177.336,320.393,177.294,320.393,177.294Z" transform="translate(-34.161 -91.473)"/></g><g transform="translate(37.397 109.739)"><g transform="translate(6.98 5.313)"><path class="b" d="M116.241,223.568a1.514,1.514,0,0,1-.6-.125c-.6-.258-5.863-2.634-6.152-6.395-.154-1.985,1.036-3.787,3.536-5.359,7.586-4.77,26.929-13.144,27.749-13.5a1.521,1.521,0,1,1,1.206,2.792c-.2.086-19.948,8.635-27.336,13.279-.826.52-2.2,1.542-2.124,2.549.116,1.531,2.965,3.248,4.33,3.84a1.521,1.521,0,0,1-.606,2.916Z" transform="translate(-109.473 -198.068)"/></g><g transform="translate(12.508)"><path class="b" d="M125.261,218.644a1.525,1.525,0,0,1-.748-.2c-1.754-.994-10.5-6.192-10.433-10.986.016-1.139.51-2.748,2.778-3.952,7.169-3.805,19.944-9.672,20.071-9.732a1.521,1.521,0,1,1,1.268,2.765c-.128.059-12.822,5.89-19.914,9.654-1.154.612-1.16,1.134-1.163,1.307-.031,2.2,5.287,6.253,8.892,8.3a1.52,1.52,0,0,1-.752,2.843Z" transform="translate(-114.08 -193.641)"/></g><g transform="translate(0 20.426)"><path class="t" d="M141.764,211.873A258,258,0,0,0,114.143,228l-.109-1.012-8.663-.445a36.821,36.821,0,0,0-1.714,10.726c0,.533,7.078,5.4,15.066,9.482,7.534,3.854,12.875,5.911,16.7,6.829a6.444,6.444,0,0,0,2.879-1.316,158.96,158.96,0,0,1,17.72-12.323c14.83-8.81,26.439-14.687,28.035-15.263C182.251,223.548,153.715,205.963,141.764,211.873Z" transform="translate(-103.657 -210.662)"/><path class="v" d="M170.66,222.348l.092.058C170.922,222.283,170.877,222.27,170.66,222.348Z" transform="translate(-90.256 -208.334)"/></g><path class="b" d="M106.512,231.979a3.268,3.268,0,0,1-.271-5.491,274.051,274.051,0,0,1,35.28-21.373c12.344-6.1,42.389,12.862,42.389,12.862,1.416-1.03-11.287,5.2-28.127,15.205a158.825,158.825,0,0,0-17.72,12.322,6.457,6.457,0,0,1-7.292.546Z" transform="translate(-103.413 -191.588)"/><path class="a" d="M140.746,206.942s-12.721,8.137-18.941,11.484S109.9,226.8,109.828,229.611s2.009,1.888,7.938-2.6,29.5-17.5,29.5-17.5Z" transform="translate(-102.423 -190.98)"/><path class="a" d="M147.131,211.28s-12.721,8.137-18.941,11.483-11.909,8.378-11.977,11.186,2.009,1.888,7.938-2.6,29.5-17.5,29.5-17.5Z" transform="translate(-101.146 -190.113)"/><path class="a" d="M155.08,215.089s-12.722,8.138-18.941,11.484-11.91,8.377-11.978,11.185,2.009,1.889,7.938-2.6,29.5-17.5,29.5-17.5Z" transform="translate(-99.556 -189.351)"/><g transform="translate(45.524 32.402)"><path class="b" d="M152.321,243.2c-5.3,0-9.9-3.563-10.151-3.763a1.521,1.521,0,0,1,1.883-2.389c.067.052,6.754,5.2,12.1,2.106,6.338-3.667,32.459-18.513,32.459-18.513l1.5,2.644s-26.1,14.836-32.437,18.5A10.512,10.512,0,0,1,152.321,243.2Z" transform="translate(-141.593 -220.642)"/></g><g transform="translate(56.422 33.755)"><path class="b" d="M166.778,240.278c-6.842,0-14.642-7.578-15.66-8.594a1.521,1.521,0,0,1,2.152-2.15c2.845,2.842,11.234,9.667,15.8,7.153,6.475-3.563,23.9-14.57,24.071-14.682a1.522,1.522,0,0,1,1.628,2.572c-.719.454-17.677,11.167-24.232,14.774A7.7,7.7,0,0,1,166.778,240.278Z" transform="translate(-150.674 -221.77)"/></g></g><g transform="translate(0 101.962)"><path class="q" d="M120.694,240.144s4.351-.668,6.517-1.259c2.376-.648,1.074,1,.488,1.259a5.593,5.593,0,0,0-2,1.765c.275.875,1.38,2.795,1.94,4.166,1.457,3.565-1.082,5.206-3.611,3.708a56.879,56.879,0,0,1-6.737-4.724Z" transform="translate(-63.532 -176.845)"/><g transform="translate(0 2.052)"><path class="q" d="M110.766,202.442c-.278-.086-3.432,3.532-5.288,7.428s-7.4-2.491-7.4-2.491l3.744-9.94Z" transform="translate(-67.375 -187.156)"/><path class="q" d="M107.855,189.118c7.052-2.381,9.262,13.016,5.734,18.3-3.247,4.86-12.257-.085-14.341-4.108S99.354,191.99,107.855,189.118Z" transform="translate(-67.288 -188.87)"/><path class="c" d="M102.931,300.662s7.513-3.349,11.231-3.51,4.076,4.2,0,7.59-7.2,3.836-10.535,5.208c-3.007,1.236-4.086,1.333-6.486-.223-3.2-2.075-.636-7.564-.636-7.564Z" transform="translate(-67.884 -167.214)"/><path class="c" d="M81.579,294.164s5.968-2.494,9.685-2.654,5.051,3.053.974,6.437-6.628,4.134-9.964,5.506c-3.007,1.236-4.07,1.308-6.486-.223-3.289-2.086-.718-7.573-.636-7.564Z" transform="translate(-72.167 -168.343)"/><path class="l" d="M103.631,205.082s-6.835-7.327-14.244-1.424c-6.811,5.426-13.369,15.551-11.621,20.655s7.477,8.242,7.477,8.242Z" transform="translate(-71.495 -186.372)"/><path class="l" d="M105.912,245.5s6.222,24.549,7.789,33.006c1.016,5.484-.809,18.241-1.24,26.279-.233,4.358,1.848,4.939.661,7.679-.814,1.882-3.587,3.984-6.641,4.808-5.2,1.4-7.142.718-7.686-1.265-.4-1.472-1.736-3.894-1.132-6.87,1.06-5.2,0-6.772,0-11.3A92.413,92.413,0,0,1,99.371,283s-7.973-18.713-8.7-20.038c1.1,7.123-.1,12.73-.522,17.433-.454,5.069-.156,10.2-1.181,17.047-.306,2.046-1.357,2.392-1.794,5.258-.26,1.7,1.794,3.551.214,4.68-2.674,1.909-12.026,6.043-14.117,2.26-1.72-3.112,1.075-3.011.677-6.1-.2-1.561-1.513-2.749-1.456-5.242.1-4.4,1.891-14.606,1.951-18.155.073-4.322.955-14.276,1.144-21.124.268-9.728,2.088-18.108,5.6-20.94C86.359,233.913,105.912,245.5,105.912,245.5Z" transform="translate(-72.492 -179.208)"/><path class="m" d="M82.305,216.951c2.946-5.706,9.244-13.4,14.2-14.436,5.351-1.115,13.878,3.841,19.661,9.571s-3.946,14.362-3.946,14.362a63.708,63.708,0,0,1-1.628,8.846c-.871,3.116-2.042,8.545-2.521,10.675-2.214,9.866-.391,14.881-.391,14.881s-11.486,6.23-17.332,4.462-15.644-9-16.228-10.819C74.652,248.994,76.448,228.291,82.305,216.951Z" transform="translate(-72.167 -186.173)"/><path class="l" d="M108.494,209.329s.632-2.315,0-3.386c-1.418-2.4-5.436-3.264-7.386-4.136-4.136-1.85-5.578.923-5.468.947S108.494,209.329,108.494,209.329Z" transform="translate(-67.864 -186.41)"/></g><path class="l" d="M103.246,245.053a29.707,29.707,0,0,1-4.736,2.575c-2.184.854-4.9,2.137-4.9,2.137v-3l9.794-4.494Z" transform="translate(-68.268 -176.136)"/><path class="l" d="M110.026,210.041c3.154,1.722,5.242,5.047,4.565,10.016a106.409,106.409,0,0,0-.583,12.478s9.244,10.2,11.4,12.252c2.722,7.345-4.237,8.7-4.237,8.7s-11.384-6.474-13.908-8.7-5.492-2.932-5.492-9.934C101.774,231.125,103.058,206.236,110.026,210.041Z" transform="translate(-66.636 -182.663)"/><path class="e" d="M112.17,189.212c-2.466-1.356-5.832-3.218-10.3-1.08-3.99,1.908-5.1,7.859-5.819,9.622a7.032,7.032,0,0,1-2.539,2.624,4.126,4.126,0,0,0,3.11-.883,14.854,14.854,0,0,0,.1,4.916c.1.784.8,3.888.8,3.888a10.4,10.4,0,0,1,2.581-2.227,21.139,21.139,0,0,0-.587,4.608,49.236,49.236,0,0,1,4.978-3.839,6.684,6.684,0,0,0,1.006,3.532c1.085-2.321,5.021-3.046,8.626-8.93C116,198.381,120.24,193.654,112.17,189.212Z" transform="translate(-68.289 -187.16)"/></g><g transform="translate(25.721 91.625)"><path class="h" d="M133.915,182.005s-26.729-3.558-38.387-2.341c-8.059.841,16.554,12.52,27.466,21.223,13,10.366,27.658,25.733,49.608,28.817,6.545.919,43.945,3.532,43.945,3.532l2.58-1.475a207.529,207.529,0,0,1-31.8-12.562C166.748,208.994,143,193.487,133.915,182.005Z" transform="translate(-93.925 -178.373)"/><path class="w" d="M94.18,179.411s-.57,1.129,0,1.84,2.623-.35,2.623-.35Z" transform="translate(-93.927 -178.373)"/><path class="u" d="M133.88,180.354s-26.507-2.711-38.165-1.494c-8.059.841,16.332,11.672,27.244,20.375,13,10.366,27.658,25.734,49.608,28.818,6.545.919,46.525,3.881,46.525,3.881S155.651,207.872,133.88,180.354Z" transform="translate(-93.89 -178.546)"/><path class="i" d="M148.742,213.211s3.966,3.695,15.37,4.836,30.233.961,30.233.961l-11.689-5.166Z" transform="translate(-82.964 -171.613)"/><path class="i" d="M106.745,185.37s-2.905-4.51,5.5-4.219,21.933,1.807,21.933,1.807l4.948,5.006Z" transform="translate(-91.46 -178.028)"/></g></g><g transform="translate(75.678 164.598)"><path class="e" d="M163.1,381.774c-4.217,0-9.113-1.382-15-5.01-5.179-3.192-7.944-7.006-8.215-11.336-.634-10.1,12.665-20.8,19.056-25.939,4.11-3.307,6.186-6.358,6.534-9.6.512-4.781-2.756-9.937-7.823-16.207-8.014-9.923-7.4-20.256-6.76-31.2.109-1.859.221-3.74.29-5.644.108-2.917.313-5.785.512-8.558.418-5.845.779-10.892.1-14.354-.473-2.416-3.29-4.322-5.154-5.585l-.443-.3c-5.233-3.582-10.36-7.57-10.411-7.609a.6.6,0,0,1,.737-.948c.052.041,5.149,4.006,10.352,7.568l.437.3c2.028,1.373,5.092,3.446,5.659,6.348.71,3.619.343,8.74-.082,14.67-.2,2.764-.4,5.621-.51,8.518-.07,1.913-.181,3.8-.292,5.67-.631,10.7-1.226,20.812,6.5,30.372,5.254,6.5,8.639,11.9,8.082,17.091-.384,3.58-2.6,6.888-6.974,10.409-6.234,5.015-19.2,15.454-18.611,24.928.246,3.919,2.819,7.415,7.646,10.39,15.356,9.464,23.328,3.2,31.038-2.857,1.555-1.222,3.164-2.485,4.784-3.568,9.349-6.246,15.631-9.734,15.694-9.768a.6.6,0,0,1,.581,1.05c-.062.034-6.3,3.5-15.607,9.716-1.583,1.057-3.1,2.25-4.711,3.514C175.655,377.64,170.392,381.774,163.1,381.774Z" transform="translate(-135.557 -239.356)"/></g></g><g transform="translate(38.068 171.54)"><g transform="translate(0 4.835)"><path class="h" d="M38.755,191.657l-.089-.05C38.694,191.627,38.726,191.638,38.755,191.657Z" transform="translate(-37.948 -144.71)"/><path class="u" d="M56.55,152.82l-16.013,9.246a5.933,5.933,0,0,0-2.47,4.718v28.96l8.273-7.072,7.231,3.193,2.978-1.72a5.937,5.937,0,0,0,2.47-4.718V154.687C59.02,152.876,57.909,152.036,56.55,152.82Z" transform="translate(-38.068 -152.526)"/><path class="x" d="M38.74,192.917l11.6,6.647,6.7-12.661-3.606-1.594L40.4,192.834A1.54,1.54,0,0,1,38.74,192.917Z" transform="translate(-37.934 -145.97)"/><path class="x" d="M38.068,189.72V191.5a2.323,2.323,0,0,0,.718,1.9l.089.05a1.54,1.54,0,0,0,1.663-.083l13.034-7.525-7.231-3.193Z" transform="translate(-38.068 -146.502)"/></g><path class="h" d="M64.951,155.193l-11.238-6.469-1.136.827,10.981,6.234Z" transform="translate(-35.166 -148.452)"/><path class="u" d="M55.79,152.624l11.787,6.742L60.8,169.785l-11.387-7.4Z" transform="translate(-35.8 -147.672)"/><path class="r" d="M66.18,195.652,50.168,204.9c-1.358.784-2.47-.056-2.47-1.867V172.29a5.937,5.937,0,0,1,2.47-4.718l16.013-9.245c1.358-.785,2.47.055,2.47,1.866v30.741A5.933,5.933,0,0,1,66.18,195.652Z" transform="translate(-36.142 -146.59)"/><path class="r" d="M66.063,159.673l-1.82-4.774a1.274,1.274,0,0,0-2.032-.616L59.979,155.6l-.664,7.97Z" transform="translate(-33.818 -147.395)"/><path class="r" d="M47.757,171.367c0-2.194,1.528-6.709,1.528-6.709a6.93,6.93,0,0,1,2.831-4.134l3.35-1.908.616,7.234S47.757,173.863,47.757,171.367Z" transform="translate(-36.13 -146.474)"/><path class="h" d="M56.514,154.16l-1.822-4.775a1.274,1.274,0,0,0-2.03-.616l-2.233,1.315-.662,7.97Z" transform="translate(-35.728 -148.498)"/><path class="u" d="M38.1,166.131c0-2.194,1.662-6.986,1.662-6.986a6.924,6.924,0,0,1,2.83-4.134l3.35-1.908,3.751,6.616S38.1,168.627,38.1,166.131Z" transform="translate(-38.062 -147.576)"/><path class="i" d="M61.778,156.655l-11.46-6.616,2.233-1.315,11.46,6.616Z" transform="translate(-35.618 -148.452)"/><path class="h" d="M50.4,149.82l-.5,6.015L61.357,162.5l.5-6.064Z" transform="translate(-35.701 -148.233)"/><path class="i" d="M56.649,159.719,45.189,153.1l-3.35,1.908,11.46,6.616Z" transform="translate(-37.314 -147.576)"/><path class="h" d="M49.624,171.015l-11.556-6.608v30.741l11.556,6.608Z" transform="translate(-38.068 -145.316)"/><path class="x" d="M56.721,157.308l-2.871,1.653-4.865-2.809,5.545-3.212Z" transform="translate(-35.885 -147.609)"/><path class="x" d="M53.1,154.474a3.4,3.4,0,0,0,1.754,2.929c.937.378,1.67-.323,1.638-1.565a3.4,3.4,0,0,0-1.753-2.929C53.8,152.532,53.068,153.232,53.1,154.474Z" transform="translate(-35.062 -147.636)"/><g transform="translate(14.704 19.626)"><path class="x" d="M64.47,164.863c-.492-.094-1.128.5-1.412,1.318L56.9,183.9l2.824-2.635,5.128-14.744C65.132,165.7,64.961,164.956,64.47,164.863Z" transform="translate(-49.006 -164.853)"/><path class="x" d="M50.892,172.076c.494-.659,1.128-.794,1.409-.3l6.084,10.694-2.818.6-5.062-8.9A2.19,2.19,0,0,1,50.892,172.076Z" transform="translate(-50.311 -163.528)"/><path class="x" d="M64.4,186.79c-.494.66-1.128.794-1.41.3l-6.083-10.7,2.818-.6,5.062,8.9A2.188,2.188,0,0,1,64.4,186.79Z" transform="translate(-49.003 -162.664)"/><path class="x" d="M50.836,195.246c.492.094,1.128-.5,1.412-1.318l6.161-17.719-2.822,2.635-5.128,14.744C50.175,194.407,50.344,195.152,50.836,195.246Z" transform="translate(-50.321 -162.582)"/><path class="x" d="M60.728,181.01l-5.91,3.391c-.661.379-1.2-.031-1.2-.912l.012-4.135a2.887,2.887,0,0,1,1.207-2.292l5.91-3.391c.662-.379,1.2.031,1.2.912l-.011,4.135A2.886,2.886,0,0,1,60.728,181.01Z" transform="translate(-49.661 -163.118)"/><path class="r" d="M59.733,179.907l-4.327,2.483c-.414.238-.752-.019-.751-.571l.008-2.809a1.8,1.8,0,0,1,.756-1.435l4.327-2.483c.414-.238.751.019.75.571l-.007,2.809A1.811,1.811,0,0,1,59.733,179.907Z" transform="translate(-49.454 -162.823)"/></g><path class="x" d="M61.645,168.283l-7.878,4.548v-1.358l7.878-4.548Z" transform="translate(-34.928 -144.812)"/><path class="x" d="M61.645,187.438l-7.878,4.548v-1.358l7.878-4.548Z" transform="translate(-34.928 -140.981)"/><path class="x" d="M61.645,185.166l-7.878,4.548v-1.358l7.878-4.548Z" transform="translate(-34.928 -141.435)"/><path class="x" d="M61.645,165.822l-7.878,4.548v-1.358l7.878-4.548Z" transform="translate(-34.928 -145.304)"/><path class="c" d="M47.111,186.3l-7.287-4.207v-13.3L47.111,173Z" transform="translate(-37.717 -144.439)"/><path class="d" d="M44.076,182.058l-3.123-1.8v-5.7l3.123,1.8Z" transform="translate(-37.491 -143.286)"/><path class="b" d="M45.914,174.182l-5.2-3.022v-.981l5.2,3.022Z" transform="translate(-37.538 -144.161)"/><path class="b" d="M45.914,175.864l-5.2-3.022v-.981l5.2,3.022Z" transform="translate(-37.538 -143.825)"/><g transform="translate(2.366 11.537)"><path class="f" d="M47.7,160.94a3.378,3.378,0,0,1-2.014,4.2,3.113,3.113,0,0,1-4.05-1.979,3.375,3.375,0,0,1,2.014-4.2A3.114,3.114,0,0,1,47.7,160.94Z" transform="translate(-39.755 -157.98)"/><path class="f" d="M42.006,164.407l1.1.639,3.362-5.633-1.335-.8Z" transform="translate(-39.647 -158.011)"/><path class="v" d="M46.948,160.5a3.375,3.375,0,0,1-2.012,4.2,3.113,3.113,0,0,1-4.051-1.978,3.378,3.378,0,0,1,2.014-4.2A3.113,3.113,0,0,1,46.948,160.5Z" transform="translate(-39.904 -158.068)"/><path class="e" d="M46.3,160.521a2.8,2.8,0,0,1-1.673,3.492,2.584,2.584,0,0,1-3.364-1.643,2.8,2.8,0,0,1,1.673-3.493A2.586,2.586,0,0,1,46.3,160.521Z" transform="translate(-39.823 -157.991)"/><path class="e" d="M41.005,163.085l1.678.909,2.576-4.783-1.58-.883Z" transform="translate(-39.847 -158.068)"/><path class="c" d="M45.216,159.917a2.8,2.8,0,0,1-1.673,3.493,2.586,2.586,0,0,1-3.364-1.644,2.8,2.8,0,0,1,1.673-3.492A2.584,2.584,0,0,1,45.216,159.917Z" transform="translate(-40.04 -158.112)"/><g transform="translate(0.583 0.601)"><path class="y" d="M40.864,161.589a2.191,2.191,0,0,1,1.306-2.726,2,2,0,0,1,1.516.052,2,2,0,0,0-1.746-.178,2.189,2.189,0,0,0-1.306,2.726,2.033,2.033,0,0,0,1.111,1.231A2.04,2.04,0,0,1,40.864,161.589Z" transform="translate(-40.526 -158.613)"/><path class="b" d="M43.222,162.725A2.189,2.189,0,0,0,44.528,160a2.03,2.03,0,0,0-.881-1.105,2,2,0,0,0-1.516-.052,2.191,2.191,0,0,0-1.306,2.726,2.04,2.04,0,0,0,.881,1.105A2,2,0,0,0,43.222,162.725Z" transform="translate(-40.487 -158.592)"/></g></g></g><g transform="translate(58.482 181.81)"><path class="y" d="M75.222,157.074v6.155a2.7,2.7,0,0,1-1.122,2.143l-6.85,3.955c-.617.355-1.122-.026-1.122-.848V162.2a8.742,8.742,0,0,0-2.708,5.923L57,171.834a4.6,4.6,0,0,0-1.92,3.673v31.019a3.361,3.361,0,0,0,5.042,2.911l14.551-8.4a5.8,5.8,0,0,0,2.905-5.026c0-8.189,0-28.567,0-28.582v-7.486C77.581,158.024,76.6,156.945,75.222,157.074Z" transform="translate(-55.079 -157.054)"/><g transform="translate(0.001 11.078)"><path class="j" d="M57,169.456a4.608,4.608,0,0,0-1.92,3.673V179.8l8.422,4.015,5.956-7.832-11.712-6.955Z" transform="translate(-55.08 -165.74)"/><path class="b" d="M62.977,166.288,57.3,169.572l11.712,6.955,3.848-4.792Z" transform="translate(-54.636 -166.288)"/></g><path class="y" d="M57,201.437l7.95,4.694v-3.4l-9.468-5.152Z" transform="translate(-55 -148.951)"/><path class="b" d="M82.422,168.973l-9.5-5.5-8.893,5.1,9.5,5.5Z" transform="translate(-53.289 -155.772)"/><g transform="translate(7.957)"><path class="y" d="M72.7,166.019,64.74,161.34l-2.709,5.937L70.9,172.4Z" transform="translate(-61.646 -156.199)"/><path class="y" d="M72.875,157.178l8.284,4.854-.494,8.059-9.075-5.242,1.694-3.128Z" transform="translate(-59.734 -157.032)"/><path class="j" d="M71.865,157.075l7.956,4.68,1.283.3s-6.182-3.653-8.232-4.854A1.872,1.872,0,0,0,71.865,157.075Z" transform="translate(-59.679 -157.056)"/><path class="a" d="M81.852,160.974l0,6.154a2.7,2.7,0,0,1-1.122,2.144l-6.85,3.954c-.617.356-1.122-.025-1.122-.848V166.1a8.734,8.734,0,0,0-2.708,5.922l-6.421,3.715a4.609,4.609,0,0,0-1.921,3.673v31.019a3.363,3.363,0,0,0,5.044,2.912l14.551-8.4a5.8,5.8,0,0,0,2.905-5.026c0-8.19,0-28.567,0-28.582v-7.486C84.213,161.924,83.23,160.844,81.852,160.974Z" transform="translate(-61.71 -156.274)"/></g><path class="d" d="M80.574,196.685V171.656l-1.687.913L66,192.245v12.607c0,1.747,1.063,2.551,2.374,1.794l9.823-5.426A5.687,5.687,0,0,0,80.574,196.685Z" transform="translate(-52.895 -154.136)"/><path class="c" d="M77.506,172.693l-11.729,6.66v11.7Z" transform="translate(-52.94 -153.928)"/><path class="b" d="M63.037,179.017l-7.957-4.734v27.639l7.957,4.734Z" transform="translate(-55.08 -153.61)"/><path class="j" d="M64.381,161.34a2.529,2.529,0,0,0-.3.278c-.124.134-.26.3-.26.3l7.949,4.69.569-.59Z" transform="translate(-53.331 -156.199)"/><path class="a" d="M76.9,163.06l-5.485,3.183L67.824,164.2l7.471-4.34Z" transform="translate(-52.531 -156.495)"/><path class="a" d="M73.679,160.983a2.492,2.492,0,0,0,1.285,2.147c.686.276,1.223-.238,1.2-1.146a2.5,2.5,0,0,0-1.285-2.147C74.193,159.561,73.655,160.074,73.679,160.983Z" transform="translate(-51.36 -156.515)"/><path class="c" d="M72.8,182s4.811,8.042,0,10.912S72.8,182,72.8,182Z" transform="translate(-51.963 -152.068)"/><path class="c" d="M78.824,192.765l-11.57,6.68v-1.694l11.57-6.68Z" transform="translate(-52.645 -150.253)"/><g transform="translate(6.219 9.748)"><path class="c" d="M61.957,166.636v4.721a5.245,5.245,0,0,0,1.069.113v-4.834Z" transform="translate(-59.923 -164.888)"/><path class="c" d="M63.134,166.636v4.814a5.088,5.088,0,0,0,.9-.126v-4.688Z" transform="translate(-59.688 -164.888)"/><path class="c" d="M60.924,166.636v4.243a3.553,3.553,0,0,0,.9.391v-4.634Z" transform="translate(-60.13 -164.888)"/><path class="c" d="M64.167,166.636v4.583a3.177,3.177,0,0,0,.882-.443v-4.14Z" transform="translate(-59.481 -164.888)"/><path class="c" d="M65.488,166.636h-.3v3.826a1.161,1.161,0,0,0,.3-.739Z" transform="translate(-59.277 -164.888)"/><path class="c" d="M60.262,166.636v3.086a1.249,1.249,0,0,0,.451.9v-3.982Z" transform="translate(-60.262 -164.888)"/><path class="e" d="M60.638,166.636v3.982a2.365,2.365,0,0,0,.343.262v-4.243Z" transform="translate(-60.187 -164.888)"/><path class="e" d="M61.671,166.636v4.634c.112.031.224.061.343.086v-4.721Z" transform="translate(-59.98 -164.888)"/><path class="e" d="M62.848,166.636v4.834h0c.116,0,.228-.012.341-.019v-4.814Z" transform="translate(-59.745 -164.888)"/><path class="e" d="M63.881,166.636v4.688c.12-.03.232-.067.343-.106v-4.583Z" transform="translate(-59.538 -164.888)"/><path class="e" d="M64.9,166.636v4.14a1.934,1.934,0,0,0,.343-.314v-3.826Z" transform="translate(-59.334 -164.888)"/><path class="f" d="M66.473,166.927c0,.965-1.391,1.747-3.106,1.747s-3.106-.782-3.106-1.747,1.391-1.748,3.106-1.748S66.473,165.961,66.473,166.927Z" transform="translate(-60.262 -165.179)"/><path class="c" d="M65.707,166.863c0,.75-1.081,1.358-2.416,1.358s-2.414-.608-2.414-1.358,1.081-1.36,2.414-1.36S65.707,166.111,65.707,166.863Z" transform="translate(-60.139 -165.114)"/></g></g><g transform="translate(209.613 319.745)"><g transform="translate(0 14.019)"><g transform="translate(24.031 97.226)"><path class="e" d="M203.161,368.644a7.517,7.517,0,0,0,3.139,6c1.733,1,3.138-.062,3.138-2.372a7.519,7.519,0,0,0-3.138-6C204.566,365.271,203.161,366.333,203.161,368.644Z" transform="translate(-200.624 -364.467)"/><path class="e" d="M202.172,367.43l2.422-1.421,3.949,8.779-2.522,1.454Z" transform="translate(-200.822 -364.444)"/><path class="c" d="M201.047,369.865a7.517,7.517,0,0,0,3.139,6c1.733,1,3.138-.061,3.138-2.372a7.519,7.519,0,0,0-3.138-6C202.452,366.492,201.047,367.554,201.047,369.865Z" transform="translate(-201.047 -364.223)"/><path class="d" d="M202.172,370.388a3.78,3.78,0,0,0,1.58,3.019c.872.5,1.58-.03,1.58-1.194a3.787,3.787,0,0,0-1.58-3.02C202.879,368.69,202.172,369.224,202.172,370.388Z" transform="translate(-200.822 -363.845)"/><path class="a" d="M207.263,366.64v5.167a20.273,20.273,0,0,1-2.642,1.1c-1.42.467-1.992-.832-1.543-2.568a53.039,53.039,0,0,1,1.73-5.122Z" transform="translate(-200.671 -364.603)"/><path class="b" d="M206.54,366.644l2.557-1.452v5.164l-2.557,1.455Z" transform="translate(-199.948 -364.607)"/><path class="j" d="M208.939,364.727l-1.989,1.148-1.989-1.17-.465.611,2.455,1.425,2.557-1.451Z" transform="translate(-200.357 -364.705)"/></g><g transform="translate(77.127 66.678)"><path class="e" d="M247.406,343.188a7.513,7.513,0,0,0,3.139,6c1.733,1,3.138-.061,3.138-2.372a7.517,7.517,0,0,0-3.138-6C248.811,339.815,247.406,340.877,247.406,343.188Z" transform="translate(-244.87 -339.011)"/><path class="e" d="M246.417,341.974l2.422-1.421,3.949,8.779-2.522,1.454Z" transform="translate(-245.068 -338.988)"/><path class="c" d="M245.293,344.409a7.517,7.517,0,0,0,3.138,6c1.734,1,3.139-.061,3.139-2.372a7.515,7.515,0,0,0-3.139-6C246.7,341.036,245.293,342.1,245.293,344.409Z" transform="translate(-245.293 -338.766)"/><path class="d" d="M246.417,344.932a3.782,3.782,0,0,0,1.58,3.019c.872.5,1.58-.031,1.58-1.194a3.787,3.787,0,0,0-1.58-3.02C247.124,343.233,246.417,343.768,246.417,344.932Z" transform="translate(-245.068 -338.389)"/><path class="a" d="M251.508,341.184v5.167a20.471,20.471,0,0,1-2.642,1.1c-1.42.467-1.992-.832-1.542-2.568a52.663,52.663,0,0,1,1.73-5.122Z" transform="translate(-244.917 -339.147)"/><path class="b" d="M250.785,341.188l2.557-1.451V344.9l-2.557,1.455Z" transform="translate(-244.194 -339.151)"/><path class="j" d="M253.184,339.271l-1.989,1.148-1.989-1.17-.465.611,2.455,1.426,2.557-1.451Z" transform="translate(-244.604 -339.249)"/></g><g transform="translate(0 83.145)"><path class="e" d="M183.135,356.911a7.517,7.517,0,0,0,3.138,6c1.733,1,3.138-.061,3.138-2.372a7.519,7.519,0,0,0-3.138-6C184.54,353.537,183.135,354.6,183.135,356.911Z" transform="translate(-180.598 -352.733)"/><path class="e" d="M182.145,355.7l2.422-1.421,3.949,8.779-2.522,1.454Z" transform="translate(-180.796 -352.71)"/><path class="c" d="M181.021,358.132a7.517,7.517,0,0,0,3.138,6c1.734,1,3.139-.061,3.139-2.372a7.517,7.517,0,0,0-3.139-6C182.426,354.759,181.021,355.821,181.021,358.132Z" transform="translate(-181.021 -352.489)"/><path class="d" d="M182.145,358.654a3.787,3.787,0,0,0,1.58,3.02c.872.5,1.58-.031,1.58-1.2a3.785,3.785,0,0,0-1.58-3.019C182.853,356.956,182.145,357.491,182.145,358.654Z" transform="translate(-180.796 -352.111)"/><path class="a" d="M187.235,354.907v5.167a20.474,20.474,0,0,1-2.642,1.1c-1.418.466-1.992-.833-1.542-2.568a52.628,52.628,0,0,1,1.73-5.123Z" transform="translate(-180.645 -352.869)"/><path class="b" d="M186.513,354.91l2.557-1.452v5.164l-2.557,1.454Z" transform="translate(-179.922 -352.874)"/><path class="j" d="M188.912,352.993l-1.989,1.148-1.989-1.17-.465.611,2.455,1.426,2.557-1.452Z" transform="translate(-180.332 -352.971)"/></g><g transform="translate(4.725)"><path class="l" d="M184.958,309.576l26.551,15.31v52.3l-26.551-15.268Z" transform="translate(-184.958 -278.506)"/><path class="m" d="M261.163,296.349l-54.078,31.182v52.3l54.078-31.1Z" transform="translate(-180.533 -281.151)"/><path class="c" d="M221.267,309.767l23.2-13.375v2.084l-23.2,13.339Z" transform="translate(-177.697 -281.142)"/><path class="d" d="M208.141,328.584l51.6-29.614v6.152l-51.6,29.538Z" transform="translate(-180.322 -280.627)"/><path class="l" d="M207.084,335.875l54.078-31.181v1.638l-54.078,31.1Z" transform="translate(-180.533 -279.482)"/><path class="c" d="M221.267,319.509l23.2-13.375v2.084l-23.2,13.339Z" transform="translate(-177.697 -279.194)"/><path class="d" d="M208.141,337.789l51.6-29.614v6.152l-51.6,29.538Z" transform="translate(-180.322 -278.786)"/><path class="l" d="M207.084,345.08,261.163,313.9v1.638l-54.078,31.1Z" transform="translate(-180.533 -277.641)"/><path class="c" d="M221.267,328.714l23.2-13.375v2.084l-23.2,13.339Z" transform="translate(-177.697 -277.353)"/><path class="d" d="M208.141,360.922l51.6-29.614v7.927l-51.6,29.538Z" transform="translate(-180.322 -274.159)"/><path class="c" d="M221.267,351.846l23.2-13.375v2.084l-23.2,13.339Z" transform="translate(-177.697 -272.726)"/><path class="d" d="M208.141,347.2l51.6-29.614V327.97l-51.6,29.538Z" transform="translate(-180.322 -276.904)"/><path class="c" d="M221.267,338.123l23.2-13.375v2.085l-23.2,13.339Z" transform="translate(-177.697 -275.471)"/><path class="l" d="M207.084,358.722l54.078-31.181v1.639l-54.078,31.1Z" transform="translate(-180.533 -274.912)"/><path class="n" d="M265.588,298.882,211.51,330.064l-26.551-15.31,54.118-31.071Z" transform="translate(-184.958 -283.684)"/></g><path class="b" d="M207.084,371.212l55-31.685v1.65l-55,31.685Z" transform="translate(-175.808 -272.515)"/><path class="j" d="M207.084,370.264l54.078-31.18.921.531-55,31.711Z" transform="translate(-175.808 -272.604)"/><path class="a" d="M211.663,368.569l-27.472-15.822v1.65l27.472,15.822Z" transform="translate(-180.387 -269.871)"/><path class="b" d="M186.089,312.274,209.3,325.64v2.7l-23.208-13.366Z" transform="translate(-180.007 -277.966)"/><path class="j" d="M211.663,367.621,185.112,352.3l-.92.531,27.472,15.848Z" transform="translate(-180.387 -269.96)"/><g transform="translate(7.466 35.953)"><path class="c" d="M203.9,323.852a1.093,1.093,0,0,0,.455.871c.252.145.456-.01.456-.344a1.091,1.091,0,0,0-.456-.871C204.106,323.363,203.9,323.518,203.9,323.852Z" transform="translate(-183.911 -311.683)"/><path class="c" d="M187.243,314.043a1.091,1.091,0,0,0,.456.871c.252.145.456-.008.456-.344a1.091,1.091,0,0,0-.456-.871C187.447,313.554,187.243,313.709,187.243,314.043Z" transform="translate(-187.243 -313.645)"/></g></g><g transform="translate(20.083 31.479)"><path class="e" d="M214.259,304.736c-.04-.023-4-2.4-8.77-4.783a3.784,3.784,0,0,0-3.289-.252,5.468,5.468,0,0,0-2.4,2.153c-.56.32-1.474.846-2.046,1.217.586-1.306,1.871-3.594,3.977-4.476a4.981,4.981,0,0,1,4.291.286c4.814,2.4,8.814,4.8,8.854,4.83Z" transform="translate(-197.757 -298.234)"/></g><g transform="translate(26.845)"><path class="e" d="M226.9,292.6l-22.6,13.046c-.5.292-.916-.02-.916-.691V286.906a2.2,2.2,0,0,1,.916-1.75l22.6-13.046c.5-.29.916.022.916.692v18.048A2.2,2.2,0,0,1,226.9,292.6Z" transform="translate(-203.392 -272.001)"/><path class="e" d="M203.674,300.2l1.2.679-.1-1.381Z" transform="translate(-203.336 -266.501)"/><path class="e" d="M224.775,272.747l-1.224-.7-.434,2.4Z" transform="translate(-199.447 -271.992)"/><path class="c" d="M227.936,293.186l-22.6,13.046c-.5.29-.916-.022-.916-.692V287.492a2.2,2.2,0,0,1,.916-1.748l22.6-13.046c.5-.29.916.02.916.692v18.047A2.2,2.2,0,0,1,227.936,293.186Z" transform="translate(-203.186 -271.884)"/><path class="e" d="M227.928,290.949l-22.844,13.189V286.664l22.844-13.19Z" transform="translate(-203.054 -271.707)"/><path class="b" d="M216.344,294.074l-2.909,1.679c-.15.088-.274-.006-.274-.206h0a.658.658,0,0,1,.274-.523l2.909-1.679c.15-.088.274.006.274.206h0A.661.661,0,0,1,216.344,294.074Z" transform="translate(-201.438 -267.739)"/><path class="b" d="M226.531,291.271,206.045,303.1V287.172l20.486-11.827Z" transform="translate(-202.861 -271.333)"/><g transform="translate(2.135 21.876)"><path class="e" d="M246.524,302.654l-21.825,12.6a2.543,2.543,0,0,1-2.282-.095l-16.69-9.635c-.673-.389-.746-.982-.164-1.319l21.825-12.6a2.55,2.55,0,0,1,2.282.095l16.69,9.636C247.033,301.725,247.106,302.318,246.524,302.654Z" transform="translate(-205.171 -290.001)"/><rect class="e" width="1.498" height="1.498" transform="translate(0.003 13.319)"/><rect class="e" width="1.498" height="1.499" transform="translate(40.248 10.654)"/><path class="c" d="M246.524,301.506l-21.825,12.6a2.546,2.546,0,0,1-2.282-.095l-16.69-9.635c-.673-.389-.746-.983-.164-1.319l21.825-12.6a2.546,2.546,0,0,1,2.282.095l16.69,9.636C247.033,300.577,247.106,301.17,246.524,301.506Z" transform="translate(-205.171 -290.231)"/><path class="e" d="M239.337,297.436l-21.628,12.487-10.975-6.336L228.363,291.1Z" transform="translate(-204.858 -290.057)"/><path class="e" d="M234.85,302.948l-7.653,4.419L223.1,305l7.653-4.419Z" transform="translate(-201.584 -288.16)"/><path class="d" d="M207.523,301.63l1.51-.872,1.086.627-1.51.871Z" transform="translate(-204.7 -288.125)"/><path class="d" d="M208.838,302.389l1.51-.871,1.086.627-1.509.872Z" transform="translate(-204.437 -287.974)"/><path class="d" d="M210.153,303.2l2.038-1.176,1.086.627-2.038,1.177Z" transform="translate(-204.174 -287.873)"/><path class="d" d="M226.419,293.707l.985-.568,2.664,1.538-.984.569Z" transform="translate(-200.921 -289.65)"/><path class="d" d="M211.468,303.958l2.038-1.176,1.086.627-2.038,1.177Z" transform="translate(-203.911 -287.721)"/><path class="d" d="M212.783,304.781l2.694-1.555,1.086.627-2.694,1.556Z" transform="translate(-203.648 -287.632)"/><path class="d" d="M226.544,296.964l4.022-2.322,1.086.627-4.022,2.322Z" transform="translate(-200.896 -289.349)"/><path class="d" d="M214.1,305.426l1.51-.872,1.086.627-1.51.872Z" transform="translate(-203.385 -287.366)"/><path class="d" d="M209.1,300.722l1.51-.872,1.086.627-1.51.872Z" transform="translate(-204.386 -288.307)"/><path class="d" d="M210.411,301.481l1.51-.872,1.086.627-1.51.871Z" transform="translate(-204.123 -288.155)"/><path class="d" d="M210.686,299.8l1.51-.872,1.086.627-1.51.872Z" transform="translate(-204.068 -288.491)"/><path class="d" d="M212,300.563l1.509-.872,1.086.627-1.509.872Z" transform="translate(-203.805 -288.339)"/><path class="d" d="M212.259,298.9l1.51-.872,1.086.627-1.509.871Z" transform="translate(-203.753 -288.672)"/><path class="d" d="M213.574,299.655l1.509-.872,1.086.627-1.51.871Z" transform="translate(-203.49 -288.52)"/><path class="d" d="M213.844,297.981l1.51-.872,1.086.627-1.51.872Z" transform="translate(-203.436 -288.855)"/><path class="d" d="M215.159,298.74l1.51-.871,1.086.627-1.51.871Z" transform="translate(-203.173 -288.703)"/><path class="d" d="M215.417,297.072l1.51-.872,1.086.627-1.51.872Z" transform="translate(-203.121 -289.037)"/><path class="d" d="M216.732,297.831l1.51-.871,1.086.627-1.51.871Z" transform="translate(-202.858 -288.885)"/><path class="d" d="M217.006,296.155l1.51-.871,1.086.627-1.51.872Z" transform="translate(-202.804 -289.22)"/><path class="d" d="M218.321,296.914l1.51-.872,1.086.627-1.51.872Z" transform="translate(-202.541 -289.069)"/><path class="d" d="M212.207,301.962l1.509-.872,1.086.627-1.51.872Z" transform="translate(-203.763 -288.059)"/><path class="d" d="M213.522,302.721l1.51-.871,1.086.627-1.51.871Z" transform="translate(-203.5 -287.907)"/><path class="d" d="M213.8,301.045l1.51-.871,1.086.627-1.509.872Z" transform="translate(-203.445 -288.242)"/><path class="d" d="M215.112,301.8l1.51-.872,1.086.627-1.509.872Z" transform="translate(-203.183 -288.091)"/><path class="d" d="M215.37,300.136l1.51-.871,1.086.627-1.51.872Z" transform="translate(-203.131 -288.424)"/><path class="d" d="M216.685,300.9l1.51-.872,1.086.627-1.51.872Z" transform="translate(-202.868 -288.272)"/><path class="d" d="M216.955,299.221l1.509-.872,1.086.627-1.51.872Z" transform="translate(-202.814 -288.607)"/><path class="d" d="M218.27,299.981l1.509-.872,1.086.627-1.509.872Z" transform="translate(-202.551 -288.455)"/><path class="d" d="M218.528,298.313l1.51-.872,1.086.627-1.51.872Z" transform="translate(-202.499 -288.789)"/><path class="d" d="M219.843,299.073l1.51-.872,1.086.627-1.509.872Z" transform="translate(-202.236 -288.637)"/><path class="d" d="M220.117,297.4l1.51-.871,1.086.627-1.51.872Z" transform="translate(-202.181 -288.972)"/><path class="d" d="M221.432,298.155l1.51-.872,1.086.627-1.51.872Z" transform="translate(-201.918 -288.821)"/><path class="d" d="M221.7,296.484l1.509-.871,1.086.627-1.51.871Z" transform="translate(-201.866 -289.155)"/><path class="d" d="M223.011,297.243l1.51-.871,1.086.627-1.51.872Z" transform="translate(-201.603 -289.003)"/><path class="d" d="M215.463,303.12l1.509-.872,1.086.627-1.51.872Z" transform="translate(-203.112 -287.828)"/><path class="d" d="M217.052,302.2l1.509-.871,1.086.627-1.51.872Z" transform="translate(-202.794 -288.011)"/><path class="d" d="M218.625,301.294l1.51-.872,1.086.627-1.51.872Z" transform="translate(-202.48 -288.193)"/><path class="d" d="M220.21,300.379l1.51-.872,1.086.627-1.51.871Z" transform="translate(-202.163 -288.376)"/><path class="d" d="M221.783,299.471l1.51-.872,1.086.627-1.509.872Z" transform="translate(-201.848 -288.557)"/><path class="d" d="M223.373,298.553l1.51-.871,1.085.627-1.509.872Z" transform="translate(-201.53 -288.741)"/><path class="d" d="M224.951,297.642l1.51-.872,1.086.627-1.51.872Z" transform="translate(-201.215 -288.923)"/><path class="d" d="M223.285,295.567l1.51-.872,1.085.627-1.51.872Z" transform="translate(-201.548 -289.338)"/><path class="d" d="M224.6,296.326l1.509-.872,1.086.627-1.51.871Z" transform="translate(-201.285 -289.186)"/><path class="d" d="M224.858,294.659l1.51-.872,1.086.627-1.51.872Z" transform="translate(-201.233 -289.52)"/><path class="d" d="M226.173,295.418l1.509-.872,1.086.627-1.51.871Z" transform="translate(-200.97 -289.368)"/><path class="d" d="M218.579,295.247l1.51-.872,1.086.627-1.51.871Z" transform="translate(-202.489 -289.402)"/><path class="d" d="M219.894,296.006l1.51-.872,1.086.627-1.51.872Z" transform="translate(-202.226 -289.25)"/><path class="d" d="M220.189,294.317l1.51-.872,1.086.627-1.51.872Z" transform="translate(-202.167 -289.588)"/><path class="d" d="M221.5,295.077l1.51-.872,1.085.627-1.51.872Z" transform="translate(-201.904 -289.436)"/><path class="d" d="M221.762,293.409l1.509-.872,1.086.627-1.51.872Z" transform="translate(-201.852 -289.77)"/><path class="d" d="M223.077,294.168l1.51-.871,1.086.627-1.509.871Z" transform="translate(-201.589 -289.618)"/><path class="d" d="M223.351,292.491l1.51-.871,1.086.627-1.51.872Z" transform="translate(-201.535 -289.953)"/><path class="d" d="M224.666,293.251l1.51-.871,1.086.627-1.51.872Z" transform="translate(-201.272 -289.801)"/><path class="d" d="M215.671,304.518l1.51-.872,1.086.627-1.51.871Z" transform="translate(-203.071 -287.548)"/><path class="d" d="M217.261,303.6l1.51-.871,1.086.627-1.51.872Z" transform="translate(-202.753 -287.731)"/><path class="d" d="M225.535,298.841l1.51-.872,1.086.627-1.51.872Z" transform="translate(-201.098 -288.683)"/><path class="d" d="M227.108,297.933l1.51-.872,1.086.627-1.51.872Z" transform="translate(-200.783 -288.865)"/><path class="d" d="M228.7,297.145l2.95-1.647,1.086.627-2.949,1.647Z" transform="translate(-200.465 -289.178)"/><path class="d" d="M218.85,303.27l7.621-4.4,1.086.627-7.621,4.4Z" transform="translate(-202.435 -288.503)"/></g><path class="d" d="M208.541,304.7l-2.147-1.239v-.691l2.147,1.24Z" transform="translate(-202.792 -265.848)"/><path class="d" d="M210.611,305.893l-2.147-1.24v-.691l2.147,1.239Z" transform="translate(-202.378 -265.609)"/><g transform="translate(4.838 8.929)"><path class="h" d="M225.251,279.442l-17.828,10.293v.7l17.828-10.293Z" transform="translate(-207.423 -279.442)"/></g><g transform="translate(4.838 12.661)"><path class="h" d="M225.251,282.552l-17.828,10.293v.7l17.828-10.293Z" transform="translate(-207.423 -282.552)"/></g><g transform="translate(4.838 16.513)"><path class="h" d="M225.251,285.762l-17.828,10.293v.7l17.828-10.293Z" transform="translate(-207.423 -285.762)"/></g><path class="c" d="M208.09,298.282l-.626.362V286.124l.626-.361Z" transform="translate(-202.578 -269.249)"/></g></g><g transform="translate(255.821 327.957)"><path class="c" d="M231.258,354.851c1.244-.779,7.542,2.891,7.542,2.891l8.694,2.917-.666,6.548a5.607,5.607,0,0,1-7.375.42c-2.555-1.721-7.037-4.4-8.461-7.326S230.014,355.629,231.258,354.851Z" transform="translate(-217.413 -263.665)"/><path class="e" d="M241.625,336.355c1.637-5.386,2.947-7.564,6.42-8.956,2.048-.821,6.8-.168,11.7.894.623,4.412.028,9.394-2.345,13.177-1.664-.9-3.312-1.8-4.861-2.646a29.459,29.459,0,0,0-1.672,5.9,115.127,115.127,0,0,0-1.741,12.131c-.168,3.487-.492,8.647-.492,8.647a8.539,8.539,0,0,1-8.162,1.258c-4.469-1.748-3.514-5.738-3.514-5.738S240.449,340.229,241.625,336.355Z" transform="translate(-216.059 -269.207)"/><path class="q" d="M274.995,305.417s3.722,6.754,3.264,11.743-8.821,9.391-8.821,9.391l-5.044-16.045Z" transform="translate(-210.555 -273.53)"/><g transform="translate(24.065 69.376)"><path class="c" d="M258.835,346.747a2.9,2.9,0,0,1,2.891,2.891v26.67a2.89,2.89,0,0,1-5.78,0v-26.67A2.9,2.9,0,0,1,258.835,346.747Z" transform="translate(-236.309 -334.64)"/><g transform="translate(4.241)"><path class="b" d="M261.4,342.116c10.1,0,18.286,4.354,18.286,9.726s-8.186,9.726-18.286,9.726-18.284-4.355-18.284-9.726S251.3,342.116,261.4,342.116Z" transform="translate(-243.116 -335.566)"/><rect class="b" width="36.57" height="2.117" transform="translate(0 14.441)"/><path class="j" d="M261.4,340.587c10.1,0,18.286,4.354,18.286,9.726s-8.186,9.726-18.286,9.726-18.284-4.355-18.284-9.726S251.3,340.587,261.4,340.587Z" transform="translate(-243.116 -335.872)"/><path class="z" d="M261.256,340.09c9.622,0,17.422,4.148,17.422,9.266s-7.8,9.268-17.422,9.268-17.42-4.15-17.42-9.268S251.636,340.09,261.256,340.09Z" transform="translate(-242.972 -335.972)"/><path class="z" d="M277.755,342.852l.924,5.953H243.836l.925-5.953Z" transform="translate(-242.972 -335.419)"/><path class="h" d="M261.142,336.658c9.245,0,16.738,3.986,16.738,8.9s-7.493,8.9-16.738,8.9-16.736-3.986-16.736-8.9S251.9,336.658,261.142,336.658Z" transform="translate(-242.858 -336.658)"/><path class="h" d="M261.142,336.658c9.245,0,16.738,3.986,16.738,8.9s-7.493,8.9-16.738,8.9-16.736-3.986-16.736-8.9S251.9,336.658,261.142,336.658Z" transform="translate(-242.858 -336.658)"/></g><g transform="translate(37.702 56.178)"><path class="c" d="M275.073,383.765a5.831,5.831,0,0,1,2.434,4.651c0,1.792-1.09,2.616-2.434,1.84a5.83,5.83,0,0,1-2.434-4.65C272.639,383.813,273.729,382.988,275.073,383.765Z" transform="translate(-270.672 -383.473)"/><path class="c" d="M276.812,390.369l-1.956,1.127-2.985-6.833,1.878-1.1Z" transform="translate(-270.826 -383.455)"/><path class="e" d="M273.434,384.712a5.831,5.831,0,0,1,2.434,4.651c0,1.792-1.09,2.616-2.434,1.84a5.83,5.83,0,0,1-2.434-4.65C271,384.76,272.09,383.935,273.434,384.712Z" transform="translate(-271 -383.283)"/></g><g transform="translate(1.272 31.972)"><path class="c" d="M243.682,363.573l38.454,22.194a2.027,2.027,0,1,1-2.026,3.511l-38.454-22.2a2.026,2.026,0,1,1,2.026-3.51Z" transform="translate(-240.642 -363.301)"/></g><g transform="translate(1.272 31.972)"><path class="c" d="M241.656,385.768l38.454-22.194a2.026,2.026,0,1,1,2.026,3.51l-38.454,22.2a2.027,2.027,0,1,1-2.026-3.511Z" transform="translate(-240.642 -363.301)"/></g><g transform="translate(0 33.966)"><path class="c" d="M243.655,365.255a5.83,5.83,0,0,1,2.434,4.65c0,1.793-1.09,2.617-2.434,1.841a5.832,5.832,0,0,1-2.435-4.651C241.22,365.3,242.311,364.478,243.655,365.255Z" transform="translate(-239.254 -364.962)"/><path class="c" d="M245.394,371.859l-1.956,1.127-2.985-6.833,1.878-1.1Z" transform="translate(-239.408 -364.945)"/><path class="e" d="M242.016,366.2a5.83,5.83,0,0,1,2.434,4.65c0,1.793-1.09,2.616-2.434,1.841a5.827,5.827,0,0,1-2.434-4.651C239.582,366.25,240.67,365.425,242.016,366.2Z" transform="translate(-239.582 -364.773)"/></g><g transform="translate(2.371 56.746)"><path class="c" d="M245.631,384.239a5.829,5.829,0,0,1,2.435,4.65c0,1.793-1.091,2.616-2.435,1.841a5.83,5.83,0,0,1-2.434-4.651C243.2,384.286,244.287,383.462,245.631,384.239Z" transform="translate(-241.23 -383.946)"/><path class="c" d="M247.37,390.843l-1.956,1.127-2.985-6.833,1.878-1.1Z" transform="translate(-241.384 -383.929)"/><path class="e" d="M243.992,385.186a5.828,5.828,0,0,1,2.434,4.65c0,1.793-1.09,2.616-2.434,1.841a5.83,5.83,0,0,1-2.434-4.651C241.558,385.233,242.648,384.409,243.992,385.186Z" transform="translate(-241.558 -383.757)"/></g><g transform="translate(39.238 35.23)"><path class="c" d="M276.354,366.309a5.83,5.83,0,0,1,2.434,4.651c0,1.792-1.09,2.616-2.434,1.84a5.831,5.831,0,0,1-2.435-4.651C273.919,366.357,275.01,365.532,276.354,366.309Z" transform="translate(-271.952 -366.017)"/><path class="c" d="M278.093,372.913l-1.956,1.128-2.985-6.833,1.878-1.1Z" transform="translate(-272.106 -365.999)"/><path class="e" d="M274.715,367.256a5.83,5.83,0,0,1,2.434,4.65c0,1.793-1.09,2.616-2.434,1.841a5.832,5.832,0,0,1-2.435-4.651C272.28,367.3,273.371,366.479,274.715,367.256Z" transform="translate(-272.28 -365.827)"/></g></g><path class="c" d="M223.047,359.762c1.244-.778,7.542,2.891,7.542,2.891l8.694,2.918-.666,6.547a5.608,5.608,0,0,1-7.376.42c-2.554-1.721-7.036-4.4-8.461-7.326S221.8,360.541,223.047,359.762Z" transform="translate(-219.055 -262.682)"/><path class="aa" d="M275.626,313.229l6.121,9.731s-1.858,2.029-7.772-.928a50.1,50.1,0,0,0-10.879-4.265l1.114-5.191Z" transform="translate(-210.814 -272.098)"/><path class="a" d="M270.518,314.778c-1.382-2.576-2.633-4.945-2.633-4.945l-2.34-11.452s3.941-1.526,6.848.973c1.733,1.489,4.37,6.78,6.427,11.2A14.494,14.494,0,0,1,270.518,314.778Z" transform="translate(-210.325 -275.03)"/><path class="q" d="M259.878,282.148c2.468-1.714,7.217-1.178,9.276,3.173,1.14,2.408-.47,8.887-.726,13.436a11.073,11.073,0,0,0,1.024,5.786l-3.146,1.3a9.5,9.5,0,0,1-6.427,0l.1-5.594s-3.388-.5-3.982-1.048c-1.427-1.308-2.183-5.2-1.52-10.22C255.462,281.507,258.969,282.779,259.878,282.148Z" transform="translate(-212.586 -278.365)"/><path class="e" d="M233.414,341.266c1.637-5.386,2.947-7.562,6.42-8.954,5.023-2.014,26.277,4.837,26.277,4.837l15.315.8s.785,6.218-3.607,9.394-14.867,6.312-22.438,2.345c-3.614-1.894-7.57-4.037-11.051-5.946a29.437,29.437,0,0,0-1.672,5.9,115.046,115.046,0,0,0-1.741,12.131c-.168,3.487-.492,8.647-.492,8.647a8.543,8.543,0,0,1-8.162,1.258c-4.47-1.75-3.515-5.74-3.515-5.74S232.237,345.141,233.414,341.266Z" transform="translate(-217.701 -268.225)"/><path class="b" d="M252.113,318.727c-1.858-3.964,2.353-11.159,3.534-13.745s4.962-4.16,4.962-4.16l11.47-1.706s5.017,8.73,5.686,13.938c.467,3.648.1,10.388-.1,19.652-.134,6.262,3.5,10.13.846,12.862-4.026,4.151-13.234,7.038-18.38,5.658-3.078-.824-5.19-4-7.255-6.536-2.269-2.783-3.451-9.481-.526-12.236C252.707,332.469,255.907,326.829,252.113,318.727Z" transform="translate(-213.312 -274.791)"/><path class="t" d="M259.4,299.517s4.584,1.35,7.289-.758c3.827-2.983,4.247,1.214,4.247,1.214a10.042,10.042,0,0,1-4.814,3.27,11.621,11.621,0,0,1-9.235-.73C256.869,300.444,259.4,299.517,259.4,299.517Z" transform="translate(-212.056 -275.076)"/><path class="q" d="M228.625,305.81c1.164-.053.8-1.992,1.3-2.9.61-1.1,1.108-1.188,1.3-.224.463,2.352,1.423,7.417,2.537,8a83,83,0,0,1,12.253,8.144s13.719-14.677,17.234-13.823c1.835.445,2.556,4.33.968,8.321-2.03,5.108-15.823,15.076-15.823,15.076-4.369.9-15.108-10.218-17.336-12.589-1.916-2.039-5.648-3.7-7.52-5.129-2.718-2.078-4.764-4.878-3.732-7.422.583-1.439,2.281-.485,4.192.642C225.557,304.831,227.264,305.87,228.625,305.81Z" transform="translate(-219.528 -274.209)"/><path class="a" d="M251.787,322.287c-4.534-1.386-7.979-5.092-5.936-10.376,3.946-3.788,8.2-8.333,12.337-8.281,2.087.026,3.462,5.824,1.3,10.242C258.143,316.606,254.8,319.738,251.787,322.287Z" transform="translate(-214.384 -273.888)"/><path class="e" d="M256.8,291.433c-.374-1.253-1.231-4.164-1.446-5.336a5.709,5.709,0,0,1,1.538-5.321c1.861-1.937,8.315-2.56,10.649-1.208s7.3,3.817,5.566,11.866c-1.4,6.506-2.761,7.235-4.727,8.762a11.193,11.193,0,0,1-4.741,1.667,5.591,5.591,0,0,1-1.988-3.683c-.1-.776,0-3.128,0-3.128s1.72-3.4.388-4.615c-1.418-1.292-2.87.762-3.2,1.591-1.163,2.91-.592,8.39-.592,8.39a4.97,4.97,0,0,1-3.437.685c-.942-.236-.113-3.886-.113-3.886S256.522,296.3,256.8,291.433Z" transform="translate(-212.561 -278.845)"/><g transform="translate(55.221 36.23)"><path class="z" d="M275.54,313.237l5.216-3.012c5.5-3.173,9.994.227,9.994,7.555v20.933l-25.2,14.551V332.333C265.546,325,270.044,316.41,275.54,313.237Z" transform="translate(-265.546 -309.036)"/><path class="z" d="M284.2,314.733l-.45-5.075,4.27,2.537Z" transform="translate(-261.904 -308.912)"/><path class="z" d="M269.707,349.172l-4.161-2.471,4.921-4.845Z" transform="translate(-265.546 -302.472)"/><path class="h" d="M279.008,315.3l5.215-3.011c5.5-3.174,9.995.226,9.995,7.555v20.932l-25.2,14.552V334.392C269.013,327.063,273.511,318.47,279.008,315.3Z" transform="translate(-264.852 -308.624)"/></g><path class="c" d="M283.345,344.332c-.2-6.894-.024-12.518,0-14.827.03-2.982,3.276-3.121,3.276-.13,0,4.432.44,13.956.372,16.163-.149,4.787,2.814,19.8-16.263,20.339-1.915.053-9.715-.455-11.092-1.358a32.934,32.934,0,0,0,12.816-3.671C284.843,359.706,283.512,350.242,283.345,344.332Z" transform="translate(-211.506 -269.174)"/></g></g></svg>