<svg xmlns="http://www.w3.org/2000/svg" width="494.706" height="448" viewBox="0 0 494.706 448"><defs><style>.a{fill:#407bff;}.b,.f,.g,.i,.o,.s{fill:#fff;}.b{opacity:0.9;}.c{opacity:0.48;}.d{fill:#f5f5f5;}.e{fill:#263238;}.f{opacity:0.8;}.g{opacity:0.5;}.h,.o{opacity:0.7;}.i,.k,.p{opacity:0.2;}.j{fill:#ff887b;}.l{fill:#ff8b7b;}.m{opacity:0.1;}.n{opacity:0.3;}.p{isolation:isolate;}.q{fill:#ff5652;}.r{opacity:0.4;}</style></defs><g transform="translate(-590.725 120.484)"><g transform="translate(600.018 -108.612)"><path class="a" d="M695.128,232.982c-52.7-23.908-89.89-77.717-96.1-135.248S616.779-19.22,659.493-58.256s102.788-57.532,160.375-51.863c46.711,4.6,87.482,33.5,114.465,71.905,9.826,13.987,17.814,29.585,30.486,41.06,24.49,22.174,61.65,24.827,87.549,45.335,28.543,22.6,37.585,64.5,26.515,99.186s-39.395,62.035-72.022,78.189-69.354,22.2-105.683,24.576C884.441,251.229,741.871,254.188,695.128,232.982Z" transform="translate(-598.053 111.122)"/><path class="b" d="M695.128,232.982c-52.7-23.908-89.89-77.717-96.1-135.248S616.779-19.22,659.493-58.256s102.788-57.532,160.375-51.863c46.711,4.6,87.482,33.5,114.465,71.905,9.826,13.987,17.814,29.585,30.486,41.06,24.49,22.174,61.65,24.827,87.549,45.335,28.543,22.6,37.585,64.5,26.515,99.186s-39.395,62.035-72.022,78.189-69.354,22.2-105.683,24.576C884.441,251.229,741.871,254.188,695.128,232.982Z" transform="translate(-598.053 111.122)"/></g><g class="c" transform="translate(590.725 298.796)"><ellipse class="d" cx="245.885" cy="14.36" rx="245.885" ry="14.36" transform="translate(0 0)"/></g><g transform="translate(808.819 -120.484)"><path class="a" d="M913.012,221.133H790.9a22.891,22.891,0,0,1-23.135-24.874L788.172-95.61a27.094,27.094,0,0,1,26.614-24.874H936.9A22.89,22.89,0,0,1,960.034-95.61L939.626,196.259A27.1,27.1,0,0,1,913.012,221.133Z" transform="translate(-761.36 120.484)"/><path class="e" d="M908.012,221.133H785.9a22.891,22.891,0,0,1-23.135-24.874L783.172-95.61a27.094,27.094,0,0,1,26.614-24.874H931.9A22.89,22.89,0,0,1,955.034-95.61L934.626,196.259A27.1,27.1,0,0,1,908.012,221.133Z" transform="translate(-762.7 120.484)"/><g transform="translate(5.721 5.702)"><path class="a" d="M930.291-115.984h-31.74a4.506,4.506,0,0,0-4.35,3.607l-.2.994a11.007,11.007,0,0,1-10.621,8.81H853.209a9.256,9.256,0,0,1-9.39-8.81l-.058-.994a3.789,3.789,0,0,0-3.844-3.607H808.177a20.878,20.878,0,0,0-20.508,19.167l-20.41,291.869a17.64,17.64,0,0,0,17.828,19.167H907.2a20.879,20.879,0,0,0,20.508-19.167L948.118-96.817A17.638,17.638,0,0,0,930.291-115.984Z" transform="translate(-767.212 115.989)"/><path class="f" d="M948.12-96.813,927.711,195.056A20.876,20.876,0,0,1,907.2,214.218H785.084a17.627,17.627,0,0,1-17.822-19.162L787.671-96.813a20.877,20.877,0,0,1,20.5-19.175h31.742a3.792,3.792,0,0,1,3.843,3.614l.058.989a9.266,9.266,0,0,0,9.39,8.814h30.17A11,11,0,0,0,894-111.385l.2-.989a4.525,4.525,0,0,1,4.363-3.614h31.729A17.646,17.646,0,0,1,948.12-96.813Z" transform="translate(-767.211 115.988)"/><path class="e" d="M930.164,101.622,927.711,136.7A20.876,20.876,0,0,1,907.2,155.862H785.084A17.627,17.627,0,0,1,767.262,136.7l2.453-35.078Z" transform="translate(-767.211 174.345)"/><path class="g" d="M930.164,101.622,927.711,136.7A20.876,20.876,0,0,1,907.2,155.862H785.084A17.627,17.627,0,0,1,767.262,136.7l2.453-35.078Z" transform="translate(-767.211 174.345)"/></g><g class="h" transform="translate(95.275 6.515)"><path d="M842.685-112.921a2.642,2.642,0,0,1-2.595,2.425,2.231,2.231,0,0,1-2.256-2.425,2.642,2.642,0,0,1,2.595-2.426A2.232,2.232,0,0,1,842.685-112.921Z" transform="translate(-837.828 115.347)"/><path d="M857.661-115.347h-8.317a2.642,2.642,0,0,0-2.595,2.426,2.232,2.232,0,0,0,2.256,2.425h8.315a2.642,2.642,0,0,0,2.6-2.425A2.232,2.232,0,0,0,857.661-115.347Z" transform="translate(-835.438 115.347)"/></g><g transform="translate(39.876 11.366)"><path class="a" d="M794.144-104.9h2.568l.18-2.568h-2.568Z" transform="translate(-794.144 112.608)"/><path class="a" d="M798.374-106.929l-.18,2.568h2.568l.18-2.568.18-2.568h-2.568Z" transform="translate(-793.058 112.065)"/><path class="a" d="M802.782-111.522l-.179,2.568-.18,2.568-.18,2.568h2.568l.18-2.568.18-2.568.179-2.568Z" transform="translate(-791.972 111.522)"/></g><path class="a" d="M890.09-111.387l-.132,1.883H888.7l-.264,3.766h1.255l-.132,1.883h11.3l.528-7.533Zm4.626,5.65H890.95l.264-3.766h3.766Z" transform="translate(-728.981 122.924)"/><g transform="translate(40.355 131.415)"><g transform="translate(0 0)"><g transform="translate(4.948)"><path class="a" d="M800.276,8.82h-.857a.981.981,0,0,1-.992-1.067L799.7-10.418a7.022,7.022,0,0,1,6.891-6.44l18.161,0a.98.98,0,0,1,.992,1.067l-.06.857a1.159,1.159,0,0,1-1.141,1.065l-18.161,0a3.76,3.76,0,0,0-3.693,3.451L801.416,7.753A1.161,1.161,0,0,1,800.276,8.82Z" transform="translate(-798.424 16.858)"/></g><g transform="translate(75.684 76.061)"><path class="a" d="M854.2,67.728l.06-.857a1.162,1.162,0,0,1,1.141-1.067h18.16a3.757,3.757,0,0,0,3.69-3.449l1.273-18.168a1.161,1.161,0,0,1,1.141-1.067h.856a.983.983,0,0,1,.993,1.067l-1.273,18.168a7.015,7.015,0,0,1-6.89,6.44H855.2A.982.982,0,0,1,854.2,67.728Z" transform="translate(-854.202 -43.119)"/></g><g transform="translate(82.588 0.009)"><path class="a" d="M882.6,8.818h-.856a.983.983,0,0,1-.993-1.067l1.263-18.032a3.441,3.441,0,0,0-.45-2.07,3.183,3.183,0,0,0-2.749-1.508l-18.17,0a.982.982,0,0,1-.992-1.067l.06-.856a1.162,1.162,0,0,1,1.141-1.067l17.924,0a6.37,6.37,0,0,1,4.259,1.486,5.97,5.97,0,0,1,1.977,4.955L883.737,7.752A1.161,1.161,0,0,1,882.6,8.818Z" transform="translate(-859.646 16.851)"/></g><g transform="translate(0 76.061)"><path class="a" d="M800.512,68.8a5.943,5.943,0,0,1-4.787-2.321,6.393,6.393,0,0,1-1.183-4.361L795.8,44.186a1.162,1.162,0,0,1,1.141-1.067h.857a.982.982,0,0,1,.992,1.067l-1.263,18.05a3.436,3.436,0,0,0,.45,2.065,3.184,3.184,0,0,0,2.748,1.507h18.172a.982.982,0,0,1,.993,1.067l-.061.856a1.16,1.16,0,0,1-1.14,1.067H800.512Z" transform="translate(-794.522 -43.119)"/></g></g></g><g transform="translate(51.83 246.815)"><path class="e" d="M815.316,86.109a3.879,3.879,0,0,1-2.966,1.309c-1.581,0-2.652-.578-4.172-2.312a5,5,0,0,1-4.592-5.461,5.991,5.991,0,0,1,6.21-5.506c3.347,0,5.662,2.327,5.44,5.506a5.856,5.856,0,0,1-4.167,5.2,1.823,1.823,0,0,0,1.455.746,2.489,2.489,0,0,0,1.789-.791Zm-6.144-3.058a3.531,3.531,0,0,0,3.57-3.406,3,3,0,0,0-3.093-3.408,3.531,3.531,0,0,0-3.569,3.408A2.994,2.994,0,0,0,809.172,83.052Z" transform="translate(-803.57 -74.139)"/><path class="e" d="M820.728,84.931l-1.845-2.966h-2.266l-.208,2.966h-2.464l.744-10.648H819.3c2.845,0,4.521,1.475,4.354,3.863a3.774,3.774,0,0,1-2.425,3.362l2.148,3.423Zm-1.708-8.64h-2.008L816.753,80h2.007c1.505,0,2.314-.7,2.4-1.855C821.239,76.974,820.526,76.291,819.019,76.291Z" transform="translate(-800.788 -74.1)"/><path class="e" d="M825.929,79.645a5.947,5.947,0,0,1,6.165-5.506,5.112,5.112,0,0,1,4.248,1.886l-1.684,1.46a3.176,3.176,0,0,0-2.59-1.247,3.55,3.55,0,0,0-3.645,3.408,3.011,3.011,0,0,0,3.168,3.406,3.655,3.655,0,0,0,2.766-1.262l1.48,1.46a5.876,5.876,0,0,1-4.53,1.9C828.008,85.151,825.7,82.855,825.929,79.645Z" transform="translate(-797.578 -74.139)"/><path class="e" d="M834.545,79.645a5.99,5.99,0,0,1,6.209-5.506c3.347,0,5.664,2.327,5.442,5.506a5.993,5.993,0,0,1-6.211,5.505C836.624,85.151,834.323,82.809,834.545,79.645Zm9.156,0a3,3,0,0,0-3.093-3.408,3.533,3.533,0,0,0-3.57,3.408,3,3,0,0,0,3.093,3.406A3.532,3.532,0,0,0,843.7,79.645Z" transform="translate(-795.268 -74.139)"/><path class="e" d="M845.648,74.283h4.837c3.482,0,5.723,2.1,5.5,5.324s-2.761,5.324-6.243,5.324H844.9Zm4.111,8.624a3.447,3.447,0,0,0,3.728-3.3c.143-2.039-1.153-3.3-3.267-3.3h-2.251l-.462,6.6Z" transform="translate(-792.486 -74.1)"/><path class="e" d="M863.2,82.952l-.138,1.978h-8.244l.744-10.648h8.047l-.138,1.977h-5.6l-.161,2.312h4.943l-.134,1.916h-4.943l-.173,2.464Z" transform="translate(-789.828 -74.1)"/></g><path class="a" d="M940.377-39.234H779.491l3.793-54.243H944.17Z" transform="translate(-758.198 127.726)"/><path class="i" d="M767.525,194.246a17.861,17.861,0,0,0,4.8,13.686l170.925-319.56a17.8,17.8,0,0,0-12.7-5.163H808.441a20.879,20.879,0,0,0-20.508,19.167Z" transform="translate(-761.419 121.474)"/></g><g transform="translate(857.764 18.975)"><path class="e" d="M806.04-10.515,805.8-7.11h3.405l.238-3.405Z" transform="translate(-800.086 10.515)"/><path class="e" d="M808.725-10.515l-.238,3.405h3.405l.238-3.405Z" transform="translate(-799.366 10.515)"/><path class="e" d="M811.41-10.515l-.238,3.405h3.405l.238-3.405Z" transform="translate(-798.646 10.515)"/><path class="e" d="M814.1-10.515l-.238,3.405h3.405l.238-3.405Z" transform="translate(-797.926 10.515)"/><path class="e" d="M816.781-10.515l-.238,3.405h3.406l.238-3.405Z" transform="translate(-797.206 10.515)"/><path class="e" d="M819.466-10.515l-.238,3.405h3.405l.238-3.405Z" transform="translate(-796.486 10.515)"/><path class="e" d="M822.151-10.515l-.238,3.405h3.405l.238-3.405Z" transform="translate(-795.766 10.515)"/><path class="e" d="M832.892-10.515l-.238,3.405h3.405l.238-3.405Z" transform="translate(-792.885 10.515)"/><path class="e" d="M840.948-10.515,840.71-7.11h3.405l.238-3.405Z" transform="translate(-790.725 10.515)"/><path class="e" d="M843.633-10.515,843.4-7.11H846.8l.238-3.405Z" transform="translate(-790.005 10.515)"/><path class="e" d="M846.319-10.515,846.08-7.11h3.405l.238-3.405Z" transform="translate(-789.285 10.515)"/><path class="e" d="M849-10.515l-.238,3.405h3.405l.238-3.405Z" transform="translate(-788.565 10.515)"/><path class="e" d="M854.374-10.515l-.238,3.405h3.405l.238-3.405Z" transform="translate(-787.125 10.515)"/><path class="e" d="M857.059-10.515l-.238,3.405h3.405l.238-3.405Z" transform="translate(-786.404 10.515)"/><path class="e" d="M859.745-10.515l-.238,3.405h3.405l.238-3.405Z" transform="translate(-785.684 10.515)"/><path class="e" d="M862.43-10.515l-.238,3.405H865.6l.238-3.405Z" transform="translate(-784.964 10.515)"/><path class="e" d="M865.115-10.515l-.238,3.405h3.405l.238-3.405Z" transform="translate(-784.244 10.515)"/><path class="e" d="M867.8-10.515l-.238,3.405h3.406l.238-3.405Z" transform="translate(-783.524 10.515)"/><path class="e" d="M870.486-10.515l-.238,3.405h3.405l.238-3.405Z" transform="translate(-782.804 10.515)"/><path class="e" d="M805.852-7.83l-.238,3.405h3.405l.238-3.405Z" transform="translate(-800.137 11.235)"/><path class="e" d="M821.963-7.83l-.238,3.405h3.405l.238-3.405Z" transform="translate(-795.816 11.235)"/><path class="e" d="M830.019-7.83l-.238,3.405h3.405l.238-3.405Z" transform="translate(-793.656 11.235)"/><path class="e" d="M843.445-7.83l-.238,3.405h3.405l.238-3.405Z" transform="translate(-790.055 11.235)"/><path class="e" d="M846.131-7.83l-.238,3.405H849.3l.238-3.405Z" transform="translate(-789.335 11.235)"/><path class="e" d="M848.816-7.83l-.238,3.405h3.405l.238-3.405Z" transform="translate(-788.615 11.235)"/><path class="e" d="M854.187-7.83l-.238,3.405h3.405l.238-3.405Z" transform="translate(-787.175 11.235)"/><path class="e" d="M870.3-7.83l-.238,3.405h3.405L873.7-7.83Z" transform="translate(-782.854 11.235)"/><path class="e" d="M805.664-5.145l-.238,3.405h3.405l.238-3.405Z" transform="translate(-800.187 11.955)"/><path class="e" d="M811.035-5.145,810.8-1.739H814.2l.238-3.405Z" transform="translate(-798.747 11.955)"/><path class="e" d="M813.72-5.145l-.238,3.405h3.405l.238-3.405Z" transform="translate(-798.027 11.955)"/><path class="e" d="M816.4-5.145l-.238,3.405h3.405l.238-3.405Z" transform="translate(-797.307 11.955)"/><path class="e" d="M821.776-5.145l-.238,3.405h3.405l.238-3.405Z" transform="translate(-795.867 11.955)"/><path class="e" d="M827.146-5.145l-.238,3.405h3.405l.238-3.405Z" transform="translate(-794.426 11.955)"/><path class="e" d="M835.2-5.145l-.238,3.405h3.406l.238-3.405Z" transform="translate(-792.266 11.955)"/><path class="e" d="M843.258-5.145l-.238,3.405h3.405l.238-3.405Z" transform="translate(-790.106 11.955)"/><path class="e" d="M854-5.145l-.238,3.405h3.405l.238-3.405Z" transform="translate(-787.225 11.955)"/><path class="e" d="M859.369-5.145l-.238,3.405h3.405l.238-3.405Z" transform="translate(-785.785 11.955)"/><path class="e" d="M862.055-5.145l-.238,3.405h3.405l.238-3.405Z" transform="translate(-785.065 11.955)"/><path class="e" d="M864.74-5.145,864.5-1.739h3.405l.238-3.405Z" transform="translate(-784.345 11.955)"/><path class="e" d="M870.11-5.145l-.238,3.405h3.405l.238-3.405Z" transform="translate(-782.905 11.955)"/><path class="e" d="M805.476-2.459,805.238.946h3.405l.238-3.405Z" transform="translate(-800.238 12.676)"/><path class="e" d="M810.847-2.459,810.609.946h3.405l.238-3.405Z" transform="translate(-798.797 12.676)"/><path class="e" d="M813.532-2.459,813.294.946H816.7l.238-3.405Z" transform="translate(-798.077 12.676)"/><path class="e" d="M816.217-2.459,815.979.946h3.405l.238-3.405Z" transform="translate(-797.357 12.676)"/><path class="e" d="M821.588-2.459,821.35.946h3.405l.238-3.405Z" transform="translate(-795.917 12.676)"/><path class="e" d="M829.644-2.459,829.406.946h3.405l.238-3.405Z" transform="translate(-793.757 12.676)"/><path class="e" d="M843.07-2.459,842.832.946h3.405l.238-3.405Z" transform="translate(-790.156 12.676)"/><path class="e" d="M845.755-2.459,845.517.946h3.405l.238-3.405Z" transform="translate(-789.436 12.676)"/><path class="e" d="M853.811-2.459,853.573.946h3.405l.238-3.405Z" transform="translate(-787.276 12.676)"/><path class="e" d="M859.181-2.459,858.943.946h3.405l.238-3.405Z" transform="translate(-785.835 12.676)"/><path class="e" d="M861.867-2.459,861.629.946h3.405l.238-3.405Z" transform="translate(-785.115 12.676)"/><path class="e" d="M864.552-2.459,864.314.946h3.405l.238-3.405Z" transform="translate(-784.395 12.676)"/><path class="e" d="M869.923-2.459,869.684.946h3.405l.238-3.405Z" transform="translate(-782.955 12.676)"/><path class="e" d="M805.289.226l-.238,3.405h3.405l.238-3.405Z" transform="translate(-800.288 13.396)"/><path class="e" d="M810.659.226l-.238,3.405h3.406l.238-3.405Z" transform="translate(-798.848 13.396)"/><path class="e" d="M813.344.226l-.238,3.405h3.405L816.75.226Z" transform="translate(-798.128 13.396)"/><path class="e" d="M816.03.226l-.238,3.405H819.2l.238-3.405Z" transform="translate(-797.408 13.396)"/><path class="e" d="M821.4.226l-.238,3.405h3.405l.238-3.405Z" transform="translate(-795.967 13.396)"/><path class="e" d="M829.456.226l-.238,3.405h3.405l.238-3.405Z" transform="translate(-793.807 13.396)"/><path class="e" d="M837.512.226l-.238,3.405h3.405l.238-3.405Z" transform="translate(-791.647 13.396)"/><path class="e" d="M840.2.226l-.238,3.405h3.405L843.6.226Z" transform="translate(-790.927 13.396)"/><path class="e" d="M842.882.226l-.238,3.405h3.406l.238-3.405Z" transform="translate(-790.206 13.396)"/><path class="e" d="M845.567.226l-.238,3.405h3.405l.238-3.405Z" transform="translate(-789.486 13.396)"/><path class="e" d="M853.623.226l-.238,3.405h3.406l.238-3.405Z" transform="translate(-787.326 13.396)"/><path class="e" d="M858.994.226l-.238,3.405h3.405L862.4.226Z" transform="translate(-785.886 13.396)"/><path class="e" d="M861.679.226l-.238,3.405h3.405l.238-3.405Z" transform="translate(-785.166 13.396)"/><path class="e" d="M864.364.226l-.238,3.405h3.405L867.77.226Z" transform="translate(-784.446 13.396)"/><path class="e" d="M869.735.226,869.5,3.631H872.9L873.14.226Z" transform="translate(-783.005 13.396)"/><path class="e" d="M805.1,2.911l-.238,3.405h3.405l.238-3.405Z" transform="translate(-800.338 14.116)"/><path class="e" d="M821.212,2.911l-.238,3.405h3.405l.238-3.405Z" transform="translate(-796.018 14.116)"/><path class="e" d="M831.953,2.911l-.238,3.405h3.405l.238-3.405Z" transform="translate(-793.137 14.116)"/><path class="e" d="M834.639,2.911,834.4,6.316h3.405l.238-3.405Z" transform="translate(-792.417 14.116)"/><path class="e" d="M840.009,2.911l-.238,3.405h3.405l.238-3.405Z" transform="translate(-790.977 14.116)"/><path class="e" d="M842.694,2.911l-.238,3.405h3.405l.238-3.405Z" transform="translate(-790.257 14.116)"/><path class="e" d="M845.38,2.911l-.238,3.405h3.405l.238-3.405Z" transform="translate(-789.537 14.116)"/><path class="e" d="M848.065,2.911l-.238,3.405h3.405l.238-3.405Z" transform="translate(-788.817 14.116)"/><path class="e" d="M853.435,2.911,853.2,6.316H856.6l.238-3.405Z" transform="translate(-787.376 14.116)"/><path class="e" d="M869.547,2.911l-.238,3.405h3.405l.238-3.405Z" transform="translate(-783.056 14.116)"/><path class="e" d="M804.913,5.6,804.675,9h3.405l.238-3.405Z" transform="translate(-800.389 14.836)"/><path class="e" d="M807.6,5.6,807.36,9h3.405L811,5.6Z" transform="translate(-799.669 14.836)"/><path class="e" d="M810.284,5.6,810.045,9h3.405l.238-3.405Z" transform="translate(-798.948 14.836)"/><path class="e" d="M812.969,5.6,812.731,9h3.405l.238-3.405Z" transform="translate(-798.228 14.836)"/><path class="e" d="M815.654,5.6,815.416,9h3.405l.238-3.405Z" transform="translate(-797.508 14.836)"/><path class="e" d="M818.339,5.6,818.1,9h3.405l.238-3.405Z" transform="translate(-796.788 14.836)"/><path class="e" d="M821.025,5.6,820.786,9h3.405L824.43,5.6Z" transform="translate(-796.068 14.836)"/><path class="e" d="M826.4,5.6,826.157,9h3.405L829.8,5.6Z" transform="translate(-794.628 14.836)"/><path class="e" d="M831.766,5.6,831.527,9h3.405l.238-3.405Z" transform="translate(-793.188 14.836)"/><path class="e" d="M837.136,5.6,836.9,9H840.3l.238-3.405Z" transform="translate(-791.747 14.836)"/><path class="e" d="M842.507,5.6,842.268,9h3.405l.238-3.405Z" transform="translate(-790.307 14.836)"/><path class="e" d="M847.877,5.6,847.639,9h3.405l.238-3.405Z" transform="translate(-788.867 14.836)"/><path class="e" d="M853.248,5.6,853.01,9h3.405l.238-3.405Z" transform="translate(-787.427 14.836)"/><path class="e" d="M855.933,5.6,855.695,9H859.1l.238-3.405Z" transform="translate(-786.707 14.836)"/><path class="e" d="M858.618,5.6,858.38,9h3.405l.238-3.405Z" transform="translate(-785.986 14.836)"/><path class="e" d="M861.3,5.6,861.065,9h3.405l.238-3.405Z" transform="translate(-785.266 14.836)"/><path class="e" d="M863.989,5.6,863.751,9h3.405l.238-3.405Z" transform="translate(-784.546 14.836)"/><path class="e" d="M866.674,5.6,866.436,9h3.405l.238-3.405Z" transform="translate(-783.826 14.836)"/><path class="e" d="M869.359,5.6,869.121,9h3.405l.238-3.405Z" transform="translate(-783.106 14.836)"/><path class="e" d="M826.207,8.282l-.238,3.405h3.405l.238-3.405Z" transform="translate(-794.678 15.556)"/><path class="e" d="M836.948,8.282l-.238,3.405h3.405l.238-3.405Z" transform="translate(-791.798 15.556)"/><path class="e" d="M839.634,8.282l-.238,3.405H842.8l.238-3.405Z" transform="translate(-791.078 15.556)"/><path class="e" d="M847.689,8.282l-.238,3.405h3.405l.238-3.405Z" transform="translate(-788.917 15.556)"/><path class="e" d="M804.537,10.967l-.238,3.405H807.7l.238-3.405Z" transform="translate(-800.489 16.276)"/><path class="e" d="M807.223,10.967l-.238,3.405h3.405l.238-3.405Z" transform="translate(-799.769 16.276)"/><path class="e" d="M809.908,10.967l-.238,3.405h3.405l.238-3.405Z" transform="translate(-799.049 16.276)"/><path class="e" d="M815.279,10.967l-.238,3.405h3.405l.238-3.405Z" transform="translate(-797.609 16.276)"/><path class="e" d="M817.964,10.967l-.238,3.405h3.405l.238-3.405Z" transform="translate(-796.889 16.276)"/><path class="e" d="M820.649,10.967l-.238,3.405h3.405l.238-3.405Z" transform="translate(-796.169 16.276)"/><path class="e" d="M823.334,10.967l-.238,3.405H826.5l.238-3.405Z" transform="translate(-795.449 16.276)"/><path class="e" d="M826.02,10.967l-.238,3.405h3.405l.238-3.405Z" transform="translate(-794.729 16.276)"/><path class="e" d="M834.075,10.967l-.238,3.405h3.405l.238-3.405Z" transform="translate(-792.568 16.276)"/><path class="e" d="M836.761,10.967l-.238,3.405h3.405l.238-3.405Z" transform="translate(-791.848 16.276)"/><path class="e" d="M839.446,10.967l-.238,3.405h3.405l.238-3.405Z" transform="translate(-791.128 16.276)"/><path class="e" d="M847.5,10.967l-.238,3.405h3.405l.238-3.405Z" transform="translate(-788.968 16.276)"/><path class="e" d="M850.187,10.967l-.238,3.405h3.405l.238-3.405Z" transform="translate(-788.248 16.276)"/><path class="e" d="M852.872,10.967l-.238,3.405h3.406l.238-3.405Z" transform="translate(-787.527 16.276)"/><path class="e" d="M863.613,10.967l-.238,3.405h3.405l.238-3.405Z" transform="translate(-784.647 16.276)"/><path class="e" d="M809.72,13.652l-.238,3.405h3.405l.238-3.405Z" transform="translate(-799.099 16.996)"/><path class="e" d="M812.406,13.652l-.238,3.405h3.405l.238-3.405Z" transform="translate(-798.379 16.996)"/><path class="e" d="M815.091,13.652l-.238,3.405h3.405l.238-3.405Z" transform="translate(-797.659 16.996)"/><path class="e" d="M823.146,13.652l-.238,3.405h3.405l.238-3.405Z" transform="translate(-795.499 16.996)"/><path class="e" d="M825.832,13.652l-.238,3.405H829l.238-3.405Z" transform="translate(-794.779 16.996)"/><path class="e" d="M828.517,13.652l-.238,3.405h3.405l.238-3.405Z" transform="translate(-794.059 16.996)"/><path class="e" d="M833.888,13.652l-.238,3.405h3.405l.238-3.405Z" transform="translate(-792.618 16.996)"/><path class="e" d="M836.573,13.652l-.238,3.405h3.405l.238-3.405Z" transform="translate(-791.898 16.996)"/><path class="e" d="M847.314,13.652l-.238,3.405h3.405l.238-3.405Z" transform="translate(-789.018 16.996)"/><path class="e" d="M852.684,13.652l-.238,3.405h3.405l.238-3.405Z" transform="translate(-787.578 16.996)"/><path class="e" d="M868.8,13.652l-.238,3.405h3.405l.238-3.405Z" transform="translate(-783.257 16.996)"/><path class="e" d="M809.532,16.337l-.238,3.405H812.7l.238-3.405Z" transform="translate(-799.15 17.716)"/><path class="e" d="M820.273,16.337l-.238,3.405h3.405l.238-3.405Z" transform="translate(-796.269 17.716)"/><path class="e" d="M822.959,16.337l-.238,3.405h3.405l.238-3.405Z" transform="translate(-795.549 17.716)"/><path class="e" d="M831.015,16.337l-.238,3.405h3.405l.238-3.405Z" transform="translate(-793.389 17.716)"/><path class="e" d="M836.385,16.337l-.238,3.405h3.405l.238-3.405Z" transform="translate(-791.949 17.716)"/><path class="e" d="M841.756,16.337l-.238,3.405h3.405l.238-3.405Z" transform="translate(-790.509 17.716)"/><path class="e" d="M852.5,16.337l-.238,3.405h3.405l.238-3.405Z" transform="translate(-787.628 17.716)"/><path class="e" d="M855.182,16.337l-.238,3.405h3.405l.238-3.405Z" transform="translate(-786.908 17.716)"/><path class="e" d="M857.867,16.337l-.238,3.405h3.405l.238-3.405Z" transform="translate(-786.188 17.716)"/><path class="e" d="M863.238,16.337,863,19.743H866.4l.238-3.405Z" transform="translate(-784.748 17.716)"/><path class="e" d="M865.923,16.337l-.238,3.405h3.405l.238-3.405Z" transform="translate(-784.027 17.716)"/><path class="e" d="M868.608,16.337l-.238,3.405h3.405l.238-3.405Z" transform="translate(-783.307 17.716)"/><path class="e" d="M803.974,19.023l-.238,3.405h3.405l.238-3.405Z" transform="translate(-800.64 18.436)"/><path class="e" d="M806.659,19.023l-.238,3.405h3.405l.238-3.405Z" transform="translate(-799.92 18.436)"/><path class="e" d="M809.345,19.023l-.238,3.405h3.406l.238-3.405Z" transform="translate(-799.2 18.436)"/><path class="e" d="M814.715,19.023l-.238,3.405h3.406l.238-3.405Z" transform="translate(-797.76 18.436)"/><path class="e" d="M828.141,19.023l-.238,3.405h3.405l.238-3.405Z" transform="translate(-794.159 18.436)"/><path class="e" d="M830.827,19.023l-.238,3.405h3.405l.238-3.405Z" transform="translate(-793.439 18.436)"/><path class="e" d="M836.2,19.023l-.238,3.405h3.405l.238-3.405Z" transform="translate(-791.999 18.436)"/><path class="e" d="M838.883,19.023l-.238,3.405h3.405l.238-3.405Z" transform="translate(-791.279 18.436)"/><path class="e" d="M841.568,19.023l-.238,3.405h3.405l.238-3.405Z" transform="translate(-790.559 18.436)"/><path class="e" d="M844.253,19.023l-.238,3.405h3.405l.238-3.405Z" transform="translate(-789.839 18.436)"/><path class="e" d="M849.624,19.023l-.238,3.405h3.405l.238-3.405Z" transform="translate(-788.399 18.436)"/><path class="e" d="M852.309,19.023l-.238,3.405h3.405l.238-3.405Z" transform="translate(-787.678 18.436)"/><path class="e" d="M854.994,19.023l-.238,3.405h3.405l.238-3.405Z" transform="translate(-786.958 18.436)"/><path class="e" d="M865.735,19.023l-.238,3.405H868.9l.238-3.405Z" transform="translate(-784.078 18.436)"/><path class="e" d="M809.157,21.708l-.238,3.405h3.405l.238-3.405Z" transform="translate(-799.251 19.157)"/><path class="e" d="M811.842,21.708l-.238,3.405h3.405l.238-3.405Z" transform="translate(-798.531 19.157)"/><path class="e" d="M819.9,21.708l-.238,3.405h3.405l.238-3.405Z" transform="translate(-796.37 19.157)"/><path class="e" d="M825.268,21.708l-.238,3.405h3.405l.238-3.405Z" transform="translate(-794.93 19.157)"/><path class="e" d="M830.639,21.708l-.238,3.405h3.405l.238-3.405Z" transform="translate(-793.49 19.157)"/><path class="e" d="M838.695,21.708l-.238,3.405h3.405l.238-3.405Z" transform="translate(-791.329 19.157)"/><path class="e" d="M846.751,21.708l-.238,3.405h3.405l.238-3.405Z" transform="translate(-789.169 19.157)"/><path class="e" d="M849.436,21.708l-.238,3.405H852.6l.238-3.405Z" transform="translate(-788.449 19.157)"/><path class="e" d="M852.121,21.708l-.238,3.405h3.405l.238-3.405Z" transform="translate(-787.729 19.157)"/><path class="e" d="M854.806,21.708l-.238,3.405h3.405l.238-3.405Z" transform="translate(-787.009 19.157)"/><path class="e" d="M860.177,21.708l-.238,3.405h3.405l.238-3.405Z" transform="translate(-785.569 19.157)"/><path class="e" d="M865.547,21.708l-.238,3.405h3.405l.238-3.405Z" transform="translate(-784.128 19.157)"/><path class="e" d="M868.233,21.708l-.238,3.405H871.4l.238-3.405Z" transform="translate(-783.408 19.157)"/><path class="e" d="M817.025,24.393l-.238,3.405h3.405l.238-3.405Z" transform="translate(-797.141 19.877)"/><path class="e" d="M822.4,24.393l-.238,3.405h3.405l.238-3.405Z" transform="translate(-795.7 19.877)"/><path class="e" d="M825.081,24.393l-.238,3.405h3.406l.238-3.405Z" transform="translate(-794.98 19.877)"/><path class="e" d="M830.451,24.393l-.238,3.405h3.405l.238-3.405Z" transform="translate(-793.54 19.877)"/><path class="e" d="M835.822,24.393l-.238,3.405h3.405l.238-3.405Z" transform="translate(-792.1 19.877)"/><path class="e" d="M846.563,24.393l-.238,3.405h3.405l.238-3.405Z" transform="translate(-789.219 19.877)"/><path class="e" d="M849.248,24.393,849.01,27.8h3.405l.238-3.405Z" transform="translate(-788.499 19.877)"/><path class="e" d="M851.933,24.393,851.7,27.8H855.1l.238-3.405Z" transform="translate(-787.779 19.877)"/><path class="e" d="M859.989,24.393l-.238,3.405h3.405l.238-3.405Z" transform="translate(-785.619 19.877)"/><path class="e" d="M868.045,24.393l-.238,3.405h3.405l.238-3.405Z" transform="translate(-783.458 19.877)"/><path class="e" d="M803.411,27.078l-.238,3.405h3.405l.238-3.405Z" transform="translate(-800.791 20.597)"/><path class="e" d="M811.466,27.078l-.238,3.405h3.405l.238-3.405Z" transform="translate(-798.631 20.597)"/><path class="e" d="M814.152,27.078l-.238,3.405h3.406l.238-3.405Z" transform="translate(-797.911 20.597)"/><path class="e" d="M816.837,27.078l-.238,3.405H820l.238-3.405Z" transform="translate(-797.191 20.597)"/><path class="e" d="M819.522,27.078l-.238,3.405h3.405l.238-3.405Z" transform="translate(-796.471 20.597)"/><path class="e" d="M822.208,27.078l-.238,3.405h3.406l.238-3.405Z" transform="translate(-795.751 20.597)"/><path class="e" d="M827.578,27.078l-.238,3.405h3.405l.238-3.405Z" transform="translate(-794.31 20.597)"/><path class="e" d="M830.263,27.078l-.238,3.405h3.405l.238-3.405Z" transform="translate(-793.59 20.597)"/><path class="e" d="M838.319,27.078l-.238,3.405h3.405l.238-3.405Z" transform="translate(-791.43 20.597)"/><path class="e" d="M846.375,27.078l-.238,3.405h3.405l.238-3.405Z" transform="translate(-789.27 20.597)"/><path class="e" d="M849.06,27.078l-.238,3.405h3.405l.238-3.405Z" transform="translate(-788.55 20.597)"/><path class="e" d="M851.746,27.078l-.238,3.405h3.405l.238-3.405Z" transform="translate(-787.83 20.597)"/><path class="e" d="M854.431,27.078l-.238,3.405H857.6l.238-3.405Z" transform="translate(-787.109 20.597)"/><path class="e" d="M862.487,27.078l-.238,3.405h3.405l.238-3.405Z" transform="translate(-784.949 20.597)"/><path class="e" d="M865.172,27.078l-.238,3.405h3.405l.238-3.405Z" transform="translate(-784.229 20.597)"/><path class="e" d="M867.857,27.078l-.238,3.405h3.405l.238-3.405Z" transform="translate(-783.509 20.597)"/><path class="e" d="M805.908,29.764l-.238,3.405h3.406l.238-3.405Z" transform="translate(-800.122 21.317)"/><path class="e" d="M808.594,29.764l-.238,3.405h3.406L812,29.764Z" transform="translate(-799.402 21.317)"/><path class="e" d="M816.649,29.764l-.238,3.405h3.405l.238-3.405Z" transform="translate(-797.241 21.317)"/><path class="e" d="M822.02,29.764l-.238,3.405h3.405l.238-3.405Z" transform="translate(-795.801 21.317)"/><path class="e" d="M827.39,29.764l-.238,3.405h3.405l.238-3.405Z" transform="translate(-794.361 21.317)"/><path class="e" d="M830.076,29.764l-.238,3.405h3.405l.238-3.405Z" transform="translate(-793.641 21.317)"/><path class="e" d="M838.131,29.764l-.238,3.405H841.3l.238-3.405Z" transform="translate(-791.48 21.317)"/><path class="e" d="M843.5,29.764l-.238,3.405h3.405l.238-3.405Z" transform="translate(-790.04 21.317)"/><path class="e" d="M851.558,29.764l-.238,3.405h3.405l.238-3.405Z" transform="translate(-787.88 21.317)"/><path class="e" d="M856.928,29.764l-.238,3.405H860.1l.238-3.405Z" transform="translate(-786.44 21.317)"/><path class="e" d="M864.984,29.764l-.238,3.405h3.405l.238-3.405Z" transform="translate(-784.279 21.317)"/><path class="e" d="M803.035,32.449l-.238,3.405H806.2l.238-3.405Z" transform="translate(-800.892 22.037)"/><path class="e" d="M808.406,32.449l-.238,3.405h3.405l.238-3.405Z" transform="translate(-799.452 22.037)"/><path class="e" d="M816.462,32.449l-.238,3.405h3.405l.238-3.405Z" transform="translate(-797.292 22.037)"/><path class="e" d="M819.147,32.449l-.238,3.405h3.405l.238-3.405Z" transform="translate(-796.572 22.037)"/><path class="e" d="M821.832,32.449l-.238,3.405H825l.238-3.405Z" transform="translate(-795.852 22.037)"/><path class="e" d="M837.944,32.449l-.238,3.405h3.405l.238-3.405Z" transform="translate(-791.531 22.037)"/><path class="e" d="M846,32.449l-.238,3.405h3.405l.238-3.405Z" transform="translate(-789.37 22.037)"/><path class="e" d="M848.685,32.449l-.238,3.405h3.405l.238-3.405Z" transform="translate(-788.65 22.037)"/><path class="e" d="M851.37,32.449l-.238,3.405h3.405l.238-3.405Z" transform="translate(-787.93 22.037)"/><path class="e" d="M854.055,32.449l-.238,3.405h3.405l.238-3.405Z" transform="translate(-787.21 22.037)"/><path class="e" d="M856.74,32.449l-.238,3.405h3.405l.238-3.405Z" transform="translate(-786.49 22.037)"/><path class="e" d="M859.426,32.449l-.238,3.405h3.405l.238-3.405Z" transform="translate(-785.77 22.037)"/><path class="e" d="M824.329,35.134l-.238,3.405H827.5l.238-3.405Z" transform="translate(-795.182 22.757)"/><path class="e" d="M829.7,35.134l-.238,3.405h3.405l.238-3.405Z" transform="translate(-793.741 22.757)"/><path class="e" d="M835.071,35.134l-.238,3.405h3.406l.238-3.405Z" transform="translate(-792.301 22.757)"/><path class="e" d="M845.812,35.134l-.238,3.405h3.405l.238-3.405Z" transform="translate(-789.421 22.757)"/><path class="e" d="M856.553,35.134l-.238,3.405h3.405l.238-3.405Z" transform="translate(-786.54 22.757)"/><path class="e" d="M859.238,35.134,859,38.54h3.405l.238-3.405Z" transform="translate(-785.82 22.757)"/><path class="e" d="M864.609,35.134l-.238,3.405h3.405l.238-3.405Z" transform="translate(-784.38 22.757)"/><path class="e" d="M867.294,35.134l-.238,3.405h3.405l.238-3.405Z" transform="translate(-783.66 22.757)"/><path class="e" d="M802.66,37.82l-.238,3.405h3.405l.238-3.405Z" transform="translate(-800.993 23.477)"/><path class="e" d="M805.345,37.82l-.238,3.405h3.405l.238-3.405Z" transform="translate(-800.273 23.477)"/><path class="e" d="M808.03,37.82l-.238,3.405H811.2l.238-3.405Z" transform="translate(-799.553 23.477)"/><path class="e" d="M810.715,37.82l-.238,3.405h3.405l.238-3.405Z" transform="translate(-798.833 23.477)"/><path class="e" d="M813.4,37.82l-.238,3.405h3.405l.238-3.405Z" transform="translate(-798.112 23.477)"/><path class="e" d="M816.086,37.82l-.238,3.405h3.405l.238-3.405Z" transform="translate(-797.392 23.477)"/><path class="e" d="M818.771,37.82l-.238,3.405h3.405l.238-3.405Z" transform="translate(-796.672 23.477)"/><path class="e" d="M824.142,37.82l-.238,3.405h3.405l.238-3.405Z" transform="translate(-795.232 23.477)"/><path class="e" d="M826.827,37.82l-.238,3.405h3.405l.238-3.405Z" transform="translate(-794.512 23.477)"/><path class="e" d="M829.512,37.82l-.238,3.405h3.405l.238-3.405Z" transform="translate(-793.792 23.477)"/><path class="e" d="M837.568,37.82l-.238,3.405h3.405l.238-3.405Z" transform="translate(-791.631 23.477)"/><path class="e" d="M840.253,37.82l-.238,3.405h3.405l.238-3.405Z" transform="translate(-790.911 23.477)"/><path class="e" d="M842.939,37.82l-.238,3.405h3.405l.238-3.405Z" transform="translate(-790.191 23.477)"/><path class="e" d="M845.624,37.82l-.238,3.405h3.405l.238-3.405Z" transform="translate(-789.471 23.477)"/><path class="e" d="M850.995,37.82l-.238,3.405h3.405l.238-3.405Z" transform="translate(-788.031 23.477)"/><path class="e" d="M856.365,37.82l-.238,3.405h3.405l.238-3.405Z" transform="translate(-786.591 23.477)"/><path class="e" d="M859.05,37.82l-.238,3.405h3.405l.238-3.405Z" transform="translate(-785.871 23.477)"/><path class="e" d="M864.421,37.82l-.238,3.405h3.405l.238-3.405Z" transform="translate(-784.43 23.477)"/><path class="e" d="M867.106,37.82l-.238,3.405h3.405l.238-3.405Z" transform="translate(-783.71 23.477)"/><path class="e" d="M802.472,40.5l-.238,3.405h3.405l.238-3.405Z" transform="translate(-801.043 24.197)"/><path class="e" d="M818.583,40.5l-.238,3.405h3.405l.238-3.405Z" transform="translate(-796.723 24.197)"/><path class="e" d="M823.954,40.5l-.238,3.405h3.405l.238-3.405Z" transform="translate(-795.282 24.197)"/><path class="e" d="M834.7,40.5l-.238,3.405h3.405L838.1,40.5Z" transform="translate(-792.402 24.197)"/><path class="e" d="M837.38,40.5l-.238,3.405h3.405l.238-3.405Z" transform="translate(-791.682 24.197)"/><path class="e" d="M840.065,40.5l-.238,3.405h3.405l.238-3.405Z" transform="translate(-790.962 24.197)"/><path class="e" d="M845.436,40.5,845.2,43.91H848.6l.238-3.405Z" transform="translate(-789.522 24.197)"/><path class="e" d="M856.177,40.5l-.238,3.405h3.405l.238-3.405Z" transform="translate(-786.641 24.197)"/><path class="e" d="M858.862,40.5l-.238,3.405h3.405l.238-3.405Z" transform="translate(-785.921 24.197)"/><path class="e" d="M864.233,40.5l-.238,3.405H867.4l.238-3.405Z" transform="translate(-784.481 24.197)"/><path class="e" d="M802.284,43.19l-.238,3.405h3.405l.238-3.405Z" transform="translate(-801.094 24.917)"/><path class="e" d="M807.655,43.19l-.238,3.405h3.405l.238-3.405Z" transform="translate(-799.653 24.917)"/><path class="e" d="M810.34,43.19,810.1,46.6h3.405l.238-3.405Z" transform="translate(-798.933 24.917)"/><path class="e" d="M813.025,43.19l-.238,3.405h3.405l.238-3.405Z" transform="translate(-798.213 24.917)"/><path class="e" d="M818.4,43.19l-.238,3.405h3.405l.238-3.405Z" transform="translate(-796.773 24.917)"/><path class="e" d="M823.766,43.19l-.238,3.405h3.405l.238-3.405Z" transform="translate(-795.333 24.917)"/><path class="e" d="M831.822,43.19l-.238,3.405h3.405l.238-3.405Z" transform="translate(-793.172 24.917)"/><path class="e" d="M834.507,43.19l-.238,3.405h3.405l.238-3.405Z" transform="translate(-792.452 24.917)"/><path class="e" d="M837.193,43.19l-.238,3.405h3.406l.238-3.405Z" transform="translate(-791.732 24.917)"/><path class="e" d="M839.878,43.19,839.64,46.6h3.406l.238-3.405Z" transform="translate(-791.012 24.917)"/><path class="e" d="M845.248,43.19,845.01,46.6h3.406l.238-3.405Z" transform="translate(-789.572 24.917)"/><path class="e" d="M847.934,43.19,847.7,46.6H851.1l.238-3.405Z" transform="translate(-788.852 24.917)"/><path class="e" d="M850.619,43.19l-.238,3.405h3.405l.238-3.405Z" transform="translate(-788.132 24.917)"/><path class="e" d="M853.3,43.19l-.238,3.405h3.405l.238-3.405Z" transform="translate(-787.412 24.917)"/><path class="e" d="M855.989,43.19l-.238,3.405h3.405l.238-3.405Z" transform="translate(-786.691 24.917)"/><path class="e" d="M858.675,43.19l-.238,3.405h3.405l.238-3.405Z" transform="translate(-785.971 24.917)"/><path class="e" d="M864.045,43.19l-.238,3.405h3.405l.238-3.405Z" transform="translate(-784.531 24.917)"/><path class="e" d="M802.1,45.875l-.238,3.405h3.405l.238-3.405Z" transform="translate(-801.144 25.638)"/><path class="e" d="M807.467,45.875l-.238,3.405h3.405l.238-3.405Z" transform="translate(-799.704 25.638)"/><path class="e" d="M810.152,45.875l-.238,3.405h3.405l.238-3.405Z" transform="translate(-798.984 25.638)"/><path class="e" d="M812.837,45.875l-.238,3.405H816l.238-3.405Z" transform="translate(-798.263 25.638)"/><path class="e" d="M818.208,45.875l-.238,3.405h3.405l.238-3.405Z" transform="translate(-796.823 25.638)"/><path class="e" d="M826.264,45.875l-.238,3.405h3.405l.238-3.405Z" transform="translate(-794.663 25.638)"/><path class="e" d="M828.949,45.875l-.238,3.405h3.405l.238-3.405Z" transform="translate(-793.943 25.638)"/><path class="e" d="M834.32,45.875l-.238,3.405h3.405l.238-3.405Z" transform="translate(-792.503 25.638)"/><path class="e" d="M842.375,45.875l-.238,3.405h3.405l.238-3.405Z" transform="translate(-790.342 25.638)"/><path class="e" d="M845.061,45.875l-.238,3.405h3.405l.238-3.405Z" transform="translate(-789.622 25.638)"/><path class="e" d="M853.116,45.875l-.238,3.405h3.405l.238-3.405Z" transform="translate(-787.462 25.638)"/><path class="e" d="M855.8,45.875l-.238,3.405h3.405l.238-3.405Z" transform="translate(-786.742 25.638)"/><path class="e" d="M858.487,45.875l-.238,3.405h3.405l.238-3.405Z" transform="translate(-786.022 25.638)"/><path class="e" d="M861.172,45.875l-.238,3.405h3.406l.238-3.405Z" transform="translate(-785.302 25.638)"/><path class="e" d="M801.909,48.561l-.238,3.405h3.405l.238-3.405Z" transform="translate(-801.194 26.358)"/><path class="e" d="M807.279,48.561l-.238,3.405h3.406l.238-3.405Z" transform="translate(-799.754 26.358)"/><path class="e" d="M809.964,48.561l-.238,3.405h3.405l.238-3.405Z" transform="translate(-799.034 26.358)"/><path class="e" d="M812.65,48.561l-.238,3.405h3.405l.238-3.405Z" transform="translate(-798.314 26.358)"/><path class="e" d="M818.02,48.561l-.238,3.405h3.405l.238-3.405Z" transform="translate(-796.874 26.358)"/><path class="e" d="M823.391,48.561l-.238,3.405h3.405l.238-3.405Z" transform="translate(-795.433 26.358)"/><path class="e" d="M836.817,48.561l-.238,3.405h3.405l.238-3.405Z" transform="translate(-791.833 26.358)"/><path class="e" d="M842.188,48.561l-.238,3.405h3.405l.238-3.405Z" transform="translate(-790.393 26.358)"/><path class="e" d="M855.614,48.561l-.238,3.405h3.406l.238-3.405Z" transform="translate(-786.792 26.358)"/><path class="e" d="M866.355,48.561l-.238,3.405h3.405l.238-3.405Z" transform="translate(-783.912 26.358)"/><path class="e" d="M801.721,51.246l-.238,3.405h3.406l.238-3.405Z" transform="translate(-801.245 27.078)"/><path class="e" d="M817.832,51.246l-.238,3.405H821l.238-3.405Z" transform="translate(-796.924 27.078)"/><path class="e" d="M823.2,51.246l-.238,3.405h3.405l.238-3.405Z" transform="translate(-795.484 27.078)"/><path class="e" d="M825.888,51.246l-.238,3.405h3.405l.238-3.405Z" transform="translate(-794.764 27.078)"/><path class="e" d="M831.259,51.246l-.238,3.405h3.405l.238-3.405Z" transform="translate(-793.323 27.078)"/><path class="e" d="M836.629,51.246l-.238,3.405H839.8l.238-3.405Z" transform="translate(-791.883 27.078)"/><path class="e" d="M839.314,51.246l-.238,3.405h3.405l.238-3.405Z" transform="translate(-791.163 27.078)"/><path class="e" d="M842,51.246l-.238,3.405h3.405l.238-3.405Z" transform="translate(-790.443 27.078)"/><path class="e" d="M844.685,51.246l-.238,3.405h3.406l.238-3.405Z" transform="translate(-789.723 27.078)"/><path class="e" d="M850.056,51.246l-.238,3.405h3.405l.238-3.405Z" transform="translate(-788.283 27.078)"/><path class="e" d="M855.426,51.246l-.238,3.405h3.405l.238-3.405Z" transform="translate(-786.842 27.078)"/><path class="e" d="M858.111,51.246l-.238,3.405h3.405l.238-3.405Z" transform="translate(-786.122 27.078)"/><path class="e" d="M863.482,51.246l-.238,3.405h3.405l.238-3.405Z" transform="translate(-784.682 27.078)"/><path class="e" d="M801.533,53.931l-.238,3.405H804.7l.238-3.405Z" transform="translate(-801.295 27.798)"/><path class="e" d="M804.218,53.931l-.238,3.405h3.405l.238-3.405Z" transform="translate(-800.575 27.798)"/><path class="e" d="M806.9,53.931l-.238,3.405h3.405l.238-3.405Z" transform="translate(-799.855 27.798)"/><path class="e" d="M809.589,53.931l-.238,3.405h3.405l.238-3.405Z" transform="translate(-799.135 27.798)"/><path class="e" d="M812.274,53.931l-.238,3.405h3.405l.238-3.405Z" transform="translate(-798.415 27.798)"/><path class="e" d="M814.959,53.931l-.238,3.405h3.405l.238-3.405Z" transform="translate(-797.694 27.798)"/><path class="e" d="M817.645,53.931l-.238,3.405h3.405l.238-3.405Z" transform="translate(-796.974 27.798)"/><path class="e" d="M823.015,53.931l-.238,3.405h3.405l.238-3.405Z" transform="translate(-795.534 27.798)"/><path class="e" d="M825.7,53.931l-.238,3.405h3.405l.238-3.405Z" transform="translate(-794.814 27.798)"/><path class="e" d="M828.386,53.931l-.238,3.405h3.405l.238-3.405Z" transform="translate(-794.094 27.798)"/><path class="e" d="M831.071,53.931l-.238,3.405h3.405l.238-3.405Z" transform="translate(-793.374 27.798)"/><path class="e" d="M833.756,53.931l-.238,3.405h3.405l.238-3.405Z" transform="translate(-792.654 27.798)"/><path class="e" d="M836.441,53.931l-.238,3.405h3.405l.238-3.405Z" transform="translate(-791.934 27.798)"/><path class="e" d="M844.5,53.931l-.238,3.405h3.405l.238-3.405Z" transform="translate(-789.773 27.798)"/><path class="e" d="M847.183,53.931l-.238,3.405h3.405l.238-3.405Z" transform="translate(-789.053 27.798)"/><path class="e" d="M852.553,53.931l-.238,3.405h3.405l.238-3.405Z" transform="translate(-787.613 27.798)"/><path class="e" d="M863.294,53.931l-.238,3.405h3.405l.238-3.405Z" transform="translate(-784.733 27.798)"/><path class="e" d="M865.979,53.931l-.238,3.405h3.405l.238-3.405Z" transform="translate(-784.012 27.798)"/></g><g transform="translate(679.062 -40.339)"><g transform="translate(0 5.837)"><g transform="translate(7.219 117.831)"><g transform="translate(76.023 201.947)"><path class="j" d="M731.126,224.842l9.885-2.387-5.1-22.982-9.885,2.387Z" transform="translate(-726.021 -199.473)"/><path class="e" d="M739.972,215.737l-10.81,2.61a.853.853,0,0,0-.654.87l.373,9.175a1.535,1.535,0,0,0,1.891,1.413c3.874-1.012,9.44-2.6,14.34-3.78,5.717-1.381,6.261-1.182,12.963-2.8,4.059-.98,4.091-5.323,2.3-5.282-8.18.183-10.062.446-17.833-2.051A4.79,4.79,0,0,0,739.972,215.737Z" transform="translate(-725.355 -195.14)"/><path class="k" d="M735.909,199.483l2.632,11.847-9.885,2.387-2.632-11.846Z" transform="translate(-726.021 -199.471)"/><path class="a" d="M738.58,215.906a.231.231,0,0,1-.174-.408c.381-.342,3.782-3.268,5.129-2.879a.758.758,0,0,1,.536.509,1.277,1.277,0,0,1-.132,1.221,3.717,3.717,0,0,1-2.221,1.176A16.974,16.974,0,0,1,738.58,215.906Zm.63-.5c2.254-.156,3.829-.637,4.28-1.309a.829.829,0,0,0,.08-.809.3.3,0,0,0-.2-.214,1.16,1.16,0,0,0-.458.023A12.9,12.9,0,0,0,739.21,215.4Z" transform="translate(-722.723 -195.957)"/><path class="a" d="M738.463,216.278a.278.278,0,0,1-.146-.19c-.014-.109-.424-2.79.514-4.094a1.67,1.67,0,0,1,1.172-.7c.653-.1.97.179,1.031.427.469,1.064-1.273,3.7-2.328,4.52l-.1.023A.338.338,0,0,1,738.463,216.278Zm.765-3.991a5.479,5.479,0,0,0-.458,3.291c1.009-1.008,2.147-3.036,1.872-3.659-.027-.056-.11-.249-.525-.148l-.142.034A1.214,1.214,0,0,0,739.228,212.287Z" transform="translate(-722.751 -196.307)"/></g><g transform="translate(0 202.148)"><path class="j" d="M670.053,222.819l10.046,1.573,4.068-23.187-10.046-1.573Z" transform="translate(-665.008 -199.631)"/><path class="e" d="M681.25,218.595l-10.986-1.72a.853.853,0,0,0-.937.553l-3.163,8.622a1.53,1.53,0,0,0,.93,1.957,1.486,1.486,0,0,0,.278.071c3.967.547,9.717,1.209,14.7,1.988,5.811.909,6.237,1.3,13.048,2.368,4.127.647,5.816-3.353,4.142-4-7.629-2.957-9.468-3.433-15.695-8.711A4.8,4.8,0,0,0,681.25,218.595Z" transform="translate(-666.075 -195.01)"/><path class="k" d="M683.805,201.214l-2.361,13.465L671.4,213.106l2.361-13.465Z" transform="translate(-664.647 -199.629)"/><path class="a" d="M679.176,218.433a.231.231,0,0,1-.005-.444c.483-.171,4.744-1.574,5.839-.7a.751.751,0,0,1,.3.676,1.277,1.277,0,0,1-.587,1.078,3.723,3.723,0,0,1-2.5.237A17.009,17.009,0,0,1,679.176,218.433Zm.774-.223c2.142.718,3.781.875,4.455.426a.825.825,0,0,0,.383-.717.293.293,0,0,0-.1-.275,1.147,1.147,0,0,0-.432-.153A12.9,12.9,0,0,0,679.949,218.21Z" transform="translate(-662.607 -194.972)"/><path class="a" d="M679.041,218.966a.279.279,0,0,1-.062-.232c.029-.105.676-2.741,2.04-3.586a1.671,1.671,0,0,1,1.348-.2c.64.162.828.536.789.789.028,1.163-2.591,2.933-3.878,3.287l-.1-.015A.35.35,0,0,1,679.041,218.966Zm2.232-3.4a5.479,5.479,0,0,0-1.68,2.866c1.318-.545,3.144-1.983,3.127-2.664,0-.062-.006-.271-.427-.337l-.145-.023A1.218,1.218,0,0,0,681.273,215.57Z" transform="translate(-662.615 -195.539)"/></g><g transform="translate(52.809 46.035)"><g transform="translate(0 0.119)"><path class="a" d="M709.467,108.805c7.922.425,15.233.94,23.163.671.79-9.255-.413-22.359-3.662-31.061-6.551-3.5-14.224-1.2-21.251,1.207Z" transform="translate(-707.716 -76.624)"/><path class="k" d="M709.467,108.805c7.922.425,15.233.94,23.163.671.79-9.255-.413-22.359-3.662-31.061-6.551-3.5-14.224-1.2-21.251,1.207Z" transform="translate(-707.716 -76.624)"/><path class="k" d="M707.717,79.088l2.663,1.152,3.714,25.443,18.678,1.128-.141,2.131-23.164-.671Z" transform="translate(-707.717 -75.964)"/></g><path class="i" d="M728.968,78.44l1.126,3.465-6.506,2.422-10.677-1.671-5.194-3.008a34.079,34.079,0,0,1,11.188-3C725.608,75.969,728.968,78.44,728.968,78.44Z" transform="translate(-707.716 -76.531)"/></g><path class="a" d="M725.759,44.922l14.509,122.329,10.76,77.143a3.654,3.654,0,0,1-2.823,4.233l-11.968,3.045a3.6,3.6,0,0,1-3.873-2.946c-3.825-15.938-14.026-47.049-15.952-77.6,0,0-20.353-77.932-24.46-102.033L690.7,47.3Z" transform="translate(-659.472 -38.972)"/><path class="k" d="M706.558,68.217s3.7,34.681,0,62.877c0,0-7.79-32.351-11.327-45.125Z" transform="translate(-658.256 -32.725)"/><path class="a" d="M716.523,40.23,704.259,178.193l-15.521,73.735a3.216,3.216,0,0,1-3.84,2.734l-13.164-2.737a3.888,3.888,0,0,1-2.739-4.143c1.245-15.905.509-41.888,8.28-69.979,0,0,.871-95.112,4.19-137.33Z" transform="translate(-665.295 -40.23)"/></g><path class="l" d="M767.025-8.012l2.657-3.683,9.61,5.916a36.307,36.307,0,0,1-6.326,4.309,4.458,4.458,0,0,1-4.78-.464l-.361-.276A4.221,4.221,0,0,1,767.025-8.012Z" transform="translate(-632 63.677)"/><path class="l" d="M776.722-15.982l5.026,8.691-3.18,2.665-9.61-5.915Z" transform="translate(-631.265 62.527)"/><path class="e" d="M716.346,3.942c10.74,2.779,26.6,4.937,30.418,5.44,5.059.665,26.7-4.312,36.027-5.933a2.45,2.45,0,0,0,1.467-.611,2.469,2.469,0,0,0,.3-2.009l-1.14-8.123a3.651,3.651,0,0,0-.8-2.158c-.807-.8-2.12-.671-3.241-.483-12.308,2.07-29.938,3.343-29.938,3.343-8.721-1.25-18.068-4.888-26.049-8.492C699.591-25.827,711.062,2.575,716.346,3.942Z" transform="translate(-647.371 62.119)"/><path class="m" d="M716.346,3.942c10.74,2.779,26.6,4.937,30.418,5.44,5.059.665,26.7-4.312,36.027-5.933a2.45,2.45,0,0,0,1.467-.611,2.469,2.469,0,0,0,.3-2.009l-1.14-8.123a3.651,3.651,0,0,0-.8-2.158c-.807-.8-2.12-.671-3.241-.483-12.308,2.07-29.938,3.343-29.938,3.343-8.721-1.25-18.068-4.888-26.049-8.492C699.591-25.827,711.062,2.575,716.346,3.942Z" transform="translate(-647.371 62.119)"/><path class="a" d="M783.931,2.13,773.011-.039,779.7-22.991l10.919,2.169Z" transform="translate(-630.178 60.647)"/><g transform="translate(153.106 37.225)"><path class="a" d="M790.69-21.615,783.212,4.069a1.275,1.275,0,0,1-1.461.876l-.639-.127a1.265,1.265,0,0,0,1.45-.879l7.478-25.684a1.256,1.256,0,0,0-.96-1.586l.639.127A1.265,1.265,0,0,1,790.69-21.615Z" transform="translate(-781.112 23.331)"/><path class="n" d="M790.69-21.615,783.212,4.069a1.275,1.275,0,0,1-1.461.876l-.639-.127a1.265,1.265,0,0,0,1.45-.879l7.478-25.684a1.256,1.256,0,0,0-.96-1.586l.639.127A1.265,1.265,0,0,1,790.69-21.615Z" transform="translate(-781.112 23.331)"/></g><g transform="translate(141.197 35.036)"><path class="a" d="M791.6-22.868l-10.9-2.165a1.257,1.257,0,0,0-1.45.879L771.772,1.53a1.256,1.256,0,0,0,.96,1.586l10.9,2.165a1.265,1.265,0,0,0,1.45-.879l7.478-25.684A1.256,1.256,0,0,0,791.6-22.868ZM784.277,2.684,773.357.516l6.686-22.953,10.919,2.169Z" transform="translate(-771.721 25.057)"/><path class="a" d="M790.616-20.823,783.931,2.13,773.011-.039,779.7-22.991Z" transform="translate(-771.375 25.611)"/><path class="o" d="M790.616-20.823,783.931,2.13,773.011-.039,779.7-22.991Z" transform="translate(-771.375 25.611)"/></g><path class="l" d="M773.752-13.757l2.451-2.61a.463.463,0,0,1,.776.166l.341.994a2.164,2.164,0,0,1-.223,1.868l-3.74,5.861-4.4-2.921Z" transform="translate(-631.265 62.384)"/><g transform="translate(0 31.017)"><path class="e" d="M735.728,21c.188,33.392,2.186,45.924-2.781,45.917-9.22-.013-42.9,1.217-44.867.937-14.54-2.068-5.619-35.177-5.822-40.362-.126-3.2-.391-6.388-.813-9.528a29.244,29.244,0,0,0-1.249-5.591c-1.061-3.06-2.8-5.7-5.763-6.685-2.656-.89-5.576-.109-8.372-.3-2.795-.171-6-2.139-5.654-4.919a6.423,6.423,0,0,1,2.015-3.358C666.5-7.23,671.09-11.541,672.7-17.273c.687-2.4.828-5.045,2.188-7.154,5.607-8.621,18.961-.218,25.645,2.235,4.28,1.578,8.153,3.92,12.4,5.513,4.451,1.671,12.276,2.062,17.976,2.3C736.047-14.18,735.728,21,735.728,21Z" transform="translate(-660.382 28.226)"/></g><g transform="translate(32.107)"><path class="l" d="M689.964-32.757c1.41,5.634,1.092,14.8,1.127,21.14.033,5.892,15.241,10.782,15.241,10.782s6.266-5.3,1.408-9.261c-4.064-3.318-4.639-7.179-3.728-11.843Z" transform="translate(-684.556 58.028)"/><path class="p" d="M694.526-29.249l8.318,6.381a24.051,24.051,0,0,0-.481,3.926c-3.028-.278-7.33-3.364-7.812-6.489A10.363,10.363,0,0,1,694.526-29.249Z" transform="translate(-683.376 58.969)"/><path class="l" d="M688.9-37.978c1.082,9.529,1.226,15.153,6.307,19.813,7.639,7,19.206,2.021,21-7.645,1.609-8.684-.432-22.811-9.977-26.122a13.068,13.068,0,0,0-16.68,7.958A13.074,13.074,0,0,0,688.9-37.978Z" transform="translate(-684.869 52.684)"/><g transform="translate(6.513 19.433)"><path class="e" d="M716.153-32.749c.5,3.711,1.126,10.289,2.234,14-6.517-.016-12.713.34-19.231.323-.9-.691-8.871-7.66-8.291-8.26,2.2-2.27,4.908-4.837,2.337-7.4-.777-.776-.363-2.185-.477-3.277,2.355,3.546,11.364,6.11,15.552,5.348Z" transform="translate(-690.835 37.361)"/><path class="l" d="M702.849-32.046c-1.381.495.624,2.536,2.819,2.649h3.92a2.649,2.649,0,0,0,2.363-1.313c.4-.751.385-1.548-.236-1.779,0,0-.391-.269-2.927-.269C708.788-32.757,704.347-32.631,702.849-32.046Z" transform="translate(-687.735 38.596)"/><path class="e" d="M709.8-31.195h0a7.022,7.022,0,0,1-6.37-1.16.246.246,0,0,1,.034-.346.247.247,0,0,1,.283-.02,6.671,6.671,0,0,0,5.957,1.068.246.246,0,0,1,.3.176h0a.235.235,0,0,1-.179.279Z" transform="translate(-687.473 38.596)"/><g transform="translate(8.739 1.94)"><path class="e" d="M709.633-35.783c-2.084-.263-4.066.583-5.927,1.363s-3.932,1.533-5.979,1.079a12.165,12.165,0,0,0,5.944,2.361,11.079,11.079,0,0,0,6.446-1.16,8.814,8.814,0,0,0,7.761.7c-2.416.58-3.387-2.719-5.884-3.876A10.505,10.505,0,0,0,709.633-35.783Z" transform="translate(-697.726 35.831)"/><path class="m" d="M709.633-35.783c-2.084-.263-4.066.583-5.927,1.363s-3.932,1.533-5.979,1.079a12.165,12.165,0,0,0,5.944,2.361,11.079,11.079,0,0,0,6.446-1.16,8.814,8.814,0,0,0,7.761.7c-2.416.58-3.387-2.719-5.884-3.876A10.505,10.505,0,0,0,709.633-35.783Z" transform="translate(-697.726 35.831)"/></g></g><path class="e" d="M696.983-42.834a6.625,6.625,0,0,1,.886,3.51,17.634,17.634,0,0,0-2.636,3.31c-1.077,1.778-1.424,4-2.8,5.56.056-.029-.314.191-.258.164a68.642,68.642,0,0,1-3.019-6.28A27.215,27.215,0,0,1,696.983-42.834Z" transform="translate(-684.773 55.326)"/><path class="l" d="M686.177-32.454a9.144,9.144,0,0,0,5.21,4.626c3.027,1.026,4.715-1.637,4.007-4.612-.62-2.647-2.953-6.379-6.062-6.13S684.913-35.112,686.177-32.454Z" transform="translate(-685.699 56.466)"/><path class="e" d="M701.668-39.241c-.014.772.478,1.378.994,1.352s.89-.675.846-1.448-.49-1.391-.994-1.365S701.623-40.027,701.668-39.241Z" transform="translate(-681.418 55.898)"/><path class="e" d="M708.073-39.609c-.014.785.489,1.391.994,1.365s.89-.675.846-1.46-.478-1.38-.994-1.353S708.04-40.382,708.073-39.609Z" transform="translate(-679.7 55.802)"/><path class="q" d="M706.053-40.29c1.466,2.1,3.144,3.08,5.12,4.706-1.042,1.565-3.6,1.38-3.6,1.38Z" transform="translate(-680.241 56.008)"/><path class="e" d="M699.479-41.1a.433.433,0,0,0,.438-.191,3.653,3.653,0,0,1,2.853-1.682.457.457,0,0,0,.465-.448.456.456,0,0,0-.448-.465h0a4.531,4.531,0,0,0-3.622,2.079.457.457,0,0,0,.118.634A.309.309,0,0,0,699.479-41.1Z" transform="translate(-682.11 55.044)"/><path class="e" d="M710.939-41.394a.437.437,0,0,0,.27.005.468.468,0,0,0,.186-.629,4.542,4.542,0,0,0-3.47-2.4.468.468,0,0,0-.488.424.456.456,0,0,0,.424.488h0a3.631,3.631,0,0,1,2.682,1.934A.477.477,0,0,0,710.939-41.394Z" transform="translate(-679.87 54.9)"/></g><path class="r" d="M685.351-7.546s.506,17.148-2.889,25.089c-1.352,3.17-2.661,4.773-3.745,5.548-.5-3.168-1.15-6.3-1.947-9.363a29.433,29.433,0,0,0-1.915-5.4l-.294-3.964Z" transform="translate(-656.58 64.789)"/><g transform="translate(1.971 47.108)"><path class="k" d="M687.336,49.1c-.113.545-.434,3.367-.867,5.26-.771,3.358-3.891,7.458-6.484,8.8S678.92,52.7,678.92,52.7l.489-4.072Z" transform="translate(-657.501 32.745)"/><g transform="translate(14.169 81.846)"><path class="l" d="M678.328,49l9.76,4.428h0a14.132,14.132,0,0,1-5.826,9.051l-.838.583s-9.468-9.034-8.2-11.747Z" transform="translate(-673.108 -49.001)"/></g><path class="e" d="M661.936,36.886c0,14.017,4.762,19.217,8.909,31.273a5.08,5.08,0,0,0,5.924,3.286c4.654-1.042,9.231-4.465,6.294-10.507,0,0-2.818-7.833-4.7-23.312a17.992,17.992,0,0,1-.025-6.356c1.415-5.974,7.055-17.866,8.354-25.83,1.111-6.805,2.507-15.314-.7-18.148C671.036-25.935,661.937,10.013,661.936,36.886Z" transform="translate(-661.936 15.538)"/></g><path class="r" d="M675.693-16.477l.011.052a3.137,3.137,0,0,0,4.39,2.2c3.072-1.5,11.6,1.368,14.97.635,0,0,.01-4.578.008-5.841,0-1.363-11.408-5.64-14.777-5.927C674.581-25.849,674.654-21.02,675.693-16.477Z" transform="translate(-656.422 60.003)"/></g><path class="a" d="M715.909-42.006c-3.621-2.03-8.067-1.33-11.643.566a38.042,38.042,0,0,0-8.392,6.745c-2.683,2.61-5.267,5.042-7.92,7.6a1.516,1.516,0,0,1-2.42-.43c-.309-.648-.6-1.3-.97-1.942A1.547,1.547,0,0,1,684.4-30.7c.3-.957.625-1.93.913-2.877A22.156,22.156,0,0,1,688.825-53.9c2.955-3.773,8.649-3.86,13.327-2.824a17.975,17.975,0,0,1,11.358,8.162c.931-.416,2,.136,2.837.715A5.025,5.025,0,0,1,718.11-45.4a3.408,3.408,0,0,1-.027,2.9A1.626,1.626,0,0,1,715.909-42.006Z" transform="translate(-653.985 57.287)"/><path class="s" d="M704.945-51.621a7.1,7.1,0,0,1,1.465,2.586,13.844,13.844,0,0,0-5.311,1.146,8.759,8.759,0,0,0-1.469-2.6C701.468-50.9,703.106-51.21,704.945-51.621Z" transform="translate(-649.857 58.806)"/><g transform="translate(9.224 169.703)"><g transform="translate(0 0.119)"><path class="a" d="M691.053,108.805c-7.922.425-15.233.94-23.163.671-.79-9.255.413-22.359,3.662-31.061,6.551-3.5,14.224-1.2,21.251,1.207Z" transform="translate(-667.655 -76.624)"/><path class="k" d="M692.784,79.088l-2.663,1.152-3.714,25.443-18.678,1.128.141,2.131,23.164-.671Z" transform="translate(-667.636 -75.964)"/></g><path class="i" d="M670.966,78.44,669.84,81.9l6.506,2.422,10.677-1.671,5.194-3.008a34.078,34.078,0,0,0-11.188-3C674.326,75.969,670.966,78.44,670.966,78.44Z" transform="translate(-667.069 -76.531)"/></g></g></g></svg>