<svg xmlns="http://www.w3.org/2000/svg" width="436.032" height="153.85" viewBox="0 0 436.032 153.85"><defs><style>.a{fill:#1d2949;}.b{fill:#2b478b;}.c{fill:#2c3a64;}.d{fill:#afcdfb;}.e{fill:#f99746;}</style></defs><g transform="translate(0)"><path class="a" d="M1164.692,1400.806H895.926l-90.769-8.176s16.242-40.469,20.67-41.077,330.352,0,330.352,0Z" transform="translate(-761.434 -1282.383)"/><path class="b" d="M696.8,1227.538c6.688,2.736,47.119,3.344,47.119,3.344s-.912-49.55,40.734-43.775,34.367,46.9,34.367,46.9l200.223,3.573s-3.253-52.236,40.953-46.742c36.728,4.564,27.294,46.545,27.294,46.545,36.614,1.893,40.4-10.539,40.4-10.539v-5.133h-2.3V1208.2h2.3v-10.064l-7.7-17.632,0,0c-12.975-22.291-114.709-28.371-114.709-28.371-15.451-8.883-28.262-15.484-38.282-20.279-15.987-7.649-34.21-15.107-51.847-16.85-47.753-4.72-87.02.628-96.646,2.189-11.246,1.824-67.789,26.446-72.045,28.574s-38.967,5.014-43.426,5.555-4.325,5-4.325,5l-.612,3.956-2.331,15.066-.569,3.677c-3.242,1.621-3.247,6.266-3.247,6.266S690.118,1224.8,696.8,1227.538Z" transform="translate(-691.859 -1113.099)"/><g transform="translate(322.182 70.009)"><ellipse class="c" cx="30.832" cy="30.832" rx="30.832" ry="30.832" transform="translate(23.445 80.477) rotate(-112.347)"/><g transform="translate(16.127 16.127)"><path class="d" d="M887.089,1459.088a24.112,24.112,0,1,0-24.112-24.111A24.139,24.139,0,0,0,887.089,1459.088Zm0-45.994a21.883,21.883,0,1,1-21.882,21.883A21.907,21.907,0,0,1,887.089,1413.094Z" transform="translate(-862.977 -1410.865)"/></g><g transform="translate(18.089 17.094)"><g transform="translate(17.195)"><path class="d" d="M930.164,1460.375H938.8L936.03,1436.7l3.169-22.488-9.873.609,3.291,21.879Z" transform="translate(-929.326 -1414.21)"/></g><g transform="translate(0.2 7.268)"><path class="d" d="M909.309,1470.238l4.319-7.482-21.892-9.434-17.893-13.987-4.408,8.855,20.594,8.087Z" transform="translate(-869.435 -1439.335)"/></g><g transform="translate(0 7.004)"><path class="d" d="M915.93,1445.639l-4.746-7.218-18.26,15.325-20.532,9.707,5.934,7.915L894.8,1456.6Z" transform="translate(-872.392 -1438.421)"/></g><path class="d" d="M934.446,1474.3a8.045,8.045,0,1,0-8.045,8.045A8.045,8.045,0,0,0,934.446,1474.3Z" transform="translate(-904.204 -1451.203)"/></g></g><g transform="translate(45.433 66.645)"><circle class="c" cx="30.832" cy="30.832" r="30.832" transform="translate(43.602 87.205) rotate(-135)"/><g transform="translate(19.49 19.491)"><path class="d" d="M1832.161,1459.088a24.112,24.112,0,1,0-24.112-24.111A24.139,24.139,0,0,0,1832.161,1459.088Zm0-45.994a21.883,21.883,0,1,1-21.883,21.883A21.907,21.907,0,0,1,1832.161,1413.094Z" transform="translate(-1808.049 -1410.865)"/></g><g transform="translate(21.453 20.458)"><g transform="translate(17.195)"><path class="d" d="M1875.237,1460.375h8.639L1881.1,1436.7l3.169-22.488-9.873.609,3.291,21.879Z" transform="translate(-1874.398 -1414.21)"/></g><g transform="translate(0.2 7.268)"><path class="d" d="M1854.382,1470.238l4.319-7.482-21.892-9.434-17.893-13.987-4.408,8.855,20.594,8.087Z" transform="translate(-1814.508 -1439.335)"/></g><g transform="translate(0 7.004)"><path class="d" d="M1861,1445.639l-4.746-7.218L1838,1453.746l-20.531,9.707,5.934,7.915,16.473-14.77Z" transform="translate(-1817.465 -1438.421)"/></g><path class="d" d="M1879.518,1474.3a8.045,8.045,0,1,0-8.044,8.045A8.045,8.045,0,0,0,1879.518,1474.3Z" transform="translate(-1849.277 -1451.203)"/></g></g><path class="a" d="M710.966,1494.218h6.884a6.288,6.288,0,0,1,5.489,3.22l.236.422a.64.64,0,0,1-.559.952h-8.284a2.048,2.048,0,0,1-1.505-.659l-2.7-2.928A.6.6,0,0,1,710.966,1494.218Z" transform="translate(-292.979 -1383.97)"/><path class="d" d="M1540.039,1168.644l102.919,2.444a3.592,3.592,0,0,0,3.678-3.591v-23.712a3.344,3.344,0,0,0-3.393-3.344c-43.888.61-58.929,1.833-67.948,4.945-7.956,2.744-26.56,14.031-36.177,19.758A1.884,1.884,0,0,0,1540.039,1168.644Z" transform="translate(-1455.429 -1132.531)"/><path class="d" d="M1181.258,1139.888q-2.505.028-4.9.059v30.927l99.29,2.357a1.3,1.3,0,0,0,.756-2.369C1264.8,1163.043,1225.943,1139.382,1181.258,1139.888Z" transform="translate(-981.094 -1132.133)"/><path class="d" d="M1907.238,1227.41l.054,0v-4.3c-.351.211-.693.414-1.023.61A1.983,1.983,0,0,0,1907.238,1227.41Z" transform="translate(-1822.277 -1191.289)"/><path class="b" d="M1496.161,1167.707l12.16-.964-.811-33.075h-11.349Z" transform="translate(-1304.953 -1127.718)"/><path class="b" d="M1784.82,1178.364h5.675v-29.7l-5.675,3.405Z" transform="translate(-1670.627 -1138.375)"/><path class="c" d="M1176.53,1219.24l-3.027,10.028,16.562.393a.983.983,0,0,0,.6-1.78C1186.924,1225.192,1179.995,1220.4,1176.53,1219.24Z" transform="translate(-894.369 -1188.536)"/><g transform="translate(201.747 6.982)"><path class="a" d="M1263.783,1172.205a1.558,1.558,0,0,0,.891-2.836l-.345-.238c-.358-.249-.76-.522-1.2-.82q-.545-.367-1.168-.778l-.627-.412q-.713-.467-1.513-.976l-1.182-.75-.067-.041c-.058-.036-.117-.073-.176-.109-.343-.214-.706-.441-1.079-.669l-.082-.051c-.123-.076-.248-.153-.374-.229-.184-.113-.379-.233-.576-.351-.273-.165-.549-.332-.833-.5-.795-.478-1.651-.983-2.541-1.5q-.414-.24-.84-.484-.842-.485-1.732-.981h0l-.417-.234c-1.2-.665-2.408-1.324-3.6-1.959l-.393-.207-.547-.29c-2.277-1.193-4.616-2.363-6.957-3.48l-.727-.344q-1.095-.518-2.224-1.034c-.249-.115-.5-.23-.76-.345-.5-.228-1.013-.457-1.531-.685l-.776-.341c-.773-.341-1.6-.7-2.517-1.083q-.716-.3-1.438-.6c-3.245-1.338-6.553-2.6-9.832-3.738l-.718-.249c-.27-.094-.542-.185-.813-.276l-1.023-.343q-.415-.138-.83-.272l-.032-.011c-.288-.1-.579-.19-.87-.282-.528-.169-1.057-.338-1.59-.5-.362-.114-.729-.226-1.1-.338-.563-.17-1.126-.338-1.693-.5l-.942-.271q-.89-.254-1.787-.5c-1.185-.326-2.393-.643-3.588-.941l-.072-.018c-.106-.027-.211-.054-.318-.079-.508-.127-1.029-.253-1.551-.376-.308-.074-.622-.148-.938-.22l-.236-.054c-.234-.054-.469-.108-.7-.159q-.468-.105-.941-.209c-.316-.069-.632-.136-.947-.2s-.637-.133-.955-.2-.634-.13-.956-.193l-.052-.01q-.453-.09-.908-.177c-.3-.059-.6-.116-.906-.173-.342-.063-.682-.124-1.025-.185-.217-.04-.438-.078-.659-.117l-.31-.054q-.971-.166-1.942-.32c-.323-.052-.65-.1-.978-.153l-.05-.008q-.861-.129-1.723-.249c-1.072-.148-2.15-.286-3.2-.408l-.069-.008c-.3-.034-.591-.068-.888-.1-.206-.024-.424-.047-.64-.067s-.441-.048-.672-.069-.5-.05-.749-.073c-.332-.032-.669-.063-1.009-.092-.32-.028-.646-.055-.972-.079-.258-.021-.505-.041-.754-.059l-1.441-.1c-.284-.018-.568-.035-.854-.051l-.125-.006c-.311-.018-.631-.034-.949-.049-.251-.012-.506-.025-.762-.035h-.024c-.229-.01-.456-.02-.684-.027l-.564-.02-.673-.02a3.231,3.231,0,0,0-3.32,3.228v25.63a3.98,3.98,0,0,0,3.862,3.955l90.767,2.155Zm-14.99-10.73.562.314q.981.547,1.91,1.08c.284.163.561.322.834.481.884.511,1.732,1.01,2.521,1.485.283.169.557.334.828.5q.289.175.571.349c.128.077.247.151.364.223l.086.052c.371.227.73.451,1.079.669l.23.143,1.172.743q.791.505,1.493.963l.624.41q.616.407,1.155.77c.433.293.83.563,1.186.81l.165.114-17.052-.4-73.505-1.745a2.348,2.348,0,0,1-2.279-2.334v-25.63a1.609,1.609,0,0,1,1.654-1.607l.664.02.564.02c.223.008.444.017.668.027h.027q.38.015.754.034c.313.014.626.03.936.048l.126.006c.276.016.556.032.836.05l1.43.1c.243.017.486.037.73.057.336.026.655.052.972.079.336.029.667.058,1,.091.251.022.5.046.741.072.227.021.442.042.656.068s.432.043.638.067c.3.031.588.064.878.1l.068.008c1.042.121,2.107.256,3.168.4.569.079,1.137.161,1.7.246l.047.007c.324.05.648.1.97.152q.966.152,1.919.317l.309.054c.216.038.432.075.649.115.342.061.679.121,1.015.184l.9.171c.3.058.6.117.9.176l.052.011c.315.062.627.124.94.19s.634.13.949.2.624.133.937.2.623.137.935.207c.234.052.464.1.693.157l.24.055c.31.07.616.142.923.217.521.122,1.034.247,1.543.373.106.025.2.05.3.075l.077.019c1.185.3,2.381.609,3.555.933.595.161,1.183.327,1.77.494l.936.269c.557.164,1.117.332,1.675.5q.544.165,1.086.333c.531.165,1.056.332,1.58.5.286.091.571.183.855.277l.036.012q.409.133.82.269l1.018.341c.267.09.535.18.8.272l.714.248c3.252,1.132,6.531,2.379,9.748,3.706q.718.3,1.429.594c.911.384,1.727.734,2.493,1.072l.774.341q.768.338,1.517.679c.255.114.5.226.749.341.751.343,1.485.683,2.209,1.026l.725.344c2.318,1.107,4.64,2.267,6.894,3.448l.549.29.388.2C1246.631,1160.291,1247.717,1160.88,1248.793,1161.476Z" transform="translate(-1169.114 -1137.235)"/></g><g transform="translate(82.05 14.784)"><path class="a" d="M1832.4,1187.042a2.325,2.325,0,0,0,1.63-.674,2.66,2.66,0,0,0,.785-1.9v-17.305c0-.984-.146-2.241-.943-2.738a3.147,3.147,0,0,0-2.7.251c-.847.416-1.438.714-1.756.886-.034.017-.08.043-.128.068l-.345.188c-4.312,2.356-10.453,6.064-18.251,11.021l-.99.63c-.787.5-1.551.991-2.287,1.465l-2.735,1.765q-.713.462-1.366.888l-.194.125-.06.038a2.509,2.509,0,0,0-1.006,2.815,2.3,2.3,0,0,0,2.157,1.746l.3.007,27.828.723Zm-.152-21.184a1.019,1.019,0,0,1,.534.159,1.326,1.326,0,0,1,.6,1.146v17.305a1.217,1.217,0,0,1-.351.872.907.907,0,0,1-.65.266l-28.125-.73a.9.9,0,0,1-.813-.7,1.077,1.077,0,0,1,.406-1.22l.06-.039.188-.121c.442-.288.9-.584,1.371-.891l2.729-1.761c.735-.474,1.5-.962,2.284-1.463q.488-.311.986-.627c7.773-4.942,13.886-8.633,18.17-10.974l.349-.19.105-.057c.31-.168.9-.465,1.719-.867A.993.993,0,0,1,1832.247,1165.857Z" transform="translate(-1801.954 -1164.206)"/></g><path class="c" d="M1176.53,1219.24l-3.027,10.028,16.562.393a.983.983,0,0,0,.6-1.78C1186.924,1225.192,1179.995,1220.4,1176.53,1219.24Z" transform="translate(-894.369 -1188.536)"/><g transform="translate(119.055 7.099)"><path class="a" d="M1603.961,1169.908a4.4,4.4,0,0,0,4.4-4.4v-23.713a4.155,4.155,0,0,0-4.214-4.154c-45.3.63-59.327,1.658-68.223,5l-.526.2v25.448l68.456,1.624Zm.242-30.648a2.535,2.535,0,0,1,2.534,2.533v23.713a2.781,2.781,0,0,1-2.848,2.779l-66.873-1.586v-22.737c8.656-3.072,23.5-4.095,67.15-4.7Z" transform="translate(-1535.394 -1137.64)"/></g><path class="e" d="M2066.132,1291.251h19.378a9.4,9.4,0,0,0,7.389-3.588l7.328-9.313a1.338,1.338,0,0,0-1.051-2.166h-30.713Z" transform="translate(-2062.026 -1229.008)"/><g transform="translate(195.254 7.504)"><rect class="a" width="103.845" height="0.811" transform="translate(1.23 103.847) rotate(-90.679)"/></g><g transform="translate(127.452 109.844)"><rect class="a" width="200.359" height="0.811" transform="translate(200.32 4.758) rotate(-178.871)"/></g><path class="a" d="M1404.452,1316.509c0,1.1,4.9,1.989,10.944,1.989s10.944-.891,10.944-1.989-4.9-1.989-10.944-1.989S1404.452,1315.411,1404.452,1316.509Z" transform="translate(-1196.442 -1256.254)"/><path class="a" d="M1756.8,1316.509c0,1.1,4.9,1.989,10.943,1.989s10.944-.891,10.944-1.989-4.9-1.989-10.944-1.989S1756.8,1315.411,1756.8,1316.509Z" transform="translate(-1650.711 -1256.254)"/><g transform="translate(84.204 36.113)"><path class="a" d="M1779.835,1312.1l.809-.044c-.559-10.323-3.619-19.023-9.093-25.86a42.952,42.952,0,0,0-17.6-12.745,66.659,66.659,0,0,0-24.37-4.631v-30.878h-.811v31.714l.422-.017a65.518,65.518,0,0,1,24.475,4.571,42.147,42.147,0,0,1,17.263,12.5C1776.288,1293.41,1779.285,1301.951,1779.835,1312.1Z" transform="translate(-1728.767 -1237.939)"/></g><g transform="translate(297.151 40.274)"><path class="a" d="M1156.549,1325.764c.314-26.783-1.177-45.314-2.484-56.143a131.664,131.664,0,0,0-2.949-17.3l-.781.219c.06.215,6,22.081,5.4,73.212Z" transform="translate(-1150.337 -1252.324)"/></g><g transform="translate(187.815 7.504)"><rect class="a" width="15.857" height="0.81"/></g></g></svg>